<?xml version="1.0" encoding="UTF-8" standalone="no"?>
<!-- Created with Inkscape (http://www.inkscape.org/) -->

<svg
   xmlns:dc="http://purl.org/dc/elements/1.1/"
   xmlns:cc="http://creativecommons.org/ns#"
   xmlns:rdf="http://www.w3.org/1999/02/22-rdf-syntax-ns#"
   xmlns:svg="http://www.w3.org/2000/svg"
   xmlns="http://www.w3.org/2000/svg"
   xmlns:sodipodi="http://sodipodi.sourceforge.net/DTD/sodipodi-0.dtd"
   xmlns:inkscape="http://www.inkscape.org/namespaces/inkscape"
   width="140.91457"
   height="97.861382"
   id="svg3096"
   version="1.1"
   inkscape:version="0.48.5 r10040"
   sodipodi:docname="bird.svg">
  <defs
     id="defs3098" />
  <sodipodi:namedview
     id="base"
     pagecolor="#ffffff"
     bordercolor="#666666"
     borderopacity="1.0"
     inkscape:pageopacity="0.0"
     inkscape:pageshadow="2"
     inkscape:zoom="1.979899"
     inkscape:cx="10.018987"
     inkscape:cy="111.69148"
     inkscape:document-units="px"
     inkscape:current-layer="layer1"
     showgrid="false"
     fit-margin-top="0"
     fit-margin-left="0"
     fit-margin-right="0"
     fit-margin-bottom="0"
     inkscape:window-width="1600"
     inkscape:window-height="837"
     inkscape:window-x="0"
     inkscape:window-y="27"
     inkscape:window-maximized="1" />
  <metadata
     id="metadata3101">
    <rdf:RDF>
      <cc:Work
         rdf:about="">
        <dc:format>image/svg+xml</dc:format>
        <dc:type
           rdf:resource="http://purl.org/dc/dcmitype/StillImage" />
        <dc:title />
      </cc:Work>
    </rdf:RDF>
  </metadata>
  <g
     inkscape:label="Layer 1"
     inkscape:groupmode="layer"
     id="layer1"
     transform="translate(-250.74016,-448.82232)">
    <path
       style="fill:#ffffff"
       d="m 346.83478,545.66083 c -1.91855,-4.84267 -1.13506,-10.35974 -1.31849,-15.55284 0.47591,-2.74074 0.061,-9.99925 -3.82413,-5.51316 -1.28664,6.71259 0.0211,13.75926 -1.47438,20.41889 -4.03547,0.47898 -3.06085,-7.5061 -3.28626,-10.6603 0.33098,-4.3673 0.22915,-9.63495 -5.7006,-8.43476 -12.54169,-0.64411 -24.16589,-7.89915 -30.72119,-18.53418 -5.1084,-8.18383 -9.35033,-17.87664 -7.98248,-27.73074 -2.43217,-4.69128 -7.72829,-8.0727 -8.99624,-13.74746 0.48976,-2.92963 -6.16373,-8.75014 -0.98337,-8.72773 4.39978,2.44504 10.05698,0.342 14.30457,3.43284 4.12006,4.27135 7.58737,-3.85811 11.74763,-4.88811 4.77609,-2.99936 10.18273,-5.17644 15.92286,-4.81038 11.81224,-0.21499 23.68083,3.7886 33.15649,10.78475 9.31713,8.03862 15.39998,19.01975 21.36805,29.60639 4.08619,7.88324 8.52283,15.68118 11.45777,24.07974 0.91468,2.13367 2.63927,6.51246 -1.47346,4.07059 -4.43456,-2.55045 -8.90998,-5.35328 -14.34461,-4.48782 -8.01658,0.52442 -15.41832,4.09555 -23.15007,6.0126 -2.12473,0.51886 -0.53341,3.92859 -1.18049,5.59923 -0.42542,6.38135 -0.12341,12.93613 -1.84785,19.13553 -0.10774,1.10406 -2.1638,1.48942 -1.67375,-0.0531 z m -7.86751,-25.77323 c 9.80838,-3.28677 19.82626,-5.9271 29.70023,-9.00046 5.28838,-0.86465 11.0124,-1.4357 16.15813,0.26267 -3.2701,-8.10104 -7.61176,-16.19338 -12.02668,-23.90585 -5.0671,-8.23767 -10.11323,-16.85415 -17.62149,-23.12445 -9.02921,-5.92376 -19.79624,-9.84604 -30.68677,-9.69979 -10.45535,0.45478 -19.43626,7.29567 -26.07805,14.85781 -2.59652,4.91223 -1.47026,10.77643 -1.66181,16.1231 0.2422,12.57687 7.32869,24.8463 17.881,31.61326 7.22556,4.07845 16.41848,6.50975 24.33544,2.87371 z m 10.45121,-20.47471 c -7.08284,-3.01244 -10.15957,-11.27334 -10.75249,-18.4416 2.91277,-3.9653 4.63883,5.01785 5.33063,7.34875 1.12897,5.22996 6.04323,8.71801 11.33216,8.36292 2.73495,-0.4616 9.89657,0.46392 3.71398,2.58924 -3.0846,0.90925 -6.53097,1.11253 -9.62428,0.14069 z m -34.89026,-20.0511 c -3.07194,-1.93117 -4.41118,-10.78644 -0.60846,-10.51606 0.84451,2.14389 1.9654,11.6775 3.77421,5.35635 -0.0476,-2.69154 -0.99119,-4.8326 0.95882,-1.48519 1.84096,3.46643 1.2205,9.95838 -4.12457,6.6449 z M 290.7454,469.21466 c -5.20067,-4.85898 2.40235,9.67863 1.18112,1.40265 l -0.43181,-0.67889 -0.74931,-0.72376 0,0 z m 5.54167,-2.89491 c 4.20811,-4.12105 -5.72446,-4.80901 -7.39404,-3.61323 1.99942,1.69959 5.10658,8.76155 7.39404,3.61323 z"
       id="path3034-8-4"
       inkscape:connector-curvature="0" />
    <path
       inkscape:connector-curvature="0"
       id="path2986"
       d="m 267.02262,454.58205 c -0.76808,0.73165 -2.10508,2.69226 -2.97106,4.35691 -0.86598,1.6646 -2.12539,4.07689 -2.79867,5.36066 -1.70813,3.16909 -5.73762,2.50193 -8.0816,1.51621 -3.52636,-1.65262 -3.02091,-5.50884 0.25654,-6.67798 1.74987,-0.57751 3.78468,0.22282 4.64269,1.82603 0.47337,0.8845 0.63249,0.70617 2.23958,-2.50976 0.95155,-1.90401 2.0152,-3.78555 2.36376,-4.18107 0.73592,-0.83526 0.51263,-1.02065 -1.71349,-1.42235 -1.59132,-0.28717 -5.56152,-3.4404 -5.01716,-3.98475 0.13358,-0.13354 1.29321,0.0499 2.57703,0.40759 1.2838,0.35775 3.75871,0.78167 5.49973,0.94205 2.53023,0.23314 3.29531,0.477 3.8123,1.2151 0.88746,1.26704 0.79705,1.61859 -0.80965,3.14913 z"
       style="fill:#ffffff"
       sodipodi:nodetypes="csccccccscccscc" />
  </g>
</svg>
