<?xml version="1.0" encoding="UTF-8" standalone="no"?>
<!-- Created with Inkscape (http://www.inkscape.org/) -->

<svg
   xmlns:dc="http://purl.org/dc/elements/1.1/"
   xmlns:cc="http://creativecommons.org/ns#"
   xmlns:rdf="http://www.w3.org/1999/02/22-rdf-syntax-ns#"
   xmlns:svg="http://www.w3.org/2000/svg"
   xmlns="http://www.w3.org/2000/svg"
   xmlns:sodipodi="http://sodipodi.sourceforge.net/DTD/sodipodi-0.dtd"
   xmlns:inkscape="http://www.inkscape.org/namespaces/inkscape"
   width="81.947258"
   height="100.02647"
   id="svg3636"
   version="1.1"
   inkscape:version="0.48.5 r10040"
   sodipodi:docname="bug.svg">
  <defs
     id="defs3638" />
  <sodipodi:namedview
     id="base"
     pagecolor="#ffffff"
     bordercolor="#666666"
     borderopacity="1.0"
     inkscape:pageopacity="0.0"
     inkscape:pageshadow="2"
     inkscape:zoom="0.7"
     inkscape:cx="5.316178"
     inkscape:cy="117.71297"
     inkscape:document-units="px"
     inkscape:current-layer="layer1"
     showgrid="false"
     fit-margin-top="0"
     fit-margin-left="0"
     fit-margin-right="0"
     fit-margin-bottom="0"
     inkscape:window-width="480"
     inkscape:window-height="410"
     inkscape:window-x="2130"
     inkscape:window-y="367"
     inkscape:window-maximized="0" />
  <metadata
     id="metadata3641">
    <rdf:RDF>
      <cc:Work
         rdf:about="">
        <dc:format>image/svg+xml</dc:format>
        <dc:type
           rdf:resource="http://purl.org/dc/dcmitype/StillImage" />
        <dc:title />
      </cc:Work>
    </rdf:RDF>
  </metadata>
  <g
     inkscape:label="Layer 1"
     inkscape:groupmode="layer"
     id="layer1"
     transform="translate(-176.16923,-133.77751)">
    <path
       style="fill:#ffffff"
       d="m 195.55689,136.25439 c -2.10693,3.25435 -0.47924,10.71579 3.8101,11.0356 4.01072,1.68002 5.42373,6.48204 7.29879,10.08676 3.56839,8.64628 6.34864,17.89435 6.33222,27.3119 -3.07249,0.92273 -6.74871,-4.42329 -10.51661,-5.30066 -7.92196,-4.22814 -19.63832,-3.91416 -25.05251,4.11897 -2.79407,6.24808 -0.53465,13.51509 2.32044,19.33558 3.05236,5.4039 6.49676,11.2972 12.71232,13.45966 4.61936,2.90087 9.27896,-1.33141 14.003,-1.60451 5.09035,-0.44491 10.33145,-0.29922 15.34302,0.68442 3.18761,2.92223 3.28634,8.07503 5.32211,11.84754 0.82373,1.96743 2.85035,8.78805 4.95386,5.39792 -0.89151,-6.05544 -2.31042,-12.03425 -3.61174,-17.99716 1.45771,-4.967 6.56975,-7.55596 11.19925,-4.99677 7.91328,-0.0246 13.64459,-7.05098 16.4554,-13.79052 1.88741,-5.21008 3.58706,-11.96247 -0.38952,-16.63468 -3.79141,-5.10665 -11.27052,-5.01076 -16.24678,-1.78955 -4.629,2.53454 -8.03485,6.62106 -11.70755,10.301 -2.29273,-1.54337 -6.20487,-2.64116 -5.3565,-6.17955 1.3195,-8.70907 0.61662,-17.81076 3.52332,-26.21649 2.73558,-2.3234 9.00637,-3.88533 5.6475,-9.05304 -0.22568,-5.07919 -7.83069,-9.66207 -9.79665,-3.12028 0.6011,4.46883 1.43682,8.86946 -1.31972,13.00524 -1.6324,4.55227 -2.02642,9.38406 -2.59155,14.14822 -2.89072,-7.94932 -6.31237,-15.72147 -10.97114,-22.81117 -2.86421,-3.73566 -1.73053,-9.00356 -4.79234,-12.5206 -1.9938,-2.16951 -5.28964,-1.09206 -6.56872,1.28217 z m 56.2203,48.3599 c 1.14403,6.06004 -1.32336,12.90616 -6.19822,16.71718 -3.93731,2.35633 -10.36405,0.58525 -11.49905,-4.21646 -2.98103,-4.76563 -0.93632,-10.21914 3.65217,-13.05759 3.48314,-2.64485 9.32001,-5.05972 12.99661,-1.51818 0.51327,0.59234 0.85839,1.31803 1.04849,2.07505 z m -49.8574,2.0634 c 1.69707,1.089 3.39413,2.178 5.0912,3.267 -1.95885,3.77969 -4.48906,7.66399 -3.70779,12.14303 0.21381,2.48232 0.50326,4.95749 0.75339,7.43637 -2.90731,0.84641 -5.73426,3.06755 -8.83692,2.40403 -4.0341,-3.05391 -6.2526,-7.95791 -8.95167,-12.14637 -2.16798,-4.42941 -4.86214,-9.77384 -2.76769,-14.7 2.85131,-3.53279 8.13016,-2.31636 11.94921,-1.34615 2.27527,0.6838 4.46767,1.66074 6.47027,2.94209 z m 21.8683,5.8306 c 2.24739,1.94483 6.49497,7.11523 4.50097,9.17529 -4.57735,-2.54666 -7.61863,-7.52343 -12.69588,-9.17344 0.41737,-3.19453 6.53553,-1.18617 8.19491,-0.002 z m -5.8032,4.0456 c 2.83341,3.0778 6.4364,5.35388 9.20093,8.47388 0.32037,4.20814 -7.20781,2.22986 -10.12097,2.72806 -4.85795,0.89815 -5.54556,-3.91186 -4.51731,-7.44292 0.39601,-1.10459 2.4412,1.44349 3.4871,1.77828 1.77935,2.0562 5.95024,2.2972 2.46084,-0.68929 -1.92252,-1.08529 -6.59575,-6.58653 -3.1225,-7.21935 0.97642,0.66503 1.78257,1.53956 2.61191,2.37134 z"
       id="path3619"
       inkscape:connector-curvature="0" />
  </g>
</svg>
