<?xml version="1.0" encoding="UTF-8" standalone="no"?>
<!-- Created with Inkscape (http://www.inkscape.org/) -->

<svg
   xmlns:dc="http://purl.org/dc/elements/1.1/"
   xmlns:cc="http://creativecommons.org/ns#"
   xmlns:rdf="http://www.w3.org/1999/02/22-rdf-syntax-ns#"
   xmlns:svg="http://www.w3.org/2000/svg"
   xmlns="http://www.w3.org/2000/svg"
   xmlns:sodipodi="http://sodipodi.sourceforge.net/DTD/sodipodi-0.dtd"
   xmlns:inkscape="http://www.inkscape.org/namespaces/inkscape"
   width="189.6633"
   height="190.38669"
   id="svg3005"
   version="1.1"
   inkscape:version="0.48.5 r10040"
   sodipodi:docname="dead-bird.svg">
  <defs
     id="defs3007" />
  <sodipodi:namedview
     id="base"
     pagecolor="#ffffff"
     bordercolor="#666666"
     borderopacity="1.0"
     inkscape:pageopacity="0.0"
     inkscape:pageshadow="2"
     inkscape:zoom="2.8"
     inkscape:cx="152.53863"
     inkscape:cy="41.0999"
     inkscape:document-units="px"
     inkscape:current-layer="layer1"
     showgrid="false"
     fit-margin-top="0"
     fit-margin-left="0"
     fit-margin-right="0"
     fit-margin-bottom="0"
     inkscape:window-width="1920"
     inkscape:window-height="1137"
     inkscape:window-x="1600"
     inkscape:window-y="27"
     inkscape:window-maximized="1" />
  <metadata
     id="metadata3010">
    <rdf:RDF>
      <cc:Work
         rdf:about="">
        <dc:format>image/svg+xml</dc:format>
        <dc:type
           rdf:resource="http://purl.org/dc/dcmitype/StillImage" />
        <dc:title></dc:title>
      </cc:Work>
    </rdf:RDF>
  </metadata>
  <g
     inkscape:label="Layer 1"
     inkscape:groupmode="layer"
     id="layer1"
     transform="translate(-280.16836,-437.16884)">
    <path
       sodipodi:type="inkscape:offset"
       inkscape:radius="-0.748981"
       inkscape:original="M 73.1875 0 C 72.681913 -0.01084255 72.141109 0.03145 71.5625 0.15625 C 74.726124 6.1792075 75.083223 10.531393 76.125 15.28125 C 76.273825 15.959801 76.437535 16.642015 76.625 17.34375 C 66.7798 9.68637 62.58529 1.48925 50.34375 4.21875 C 60.896591 10.043126 69.739505 20.853626 77.3125 23.53125 C 74.552447 31.819385 73.332335 40.621635 71.375 49.125 C 69.83725 51.75429 71.58167 57.92218 67.875 58.21875 C 64.500955 58.500692 61.146871 58.955882 57.78125 59.46875 C 54.415629 59.981618 51.054548 60.542013 47.6875 61.03125 C 46.003976 61.275868 44.310728 61.496519 42.625 61.6875 C 41.782136 61.78299 40.937396 61.892635 40.09375 61.96875 C 35.875522 62.349326 31.655566 62.464619 27.40625 62.0625 C 18.05012 62.04612 11.28534 56.10476 4.53125 50.625 C -1.71201 45.4145 0.01021 53.23381 0.96875 57.0625 C 3.62484 71.95308 8.95972 86.25694 13.6875 100.59375 C 20.8433 119.97702 28.09642 140.05085 41.5625 156.0625 C 54.010144 168.76838 70.243085 178.0118 87.65625 181.90625 C 59.752981 182.28607 40.123226 184.14193 47.46875 188.625 C 82.92787 189.93928 208.66843 193.35062 187.21875 184.59375 C 181.88986 184.2569 175.84621 183.92943 169.46875 183.625 C 172.11038 181.55962 165.82422 172.98035 167.15625 169.03125 C 167.04482 167.181 166.67275 165.43373 166.125 163.75 C 165.94242 163.18876 165.71882 162.64058 165.5 162.09375 C 162.87422 155.53179 157.86073 149.93018 155.75 143.53125 C 160.70973 127.36063 156.20609 109.93018 149.84375 94.8125 C 141.71536 75.18927 124.18997 59.87767 103.3125 55.40625 C 102.67014 55.43198 102.05497 55.41912 101.5 55.375 C 101.22252 55.35294 100.9754 55.31977 100.71875 55.28125 C 93.275918 54.164121 94.426632 46.281051 96 39.71875 C 96.244239 36.961041 97.377797 32.130602 97.46875 28.0625 C 105.08621 27.406187 119.39892 25.217361 121.3125 23.15625 C 121.4059 23.055639 121.46805 22.943445 121.5 22.84375 C 121.69167 22.245579 120.73878 21.671455 118.15625 21.15625 C 114.06572 19.729177 111.62877 22.721677 104.40625 23.34375 C 103.89036 23.38818 103.34859 23.41951 102.78125 23.4375 C 102.21391 23.45549 101.62351 23.45088 101 23.4375 C 103.61137 20.28442 104.76273 17.26516 108.625 10.78125 C 105.57661 5.88452 98.48383 20.50144 97.625 21.53125 C 98.44089 -7.5682757 91.8164 11.985294 92.5 23.375 C 89.102628 33.524431 89.052036 44.709524 85.375 54.8125 C 84.649941 55.419982 84.011552 55.85689 83.4375 56.15625 C 82.863448 56.45561 82.374925 56.621178 81.9375 56.65625 C 81.208459 56.7147 80.652777 56.419577 80.25 55.90625 C 80.16944 55.803585 80.100353 55.683166 80.03125 55.5625 C 78.649199 53.14918 79.506425 47.3261 80.46875 44.53125 C 81.344685 37.524457 83.283417 30.330875 83.0625 23.3125 C 86.887672 21.439549 90.411422 16.591341 93.78125 8.25 C 86.97652 -7.14519 89.37237 4.27028 80.65625 16.34375 C 80.426206 14.692259 80.771306 0.16263827 73.1875 0 z M 96.75 62.28125 C 108.37725 62.032356 119.79151 67.694554 128.75 74.84375 C 144.6331 89.05478 153.21198 111.57389 150.21875 132.75 C 148.45191 141.67276 148.74869 151.80032 143.0625 159.34375 C 131.93121 168.53882 118.15239 176.43769 103.5 177.4375 C 102.95732 177.4745 102.41996 177.51345 101.875 177.53125 C 99.695151 177.60265 97.490319 177.50785 95.28125 177.25 C 76.96166 174.5516 59.96073 165.04023 46.40625 152.65625 C 35.49842 140.10174 29.34096 124.29065 23.0625 109.09375 C 17.73677 94.95471 12.64282 80.20054 9.34375 65.71875 C 17.52188 69.96051 27.29581 70.55305 36.40625 70.53125 C 45.10851 69.286455 53.835663 68.225353 62.5625 67.125 C 66.925919 66.574824 71.300816 66.009726 75.65625 65.40625 C 80.011684 64.802774 84.34947 64.153882 88.6875 63.4375 C 91.363453 62.694421 94.066788 62.338687 96.75 62.28125 z M 49.875 91.75 C 49.433942 91.68075 48.957759 91.911223 48.40625 92.46875 C 47.62541 104.67257 45.02166 137.17627 56.1875 144 C 61.14926 146.4019 72.71129 129.04542 78.125 128.28125 C 89.05109 126.24015 76.46704 116.24234 66.28125 130.34375 C 64.384025 132.97031 62.613333 135.0139 61.03125 136.09375 C 60.714833 136.30972 60.394518 136.48958 60.09375 136.625 C 59.943366 136.6927 59.802531 136.73485 59.65625 136.78125 C 59.509969 136.82765 59.360802 136.88193 59.21875 136.90625 C 56.661815 137.34399 54.796314 134.14504 54 125.03125 C 53.547518 119.8526 54.138564 92.419417 49.875 91.75 z M 108.96875 131.625 C 106.98185 132.5432 105.28251 133.6139 106.9375 136.1875 C 108.15323 137.9765 109.69091 139.54407 111.40625 141 C 110.04571 141.83793 108.95111 142.74587 108.34375 143.71875 C 108.24685 143.87393 108.16661 144.03016 108.09375 144.1875 C 107.72945 144.97421 107.66353 145.77947 108 146.59375 C 110.36829 152.73959 110.88354 152.93693 111.53125 148.40625 C 112.54917 147.05589 114.41406 145.83911 116.59375 144.84375 C 119.48412 146.80793 122.47637 148.71841 125.125 150.84375 C 128.72678 150.90395 128.81563 149.5568 129.15625 148.3125 C 126.81772 146.38446 124.35972 144.69817 121.90625 143 C 126.35181 141.86777 130.53806 141.73905 131.0625 143.25 C 137.37237 144.73179 132.47806 141.13443 127.84375 137.0625 C 124.81519 136.77225 120.98301 137.31774 117.46875 138.375 C 117.01846 138.51047 116.56188 138.66053 116.125 138.8125 C 116.1135 138.8035 116.10515 138.79035 116.09375 138.78125 C 113.53926 136.75602 111.11959 134.45753 108.96875 131.625 z M 155.4375 154.5625 C 157.60799 154.4885 161.73123 169.00138 155.9375 161.53125 L 154.875 160.125 L 154.3125 158.875 C 154.3418 156.65288 154.61234 155.40344 154.96875 154.875 C 155.04005 154.76931 155.10769 154.70823 155.1875 154.65625 C 155.2673 154.60425 155.35068 154.5654 155.4375 154.5625 z M 149.03125 162.28125 C 152.51692 161.97188 155.01824 170.31773 157.28125 172.96875 C 154.15557 174.52456 137.66631 170.68601 145.84375 164.90625 C 146.98809 163.15116 148.05526 162.36787 149.03125 162.28125 z M 138.65625 171.53125 C 140.3315 171.49525 141.9035 172.24167 143.34375 174.3125 C 149.24454 180.25276 158.45568 178.86622 165.125 183.03125 C 165.31627 183.1507 165.50056 183.30862 165.6875 183.4375 C 158.21466 183.10043 150.25624 182.81274 142.125 182.5625 C 137.96016 182.43433 133.74164 182.31622 129.53125 182.21875 C 124.70258 182.10697 119.89195 182.00131 115.125 181.9375 C 117.5697 181.21461 119.96772 180.33808 122.3125 179.34375 C 127.75866 178.89055 133.6305 171.63925 138.65625 171.53125 z "
       style="fill:#ffffff"
       id="path3081"
       d="m 73.15625,0.75 c -0.157025,-0.003367 -0.33587,0.0221217 -0.5,0.03125 2.749713,5.6199824 3.216396,9.916118 4.1875,14.34375 0.146707,0.668894 0.315713,1.341411 0.5,2.03125 a 0.7490559,0.7490559 0 0 1 -1.1875,0.78125 C 71.172104,14.060941 67.669493,10.089195 63.96875,7.5 60.72712,5.2320199 57.301571,4.0761486 52.53125,4.6875 c 4.652886,2.8536932 8.948859,6.452488 12.90625,9.78125 4.472457,3.76201 8.55079,7.079998 12.125,8.34375 a 0.7490559,0.7490559 0 0 1 0.46875,0.96875 c -2.730733,8.200091 -3.970082,16.952832 -5.9375,25.5 A 0.7490559,0.7490559 0 0 1 72.03125,49.5 c -0.577715,0.987793 -0.615309,3.139111 -0.84375,5.125 -0.114221,0.992944 -0.305677,1.957736 -0.78125,2.78125 -0.475573,0.823514 -1.331689,1.471524 -2.46875,1.5625 -3.348428,0.279801 -6.673644,0.738353 -10.03125,1.25 -3.358709,0.511815 -6.747601,1.071759 -10.125,1.5625 -1.690819,0.245678 -3.368398,0.46432 -5.0625,0.65625 -0.834761,0.09457 -1.699306,0.203371 -2.5625,0.28125 -4.228672,0.381518 -8.462304,0.494475 -12.75,0.09375 -0.02145,-3.8e-5 -0.04107,9.8e-5 -0.0625,0 C 17.704731,62.768622 10.785965,56.673663 4.0625,51.21875 a 0.7490559,0.7490559 0 0 1 0,-0.03125 C 2.5594312,49.933069 1.5748731,49.599821 1.28125,49.625 c -0.1468116,0.01259 -0.1656907,0.0341 -0.25,0.15625 -0.0843093,0.122145 -0.20171794,0.407205 -0.25,0.78125 -0.19312823,1.496181 0.430488,4.412167 0.90625,6.3125 a 0.7490559,0.7490559 0 0 1 0.03125,0.0625 c 2.6402053,14.801527 7.9536408,29.051005 12.6875,43.40625 l -0.03125,0 c 7.149124,19.36519 14.394148,39.31895 27.71875,55.1875 12.346924,12.60307 28.455173,21.79526 45.71875,25.65625 a 0.7490559,0.7490559 0 0 1 -0.15625,1.46875 c -13.937424,0.18972 -25.815726,0.7513 -33.21875,1.8125 -3.701512,0.5306 -6.31822,1.25821 -7.3125,1.90625 -0.24857,0.16201 -0.38848,0.2929 -0.4375,0.375 -0.04902,0.0821 -0.04515,0.0965 -0.03125,0.15625 0.02476,0.10648 0.410688,0.52414 1.0625,0.96875 17.795525,0.65787 57.89266,1.82723 90.96875,1.75 16.58356,-0.0387 31.38648,-0.39552 40.65625,-1.28125 4.63488,-0.44286 7.96821,-1.08133 9.15625,-1.6875 0.2348,-0.1198 0.29348,-0.19924 0.34375,-0.25 -0.0858,-0.1135 -0.69522,-0.58159 -1.8125,-1.0625 -5.29635,-0.33403 -11.26417,-0.66661 -17.59375,-0.96875 A 0.7490559,0.7490559 0 0 1 169,183.03125 c 0.17432,-0.13629 0.28523,-0.28548 0.34375,-0.59375 0.0585,-0.30827 0.0269,-0.75674 -0.0625,-1.28125 -0.17873,-1.04901 -0.6521,-2.43211 -1.1875,-3.875 -0.5354,-1.44289 -1.12343,-2.95324 -1.5,-4.40625 -0.34967,-1.34922 -0.49496,-2.64554 -0.1875,-3.8125 -0.10712,-1.77863 -0.46854,-3.46009 -1,-5.09375 -0.17131,-0.52661 -0.37369,-1.04382 -0.59375,-1.59375 -2.55823,-6.39316 -7.60073,-11.98324 -9.78125,-18.59375 a 0.7490559,0.7490559 0 0 1 0,-0.46875 c 4.87821,-15.90485 0.45652,-33.17431 -5.875,-48.21875 -8.02283,-19.368395 -25.32987,-34.494756 -45.90625,-38.9375 -0.63573,0.02184 -1.25427,0.01313 -1.8125,-0.03125 -0.30159,-0.02398 -0.57972,-0.05412 -0.84375,-0.09375 -1.991378,-0.298895 -3.492004,-1.083461 -4.53125,-2.21875 -1.039246,-1.135289 -1.574082,-2.589608 -1.8125,-4.15625 -0.47096,-3.094679 0.21888,-6.725025 1,-10 0.003,-0.03383 0.02802,-0.09065 0.03125,-0.125 0.272272,-2.893776 1.350393,-7.603925 1.4375,-11.5 a 0.7490559,0.7490559 0 0 1 0.6875,-0.71875 c 3.77775,-0.325488 9.2611,-1.025066 14,-1.90625 2.36945,-0.440592 4.56019,-0.943918 6.25,-1.4375 1.61968,-0.473096 2.6905,-1.006061 2.96875,-1.25 -0.045,-0.03217 -0.0175,-0.05363 -0.0937,-0.09375 -0.41281,-0.217292 -1.275,-0.468133 -2.53125,-0.71875 a 0.7490559,0.7490559 0 0 1 -0.0937,-0.03125 c -1.84785,-0.644663 -3.22328,-0.326072 -5.21875,0.3125 -1.99547,0.638572 -4.51236,1.58702 -8.21875,1.90625 -0.53056,0.04569 -1.07647,0.07537 -1.65625,0.09375 -0.58784,0.01864 -1.21379,0.01352 -1.84375,0 a 0.7490559,0.7490559 0 0 1 -0.53125,-1.21875 c 2.44701,-2.954626 3.66722,-5.983258 7.25,-12.0625 -0.15242,-0.136642 -0.32634,-0.35544 -0.46875,-0.375 -0.24212,-0.03326 -0.62819,0.05029 -1.09375,0.34375 -0.93111,0.586925 -2.11226,1.948646 -3.21875,3.5 -1.10649,1.551354 -2.14018,3.288363 -2.96875,4.71875 -0.414285,0.715193 -0.777383,1.349832 -1.0625,1.84375 C 98.589883,21.431418 98.411554,21.73134 98.1875,22 A 0.7490559,0.7490559 0 0 1 96.875,21.5 C 97.078243,14.251154 96.800063,10.040928 96.34375,8.125 96.243521,7.7041651 96.120391,7.4310837 96.03125,7.25 c -0.08072,0.1003516 -0.143503,0.1810559 -0.25,0.375 -0.63898,1.1636643 -1.40211,3.75406 -1.90625,6.6875 -0.50414,2.93344 -0.790798,6.26883 -0.625,9.03125 A 0.7490559,0.7490559 0 0 1 93.21875,23.625 c -3.345506,9.994483 -3.387957,21.169651 -7.125,31.4375 a 0.7490559,0.7490559 0 0 1 -0.25,0.3125 c -0.755441,0.632937 -1.425389,1.105256 -2.0625,1.4375 C 83.153118,57.140062 82.580329,57.35972 82,57.40625 81.040541,57.483173 80.179484,57.041846 79.65625,56.375 79.528483,56.212175 79.444297,56.058505 79.375,55.9375 c -0.853313,-1.490044 -0.917063,-3.637726 -0.75,-5.8125 0.16222,-2.111723 0.600716,-4.207479 1.09375,-5.6875 0.0065,-0.05237 0.02459,-0.103875 0.03125,-0.15625 0.893454,-7.027942 2.776977,-14.123715 2.5625,-20.9375 A 0.7490559,0.7490559 0 0 1 82.71875,22.625 c 3.481091,-1.704476 6.952565,-6.289048 10.25,-14.34375 -1.61141,-3.6163987 -2.779951,-5.7514788 -3.4375,-6.4375 -0.169586,-0.1769293 -0.26777,-0.2636924 -0.3125,-0.28125 -0.04473,-0.017558 -0.022,-0.00347 -0.03125,0 -0.01849,0.00693 -0.289702,0.2283872 -0.59375,0.78125 C 87.985653,3.4494756 87.244393,5.5701848 86.125,8.125 85.005607,10.679815 83.471348,13.704264 81.25,16.78125 A 0.7490559,0.7490559 0 0 1 79.90625,16.4375 c -0.08174,-0.586849 -0.07059,-1.70565 -0.1875,-3.28125 C 79.601839,11.58065 79.369441,9.6532502 78.9375,7.78125 78.505559,5.9092498 77.847343,4.1232156 76.90625,2.84375 75.965157,1.5642844 74.813086,0.78553162 73.15625,0.75 z m 23.5625,60.78125 c 11.88073,-0.25432 23.44977,5.496345 32.5,12.71875 a 0.7490559,0.7490559 0 0 1 0.0312,0.03125 c 16.07624,14.383838 24.75004,37.11716 21.71875,58.5625 a 0.7490559,0.7490559 0 0 1 0,0.0625 c -1.74276,8.80115 -1.42481,19.06425 -7.3125,26.875 a 0.7490559,0.7490559 0 0 1 -0.125,0.125 c -11.20289,9.25422 -25.08087,17.26537 -39.96875,18.28125 -0.54057,0.0369 -1.09172,0.0753 -1.65625,0.0937 C 99.688205,178.3539 97.432573,178.26205 95.1875,178 76.682972,175.27436 59.549985,165.68428 45.90625,153.21875 a 0.7490559,0.7490559 0 0 1 -0.0625,-0.0625 C 34.823251,140.47206 28.649444,124.56218 22.375,109.375 a 0.7490559,0.7490559 0 0 1 0,-0.0312 C 17.044217,95.191296 11.936686,80.41217 8.625,65.875 a 0.7490559,0.7490559 0 0 1 1.0625,-0.8125 c 7.95971,4.128472 17.575361,4.736088 26.625,4.71875 0.03094,-5.9e-5 0.06282,7.4e-5 0.09375,0 8.682106,-1.240599 17.368608,-2.310051 26.0625,-3.40625 4.361913,-0.549986 8.742893,-1.115908 13.09375,-1.71875 4.350101,-0.602737 8.669427,-1.253599 13,-1.96875 2.720288,-0.74896 5.439596,-1.098097 8.15625,-1.15625 z M 49.75,92.5 c -0.08243,-0.01294 -0.343696,0.1504 -0.625,0.375 -0.397711,6.165141 -1.19616,17.05895 -0.5625,27.34375 0.321359,5.21591 1.027555,10.23874 2.3125,14.34375 1.272703,4.0659 3.10755,7.17405 5.625,8.75 0.409672,0.19831 0.9397,0.24175 1.625,0.0312 0.6853,-0.2105 1.51137,-0.65726 2.40625,-1.28125 1.789761,-1.24799 3.851083,-3.22126 5.9375,-5.28125 2.086417,-2.05999 4.200025,-4.21087 6.15625,-5.9375 1.946303,-1.71787 3.677833,-3.06203 5.375,-3.3125 0.01313,-0.002 0.0182,0.002 0.03125,0 1.277884,-0.24249 2.158394,-0.60609 2.71875,-0.96875 0.566079,-0.36636 0.794139,-0.6854 0.84375,-0.9375 0.04961,-0.2521 -0.01373,-0.50676 -0.28125,-0.8125 -0.26752,-0.30574 -0.775248,-0.62862 -1.4375,-0.84375 -2.649009,-0.86052 -8.04203,-0.0514 -13,6.8125 -1.918772,2.65639 -3.675678,4.7563 -5.40625,5.9375 -0.35089,0.2395 -0.716876,0.43813 -1.0625,0.59375 -0.203883,0.0918 -0.392426,0.14347 -0.53125,0.1875 -0.125692,0.0399 -0.292453,0.11537 -0.53125,0.15625 -0.803715,0.13759 -1.646914,-0.0461 -2.34375,-0.53125 -0.696836,-0.48513 -1.239924,-1.23115 -1.71875,-2.25 C 54.323597,132.8373 53.65191,129.6936 53.25,125.09375 53.011315,122.36201 53.064804,114.30597 52.625,106.75 52.405098,102.97201 52.068954,99.335795 51.53125,96.65625 51.262398,95.316477 50.940223,94.195914 50.59375,93.46875 50.247277,92.741586 49.894442,92.522679 49.75,92.5 z m 59.09375,40.09375 c -0.697,0.36395 -1.38389,0.72967 -1.625,1.09375 -0.15256,0.23037 -0.21559,0.43409 -0.1875,0.75 0.0281,0.31591 0.16182,0.76927 0.53125,1.34375 1.16503,1.71439 2.66226,3.22905 4.34375,4.65625 a 0.7490559,0.7490559 0 0 1 -0.0937,1.1875 c -1.30757,0.80531 -2.33961,1.69246 -2.84375,2.5 -0.0757,0.12118 -0.12331,0.23638 -0.1875,0.375 -0.29689,0.64113 -0.35048,1.1912 -0.0937,1.8125 0.58928,1.52921 1.06451,2.6951 1.4375,3.46875 0.11293,0.23424 0.18914,0.3699 0.28125,0.53125 0.12461,-0.45591 0.23857,-1.04571 0.375,-2 a 0.7490559,0.7490559 0 0 1 0.15625,-0.34375 c 1.15242,-1.52879 3.1011,-2.78839 5.34375,-3.8125 A 0.7490559,0.7490559 0 0 1 117,144.21875 c 2.79272,1.89782 5.7135,3.7612 8.34375,5.84375 1.50092,-0.009 2.20754,-0.25595 2.5,-0.53125 0.21358,-0.20105 0.29913,-0.59931 0.40625,-0.96875 -2.18112,-1.76134 -4.47396,-3.34051 -6.78125,-4.9375 a 0.7490559,0.7490559 0 0 1 0.25,-1.34375 c 2.27069,-0.57832 4.48195,-0.92232 6.25,-0.90625 0.88403,0.008 1.65633,0.11993 2.3125,0.34375 0.48089,0.16403 0.88829,0.45178 1.1875,0.84375 0.61379,0.1349 1.15827,0.25494 1.5,0.28125 0.0661,0.005 0.0385,-1.2e-4 0.0937,0 -0.0427,-0.0604 -0.0364,-0.0558 -0.0937,-0.125 -0.85793,-1.03471 -3.15846,-2.94122 -5.40625,-4.90625 -2.85375,-0.23459 -6.51409,0.27012 -9.875,1.28125 -0.43793,0.13175 -0.88406,0.28847 -1.3125,0.4375 a 0.7490559,0.7490559 0 0 1 -0.71875,-0.125 c -0.15178,-0.11878 -0.15543,-0.13038 -0.0312,-0.0312 -2.41617,-1.91556 -4.69883,-4.15075 -6.78125,-6.78125 z m 46.5625,21.21875 c 0.69196,-0.0236 1.12954,0.39418 1.5,0.84375 0.37046,0.44957 0.68294,1.03706 1,1.6875 0.63411,1.30087 1.19615,2.9007 1.5,4.3125 0.15192,0.7059 0.25373,1.36428 0.25,1.9375 -0.004,0.57322 -0.0437,1.16273 -0.59375,1.59375 -0.27504,0.21551 -0.68482,0.25227 -1,0.1875 -0.31518,-0.0648 -0.57182,-0.20845 -0.84375,-0.40625 -0.54386,-0.39559 -1.12798,-1.00558 -1.875,-1.96875 a 0.7490559,0.7490559 0 0 1 0,-0.0312 l -1.0625,-1.40625 a 0.7490559,0.7490559 0 0 1 -0.0937,-0.125 l -0.5625,-1.25 a 0.7490559,0.7490559 0 0 1 -0.0625,-0.3125 c 0.03,-2.27919 0.21706,-3.56974 0.78125,-4.40625 0.1193,-0.17684 0.29502,-0.3447 0.4375,-0.4375 0.13677,-0.0891 0.33111,-0.20893 0.625,-0.21875 z m -6.4375,7.71875 c 1.17466,-0.10426 2.18912,0.54161 3.03125,1.40625 0.84213,0.86464 1.59513,2.0041 2.28125,3.21875 1.37223,2.4293 2.59451,5.17854 3.5625,6.3125 A 0.7490559,0.7490559 0 0 1 157.625,173.625 c -1.12659,0.56076 -2.76336,0.52092 -4.6875,0.28125 -1.92414,-0.23967 -4.07624,-0.75139 -5.90625,-1.53125 -1.83001,-0.77986 -3.41659,-1.77493 -4,-3.28125 -0.2917,-0.75316 -0.24901,-1.62223 0.15625,-2.4375 0.40526,-0.81527 1.13217,-1.60701 2.21875,-2.375 1.14451,-1.66941 2.30665,-2.63854 3.5625,-2.75 z m -10.34375,9.25 c 1.87374,-0.0403 3.72778,0.87254 5.25,3 0.0106,0.0107 0.0206,0.0206 0.0312,0.0312 0.0183,0.0258 0.0443,0.0363 0.0625,0.0625 2.77896,2.74083 6.35511,3.81947 10.15625,4.71875 3.84499,0.90965 7.90852,1.62815 11.40625,3.8125 0.25949,0.16206 0.45282,0.30909 0.59375,0.40625 a 0.7490559,0.7490559 0 0 1 -0.46875,1.375 c -7.46809,-0.33686 -15.43388,-0.62484 -23.5625,-0.875 -4.16344,-0.12813 -8.38578,-0.24634 -12.59375,-0.34375 -4.82808,-0.11177 -9.61237,-0.2175 -14.375,-0.28125 a 0.7490559,0.7490559 0 0 1 -0.21875,-1.46875 c 2.41454,-0.71397 4.80355,-1.57806 7.125,-2.5625 a 0.7490559,0.7490559 0 0 1 0.21875,-0.0625 c 2.41626,-0.20107 5.19103,-2.02276 7.96875,-3.90625 2.77772,-1.88349 5.53967,-3.84465 8.40625,-3.90625 z"
       transform="translate(280.16836,437.16884)" />
  </g>
</svg>
