<?xml version="1.0" encoding="UTF-8" standalone="no"?>
<!-- Created with Inkscape (http://www.inkscape.org/) -->

<svg
   xmlns:dc="http://purl.org/dc/elements/1.1/"
   xmlns:cc="http://creativecommons.org/ns#"
   xmlns:rdf="http://www.w3.org/1999/02/22-rdf-syntax-ns#"
   xmlns:svg="http://www.w3.org/2000/svg"
   xmlns="http://www.w3.org/2000/svg"
   xmlns:sodipodi="http://sodipodi.sourceforge.net/DTD/sodipodi-0.dtd"
   xmlns:inkscape="http://www.inkscape.org/namespaces/inkscape"
   width="141.22707"
   height="356.62146"
   id="svg4211"
   version="1.1"
   inkscape:version="0.48.5 r10040"
   sodipodi:docname="jelly_fish.svg">
  <defs
     id="defs4213" />
  <sodipodi:namedview
     id="base"
     pagecolor="#ffffff"
     bordercolor="#666666"
     borderopacity="1.0"
     inkscape:pageopacity="0.0"
     inkscape:pageshadow="2"
     inkscape:zoom="0.35"
     inkscape:cx="70.613535"
     inkscape:cy="178.31075"
     inkscape:document-units="px"
     inkscape:current-layer="layer1"
     showgrid="false"
     fit-margin-top="0"
     fit-margin-left="0"
     fit-margin-right="0"
     fit-margin-bottom="0"
     inkscape:window-width="480"
     inkscape:window-height="430"
     inkscape:window-x="1118"
     inkscape:window-y="63"
     inkscape:window-maximized="0" />
  <metadata
     id="metadata4216">
    <rdf:RDF>
      <cc:Work
         rdf:about="">
        <dc:format>image/svg+xml</dc:format>
        <dc:type
           rdf:resource="http://purl.org/dc/dcmitype/StillImage" />
        <dc:title />
      </cc:Work>
    </rdf:RDF>
  </metadata>
  <g
     inkscape:label="Layer 1"
     inkscape:groupmode="layer"
     id="layer1"
     transform="translate(-304.38646,-354.05148)">
    <g
       id="g4171"
       transform="translate(1633.8125,2038.8782)"
       style="fill:#ffffff">
      <g
         transform="matrix(1,0,0,0.84370725,-1382.3938,-757.21843)"
         id="g4126"
         style="fill:#ffffff">
        <path
           sodipodi:nodetypes="cccccscsccscscccccccsscccsccccccccccccccscccssc"
           inkscape:connector-curvature="0"
           id="path3155-7-5-9"
           transform="translate(1382.3938,599.52555)"
           d="m -1258.8125,-1698.9688 c -6.0199,-0.01 -11.9049,1.2821 -17.4687,3.8438 -8.024,3.6943 -23.1998,21.174 -23.125,26.625 0.03,2.162 -0.4737,3.0428 -2.625,4.6562 -2.1618,1.6216 -2.8189,2.7779 -3.5,6.2813 -1.5892,8.1725 -12.1926,20.9497 -18,21.6875 -3.1242,0.3969 -6.3405,4.4859 -5.8438,7.4375 0.7505,4.4589 2.8323,6.2665 11.2188,9.75 12.9687,5.3868 23.7144,7.7283 43.25,9.4375 11.2624,1.0861 21.3067,0.9546 32.1874,0 19.5356,-1.7092 30.2813,-4.0507 43.25,-9.4375 8.3865,-3.4835 10.4683,-5.2911 11.2188,-9.75 0.4967,-2.9516 -2.7196,-7.0406 -5.8438,-7.4375 -5.8074,-0.7378 -16.4108,-13.515 -18,-21.6875 -0.6811,-3.5034 -1.3382,-4.6597 -3.5,-6.2813 -2.1513,-1.6134 -2.6545,-2.4942 -2.625,-4.6562 0.075,-5.451 -15.101,-22.9307 -23.125,-26.625 -5.5638,-2.5617 -11.4487,-3.8537 -17.4687,-3.8438 z m -1.5,4.8438 c 0.4886,-0.01 1.0039,-0.015 1.5,0 7.9382,-0.2487 14.8473,2.5695 22.7813,8.8125 3.5989,2.8318 7.9614,6.0973 9.6874,7.25 2.2364,1.4936 2.9168,2.3651 2.375,3.0313 -0.418,0.5141 -0.1793,1.851 0.5313,2.9687 0.711,1.1182 0.8413,2.9857 0.2813,4.1563 -1.1589,2.4223 -0.4997,3.8584 2.3437,5.2187 1.6032,0.767 1.9869,1.766 2.0313,5.25 0.049,3.8681 0.2957,4.3837 2.4687,5.375 1.3272,0.6055 4.544,4.0094 7.1563,7.5625 4.2944,5.8412 7.6511,8.7578 15.5624,13.5 2.2781,1.3656 2.3203,1.5417 1.0938,3.7188 -1.6537,2.9349 -13.7777,8.0497 -24.7188,10.4374 -9.0884,1.9837 -32.6402,4.6378 -39.25,4.4063 -1.6222,-0.014 -3.1013,-0.028 -4.6874,0 -6.6098,0.2315 -30.1616,-2.4226 -39.25,-4.4063 -10.9411,-2.3877 -23.0651,-7.5025 -24.7188,-10.4374 -1.2265,-2.1771 -1.1843,-2.3532 1.0938,-3.7188 7.9113,-4.7422 11.268,-7.6588 15.5624,-13.5 2.6123,-3.5531 5.8291,-6.957 7.1563,-7.5625 2.173,-0.9913 2.4194,-1.5069 2.4687,-5.375 0.045,-3.484 0.4281,-4.483 2.0313,-5.25 2.8434,-1.3603 3.5026,-2.7964 2.3437,-5.2187 -0.5599,-1.1706 -0.4297,-3.0381 0.2813,-4.1563 0.7106,-1.1177 0.9493,-2.4546 0.5313,-2.9687 -0.5418,-0.6662 0.1386,-1.5377 2.375,-3.0313 1.726,-1.1527 6.0885,-4.4182 9.6874,-7.25 7.4382,-5.8528 13.9523,-8.6849 21.2813,-8.8125 z"
           style="fill:#ffffff" />
      </g>
      <path
         sodipodi:nodetypes="ssssssccsscssscccc"
         inkscape:connector-curvature="0"
         id="path3155-2-1-3"
         d="m -1287.746,-1637.2556 c -2.2616,2.8773 -4.8707,5.1528 -5.9463,5.1861 -1.4088,0.044 -0.4954,-1.3101 3.4476,-5.1089 2.9503,-2.8424 5.6261,-5.1761 5.9464,-5.186 0.3202,-0.01 -1.2312,2.2891 -3.4477,5.1088 z m 16.9583,-1.6145 c 0.02,0.6346 -0.5805,2.7667 -1.3333,4.7378 -1.6499,4.3189 -3.7754,3.8811 -2.4002,-0.4943 1.0172,-3.236 3.6715,-6.2529 3.7335,-4.2435 z m 39.6542,2.7427 c 2.2918,2.0341 4.8259,3.9089 5.6314,4.1662 2.3179,0.7406 0.4038,2.0343 -2.0002,1.3521 -2.9642,-0.8409 -9.2029,-6.1151 -9.2557,-7.8246 -0.067,-2.1757 1.1262,-1.6864 5.6245,2.3063 z m -23.7855,0.1091 c 2.0214,2.331 4.3795,8.5714 3.4671,9.175 -1.2112,0.8013 -5.1124,-5.2857 -5.2048,-8.1209 -0.079,-2.57 0.2487,-2.7714 1.7377,-1.0541 z"
         style="fill:#ffffff" />
      <path
         sodipodi:nodetypes="ccsssssscsssssssssccccsscscsccccscssccsscscssccssccscssssscsssccssscscssssscccssssscccscsssscssscsscsccsscscsscsccccscccssscscsssccscccccccsscsssss"
         inkscape:connector-curvature="0"
         id="path3155-2-1-5"
         d="m -1287.1493,-1605.8924 c -2.0831,7.3077 -1.5436,5.5116 -1.8327,12.1146 -0.3555,6.7773 0.1222,13.646 0.9493,13.641 0.4243,0 3.8414,-6.0976 7.5936,-13.5447 3.7521,-7.4473 6.902,-13.5409 6.9996,-13.5415 0.098,-0.01 -0.2152,2.3638 -0.6952,5.2542 -0.48,2.8904 -1.0878,6.6065 -1.3506,8.258 -0.2627,1.6516 -2.7356,7.8069 -5.495,13.6784 -4.7934,10.1993 -4.9856,10.9361 -4.3115,16.5255 1.0558,8.7546 2.7245,16.3386 3.594,16.3335 0.4239,0 1.5829,-2.7453 2.5758,-6.0953 0.9928,-3.3498 3.8413,-9.3663 6.3299,-13.3697 7.6098,-12.242 13.8947,-29.4296 13.8451,-37.8629 -0.018,-3.0318 0.087,-3.13 1.6732,-1.5629 1.5426,1.5246 1.5802,2.5383 0.4249,11.462 -1.7438,13.47 -2.8189,16.6575 -10.1624,30.1329 -5.8511,10.7365 -10.5661,22.9013 -10.5409,27.1958 0.015,2.5142 6.8058,12.9404 12.7919,19.6394 2.8658,3.2072 6.2637,7.0894 7.5509,8.6271 l 2.3402,2.7961 5.2611,-6.6814 5.2611,-6.6815 -1.5262,-4.6505 c -4.2378,-12.9132 -4.8104,-27.6395 -1.7994,-46.2742 2.3052,-14.2666 6.3589,-31.543 7.803,-33.2552 0.5437,-0.6448 1.6731,-2.0764 2.5094,-3.1813 1.3964,-1.8447 1.475,-1.4361 0.9591,4.9944 -0.309,3.8519 -1.4023,10.1584 -2.4295,14.0145 -3.1342,11.7663 -6.0575,30.6458 -5.8893,38.0353 0.1683,7.3837 1.6627,16.9632 3.3111,21.2233 l 0.984,2.5429 2.4015,-2.2828 c 1.3208,-1.2555 4.4943,-6.6203 7.052,-11.9214 l 4.6503,-9.6386 0.3798,-15.7462 c 0.3547,-14.7087 0.2107,-16.2901 -2.1849,-24.0033 -1.4105,-4.5416 -2.8699,-10.2804 -3.2434,-12.7533 l -0.6789,-4.496 2.069,2.0289 c 2.1366,2.0952 6.384,12.5243 8.3128,20.4104 1.3699,5.6016 1.3366,29.6124 -0.051,37.0009 -1.1857,6.3116 -6.8394,18.3265 -12.1365,25.7919 l -3.6232,5.1064 1.9484,4.8361 c 3.1049,7.7064 10.1239,20.035 17.0707,29.9837 3.6933,5.2892 6.1189,9.6968 5.7077,10.3711 -0.4021,0.6592 -0.2858,0.9037 0.2654,0.5585 2.4442,-1.5304 20.148,29.3599 22.4843,39.2315 1.2341,5.2143 1.4771,14.2729 0.4117,15.3509 -0.4101,0.4149 -0.7994,1.1672 -0.8653,1.6717 -0.066,0.5046 -0.1732,1.3678 -0.2386,1.9182 -0.066,0.5504 -0.5409,1.0032 -1.0563,1.0062 -0.5154,0 -0.7107,-1.4583 -0.434,-3.2475 1.2751,-8.2442 -7.2615,-28.9138 -18.5271,-44.8598 -2.9866,-4.2273 -5.4313,-7.88 -5.4327,-8.1169 -10e-4,-0.237 -3.3206,-5.2945 -7.3761,-11.2389 -8.0122,-11.7444 -16.851,-27.3323 -16.8651,-29.7431 -0.02,-3.3601 -3.2746,-1.0283 -6.9298,4.9646 -2.2262,3.6498 -1.9205,5.5234 1.4437,8.8483 2.1523,2.1273 19.1805,27.5899 21.4973,32.1455 1.8394,3.6173 4.2624,11.0252 7.338,22.4351 1.1545,4.283 1.1573,20.8032 0,27.1904 -0.523,2.8955 -2.6985,6.1746 -3.5428,5.3402 -0.2766,-0.2734 0.062,-1.1863 0.753,-2.0287 0.9931,-1.2111 0.9955,-1.53 0.011,-1.5242 -0.9932,0.01 -0.995,-0.2975 -0.01,-1.5 0.6798,-0.829 0.7998,-1.5047 0.2665,-1.5016 -0.5331,0 -1.2817,-5.0551 -1.6632,-11.2404 -0.7136,-11.5592 -4.2528,-26.7071 -7.873,-33.6936 -1.7667,-3.4094 -17.7032,-27.1607 -21.2273,-31.6365 -0.9699,-1.2319 -2.1769,-2.2372 -2.6821,-2.2343 -1.5397,0.01 -5.2199,9.7628 -6.9401,18.3928 -2.1189,10.63 -1.9203,33.341 0.3773,43.1468 0.9008,3.8449 2.3287,9.9115 3.1731,13.4817 2.5695,10.8643 3.1766,28.0982 1.3674,38.8253 -1.4187,8.4124 -1.4223,9.8473 -0.035,14.4205 1.6424,5.4139 1.4435,7.2576 -0.414,3.8354 -1.6716,-3.0797 -2.6591,-2.5657 -4.6825,2.4382 -3.6387,8.9977 -6.1718,4.0232 -3.8061,-7.4741 1.5304,-7.4377 1.5192,-7.5995 -1.1869,-16.9933 -4.4836,-15.564 -5.6639,-23.7854 -4.5414,-31.6334 0.5404,-3.7792 0.6683,-11.9176 0.2853,-18.1661 -0.6428,-10.4938 -1.1055,-12.4171 -6.3367,-26.3561 -3.1038,-8.2699 -6.5533,-19.1292 -7.6655,-24.1317 -2.608,-11.7296 -3.9373,-42.4553 -2.1234,-49.0834 1.0197,-3.7267 0.9704,-5.0741 -0.3013,-8.229 -0.8364,-2.0749 -2.1143,-7.1441 -2.8396,-11.2649 -0.7253,-4.1209 -1.5967,-7.8128 -1.9365,-8.2044 -0.5977,-0.6889 -8.9067,13.9028 -15.5813,27.3625 -2.6088,5.2609 -3.3774,8.2617 -3.8476,15.0228 -1.0114,14.5442 2.8287,36.5968 8.4669,48.6229 7.5515,16.1074 12.4209,35.3278 13.7297,54.1936 0.9748,14.0526 0.1496,22.3963 -2.3092,23.3565 -1.0221,0.3992 -1.4798,-2.0954 -2.0464,-11.1562 -1.7426,-27.8644 -4.0387,-40.3581 -9.966,-54.229 -8.1205,-19.0038 -11.4512,-31.9334 -12.7284,-49.4113 -1.0018,-13.7088 0.9705,-23.6228 6.8401,-34.3831 2.3924,-4.3856 7.0286,-13.2036 10.303,-19.5953 5.9283,-11.5728 5.9486,-11.6425 4.8515,-16.6157 -1.0682,-4.8419 -0.7917,-16.7933 0.5541,-23.9426 0.6274,-3.3328 3.831,-8.0227 5.4869,-8.0324 0.4255,0 0.2918,1.4609 -0.2968,3.2518 z m 6.0818,94.1586 c 0.8595,15.9663 3.8016,30.7545 8.7541,44.0066 l 3.7288,9.9782 0.7597,-5.5044 c 1.573,-11.3988 4.8962,-25.7135 7.1551,-30.8223 1.2874,-2.9114 2.3393,-5.5419 2.3376,-5.8456 0,-0.5959 -4.4766,-6.1936 -12.7965,-16.0138 -2.8811,-3.4007 -5.995,-7.6252 -6.9196,-9.3878 -2.8987,-5.5256 -3.8242,-1.3599 -3.0192,13.5891 z m 16.4286,103.9625 c 0.036,4.3999 0.8667,11.1452 1.8545,14.9894 l 1.7962,6.9895 0.8073,-4.0047 c 0.8165,-4.0496 -0.8275,-24.2485 -2.2718,-27.9141 -0.7479,-1.8982 -0.7668,-1.898 -1.501,0.01 -0.4089,1.0622 -0.7172,5.5313 -0.6852,9.9311 z m 67.195,7.2548 c 3.1122,1.7177 4.0351,4.704 2.2885,7.4042 -0.8687,1.3431 -2.009,2.4447 -2.5336,2.4478 -1.1049,0.01 -3.5422,-3.5658 -4.4266,-6.4882 -0.774,-2.5576 2.2228,-4.7154 4.6717,-3.3638 z m -25.8236,6.2248 c 2.1607,3.0465 1.981,5.3775 -0.5528,7.1745 -1.9566,1.3877 -2.3867,1.33 -4.9487,-0.6642 -3.4208,-2.6626 -3.6631,-5.0544 -0.7231,-7.1395 2.9966,-2.1253 4.3695,-1.9865 6.2246,0.6292 z m -71.8276,17.8547 c 2.9467,2.9124 1.472,7.3368 -2.4533,7.3599 -3.3287,0.02 -5.3001,-2.0437 -4.8723,-5.0991 0.4093,-2.9224 5.1695,-4.3916 7.3256,-2.2608 z m 30.5996,24.2935 c 0.022,0.8949 -0.6303,2.1914 -1.4513,2.881 -1.9131,1.6069 -1.943,-0.021 -0.047,-2.5587 1.2237,-1.638 1.4634,-1.6896 1.4981,-0.3223 z m 22.0169,4.195 c 2.1121,2.5147 0.8606,5.0134 -2.6936,5.3778 -3.7355,0.3831 -5.0244,-1.4567 -3.3045,-4.7164 1.2759,-2.4182 4.2474,-2.7458 5.9981,-0.6614 z m -30.2697,12.2672 c 2.1968,3.31 0.6146,7.4555 -2.8535,7.4759 -3.0398,0.018 -4.7318,-1.7531 -4.7508,-4.9722 -0.031,-5.2135 4.7593,-6.7906 7.6043,-2.5037 z"
         style="fill:#ffffff" />
    </g>
  </g>
</svg>
