<?xml version="1.0" encoding="UTF-8" standalone="no"?>
<!-- Created with Inkscape (http://www.inkscape.org/) -->

<svg
   xmlns:dc="http://purl.org/dc/elements/1.1/"
   xmlns:cc="http://creativecommons.org/ns#"
   xmlns:rdf="http://www.w3.org/1999/02/22-rdf-syntax-ns#"
   xmlns:svg="http://www.w3.org/2000/svg"
   xmlns="http://www.w3.org/2000/svg"
   xmlns:sodipodi="http://sodipodi.sourceforge.net/DTD/sodipodi-0.dtd"
   xmlns:inkscape="http://www.inkscape.org/namespaces/inkscape"
   width="198.90007"
   height="284.67554"
   id="svg3909"
   version="1.1"
   inkscape:version="0.48.5 r10040"
   sodipodi:docname="martini.svg">
  <defs
     id="defs3911" />
  <sodipodi:namedview
     id="base"
     pagecolor="#ffffff"
     bordercolor="#666666"
     borderopacity="1.0"
     inkscape:pageopacity="0.0"
     inkscape:pageshadow="2"
     inkscape:zoom="0.98994949"
     inkscape:cx="153.45872"
     inkscape:cy="237.89103"
     inkscape:document-units="px"
     inkscape:current-layer="layer1"
     showgrid="false"
     fit-margin-top="0"
     fit-margin-left="0"
     fit-margin-right="0"
     fit-margin-bottom="0"
     inkscape:window-width="1920"
     inkscape:window-height="1137"
     inkscape:window-x="1600"
     inkscape:window-y="27"
     inkscape:window-maximized="1" />
  <metadata
     id="metadata3914">
    <rdf:RDF>
      <cc:Work
         rdf:about="">
        <dc:format>image/svg+xml</dc:format>
        <dc:type
           rdf:resource="http://purl.org/dc/dcmitype/StillImage" />
        <dc:title />
      </cc:Work>
    </rdf:RDF>
  </metadata>
  <g
     inkscape:label="Layer 1"
     inkscape:groupmode="layer"
     id="layer1"
     transform="translate(-280.11626,-392.80263)">
    <path
       sodipodi:nodetypes="ssssscssscscsssccssssssccssscscssccccsscsssssssssscscssssssscsssssscccssccscccssccsccccssccssscsssccs"
       inkscape:connector-curvature="0"
       id="path3892"
       d="m 281.70779,430.50493 c 0.70459,-0.14642 4.66415,-0.18937 8.79896,-0.0962 6.59568,0.14919 24.51644,-2.3186 66.67441,-9.18145 6.17346,-1.00496 19.81834,-2.94854 30.32194,-4.31905 l 19.09747,-2.49184 7.19965,-7.93412 c 6.85274,-7.55189 13.92882,-13.82123 15.43726,-13.67721 0.38385,0.0366 -0.23279,1.2209 -1.37032,2.63167 -1.13753,1.41078 -3.10813,4.27045 -4.37918,6.35482 -1.27096,2.08438 -3.56504,5.41144 -5.09785,7.39345 -1.53282,1.98202 -2.65581,3.76244 -2.49552,3.95649 0.16018,0.19406 2.80222,-0.0488 5.87107,-0.53973 3.06885,-0.49091 6.95252,-0.92968 8.63034,-0.97504 5.15487,-0.13935 30.19905,-3.77278 36.25969,-5.26054 7.47318,-1.83455 9.22925,-1.54963 11.22729,1.82169 1.54927,2.61397 1.53618,2.95629 -0.20003,5.22321 -1.02183,1.33425 -3.23134,4.47826 -4.90993,6.98667 -1.67861,2.50843 -8.06255,10.71384 -14.1866,18.23425 -11.56606,14.20347 -25.01986,32.73995 -28.89912,39.81698 -6.18012,11.27458 -13.26405,22.04447 -20.94475,31.84275 -9.53422,12.16293 -9.28041,11.08275 -5.76602,24.54139 1.24009,4.74885 3.36866,16.47925 4.73006,26.06754 4.03573,28.42211 7.21768,48.09751 9.39709,58.10655 1.12644,5.17317 2.35824,11.35663 2.73725,13.74095 1.65147,6.63539 2.561,3.51903 6.3678,2.16459 0.54494,-0.0587 5.05827,-1.34445 10.02966,-2.85732 10.17793,-3.0972 19.69613,-4.17909 24.39972,-2.7733 4.92979,1.47339 8.48231,5.88048 8.20065,10.17324 -0.21723,3.31707 -0.71661,3.87071 -6.05903,6.72359 -3.20201,1.70991 -10.52653,5.03876 -16.27676,7.39764 -5.7502,2.35878 -13.52206,5.63828 -17.27081,7.28787 -12.26043,5.39488 -34.02034,12.75303 -44.18398,14.94088 -10.20958,2.19773 -17.37956,2.23064 -20.59361,0.0946 -2.57812,-1.71349 -4.26451,-6.48667 -3.11773,-8.82446 1.83344,-3.73786 8.69393,-8.81503 19.4556,-14.39852 8.41693,-4.36692 11.40816,-4.21433 14.82539,-5.66389 6.39301,-1.85595 5.8281,-6.48922 4.84456,-9.51729 -3.43352,-10.41678 -5.61198,-20.86822 -9.46771,-45.42335 -3.98818,-25.39861 -7.77583,-42.34399 -12.24993,-54.8035 -1.74344,-4.85538 -3.13347,-9.21 -3.0889,-9.67688 0.23955,-2.50899 -12.02712,-14.29196 -31.74557,-30.49363 -11.46946,-9.42402 -19.36002,-16.78154 -34.12992,-31.82427 -19.69422,-20.05817 -22.09207,-22.41724 -25.97569,-25.55646 -3.11519,-2.51802 -3.8719,-3.77343 -3.65348,-6.06118 0.1515,-1.58696 0.85197,-3.00519 1.55658,-3.15162 z m 24.87103,21.28303 c 9.07108,9.11815 12.37362,11.85808 13.72961,11.3904 0.98193,-0.33868 6.31461,-0.70743 11.85032,-0.81943 9.18493,-0.18583 20.30566,-1.10945 39.49047,-3.27982 l 7.1086,-0.80419 0.67694,-5.65103 c 0.5751,-4.80104 1.10934,-5.95662 3.55195,-7.68274 1.58136,-1.11743 3.65645,-1.95711 4.61151,-1.86592 2.17401,0.20755 4.30572,-1.49436 4.50656,-3.59801 0.0842,-0.8815 2.02472,-4.6356 4.31238,-8.34246 2.28766,-3.70684 4.19,-7.0606 4.22745,-7.45278 0.15558,-1.62962 -28.62931,2.12034 -67.13512,8.74608 -13.35301,2.29766 -31.77903,5.13341 -36.44809,5.60932 -1.25534,0.12791 -2.31492,0.57279 -2.35461,0.98852 -0.0397,0.41572 5.30269,6.15865 11.87203,12.76206 z m 26.13696,26.29058 c 3.02007,2.80824 7.37809,6.64771 9.68444,8.53213 2.30634,1.88443 8.16988,6.75614 13.03008,10.82598 25.64727,21.47643 27.36137,23.13002 27.86922,26.8868 0.38263,2.83047 3.15426,12.95171 6.79361,24.80796 2.70738,8.82023 6.67212,29.97138 10.0009,53.35299 2.44811,17.19563 7.86862,39.46018 9.63424,39.57259 0.38609,0.0248 1.90424,-0.71054 3.37363,-1.63366 2.63589,-1.65578 2.65299,-1.72437 1.27748,-5.12951 -2.79331,-6.91528 -8.546,-35.10716 -12.48985,-61.20873 -5.59678,-37.04079 -8.19147,-48.05464 -11.39271,-48.36026 -1.24415,-0.11879 -2.26752,-3.07292 -2.03381,-5.87108 0.0502,-0.63128 1.63395,-1.87038 3.51394,-2.754 4.93783,-2.32101 16.91531,-18.82307 29.84781,-41.12271 4.66105,-8.0371 14.287,-22.05945 19.09172,-27.81141 4.02461,-4.8179 4.99841,-6.0795 7.92155,-10.26197 1.16896,-1.67271 5.41361,-7.06977 9.43255,-11.99343 7.34874,-9.00329 9.00488,-12.14138 5.96065,-11.29488 -2.36511,0.65768 -13.24856,2.05489 -29.93789,3.84339 -19.34753,2.07337 -23.6814,2.86407 -25.03104,4.56684 -0.61789,0.77962 -3.19256,5.28836 -5.72154,10.01942 -4.65995,8.71788 -5.94796,13.33256 -4.11008,14.72611 0.95041,0.72064 0.46481,3.14812 -1.36597,6.82858 -1.22463,2.46198 5.14935,1.55789 17.41499,-2.47014 2.32294,-0.97456 19.62912,-6.35083 19.89184,-6.14474 -5.12549,2.93293 -16.17268,9.53243 -21.88161,11.13381 -1.9656,0.5356 -6.74547,1.84601 -10.62203,2.91198 -11.09488,3.05087 -30.89522,5.80143 -60.74474,8.43831 -18.82456,1.66295 -18.12217,1.52599 -16.32795,3.18331 0.78623,0.72621 3.90049,3.61808 6.92057,6.42632 z m 54.74382,-21.62165 c 0.74917,0.9735 4.279,-2.62241 4.46268,-4.54624 0.11901,-1.24663 -1.97657,-2.58403 -4.41349,-2.81668 -1.15823,-0.11058 -1.40773,0.59409 -1.1181,3.15802 0.20502,1.81521 0.68605,3.70742 1.06891,4.2049 z m -14.58953,213.89618 c 5.06527,-0.32145 17.85716,-3.10431 24.89983,-5.41694 7.39039,-2.4268 45.75196,-17.42491 53.14834,-20.77923 12.36429,-5.60739 12.1767,-9.68948 4.32889,-8.20704 -27.61003,10.19451 -62.59284,15.60807 -83.27929,31.15969 -3.79319,2.8969 -3.61699,3.53032 0.90223,3.24352 z"
       style="fill:#ffffff" />
  </g>
</svg>
