<?xml version="1.0" encoding="UTF-8" standalone="no"?>
<!-- Created with Inkscape (http://www.inkscape.org/) -->

<svg
   xmlns:dc="http://purl.org/dc/elements/1.1/"
   xmlns:cc="http://creativecommons.org/ns#"
   xmlns:rdf="http://www.w3.org/1999/02/22-rdf-syntax-ns#"
   xmlns:svg="http://www.w3.org/2000/svg"
   xmlns="http://www.w3.org/2000/svg"
   xmlns:sodipodi="http://sodipodi.sourceforge.net/DTD/sodipodi-0.dtd"
   xmlns:inkscape="http://www.inkscape.org/namespaces/inkscape"
   width="413.77747"
   height="360.09409"
   id="svg3954"
   version="1.1"
   inkscape:version="0.48.5 r10040"
   sodipodi:docname="monster.svg">
  <defs
     id="defs3956" />
  <sodipodi:namedview
     id="base"
     pagecolor="#ffffff"
     bordercolor="#666666"
     borderopacity="1.0"
     inkscape:pageopacity="0.0"
     inkscape:pageshadow="2"
     inkscape:zoom="0.98994949"
     inkscape:cx="-116.33713"
     inkscape:cy="266.77975"
     inkscape:document-units="px"
     inkscape:current-layer="layer1"
     showgrid="false"
     fit-margin-top="0"
     fit-margin-left="0"
     fit-margin-right="0"
     fit-margin-bottom="0"
     inkscape:window-width="1600"
     inkscape:window-height="837"
     inkscape:window-x="0"
     inkscape:window-y="27"
     inkscape:window-maximized="1"
     inkscape:snap-global="false" />
  <metadata
     id="metadata3959">
    <rdf:RDF>
      <cc:Work
         rdf:about="">
        <dc:format>image/svg+xml</dc:format>
        <dc:type
           rdf:resource="http://purl.org/dc/dcmitype/StillImage" />
        <dc:title />
      </cc:Work>
    </rdf:RDF>
  </metadata>
  <g
     inkscape:label="Layer 1"
     inkscape:groupmode="layer"
     id="layer1"
     transform="translate(-168.20689,-352.21195)">
    <path
       style="fill:#ffffff"
       d="m 169.41986,698.3419 c 0.94224,-0.76627 2.25979,-1.04074 3.3185,-0.69126 4.65137,1.53532 47.28568,1.96873 54.58277,0.55488 0.74995,-0.14531 1.12985,-1.28785 0.87151,-2.62117 -0.44541,-2.29883 1.07632,-30.99709 3.25199,-61.33086 0.94412,-13.16178 2.21756,-22.4101 4.77288,-34.66197 3.75448,-18.00124 12.89092,-46.3711 20.53792,-63.77271 1.97049,-4.48426 4.05581,-9.26061 4.63391,-10.61407 1.29376,-3.02898 5.26817,-11.162 5.84927,-11.96953 0.23416,-0.32548 3.56276,-6.01248 7.39681,-12.63776 21.85593,-37.76716 41.1422,-60.42738 69.54233,-81.70816 23.228,-17.40524 40.51077,-24.32507 64.00217,-25.62577 8.14916,-0.45121 8.33529,-0.51095 9.60746,-3.08355 0.71347,-1.44288 1.63586,-3.24265 2.04956,-3.99944 0.41379,-0.75682 0.69924,-1.65031 0.63429,-1.98553 -0.23438,-1.20964 8.78434,-17.09478 14.10854,-24.85009 4.52107,-6.58547 5.70693,-7.75144 6.99748,-6.87985 2.3853,1.61101 1.23281,5.68134 -4.42774,15.63775 -2.73075,4.80295 -4.48564,8.79544 -3.89994,8.87223 0.5857,0.0768 3.46986,-2.30782 6.40932,-5.29917 7.20074,-7.32803 8.22089,-8.26841 12.34238,-11.37779 3.77863,-2.8507 6.87465,-3.94741 7.14882,-2.53236 0.32816,1.69367 -5.03826,9.04554 -12.87893,17.64398 -4.38949,4.81368 -9.79144,11.13206 -12.00444,14.04085 l -4.02356,5.28869 5.40077,1.81924 c 21.72738,7.31885 36.16802,18.55995 52.92337,41.19771 14.47064,19.55079 24.30776,45.7475 29.23719,77.86013 3.1935,20.80334 6.37089,49.60267 6.76698,61.33262 0.99326,29.41994 1.04973,26.79944 -1.744,80.80714 -0.87828,16.97704 -1.47968,32.91279 -1.33652,35.41279 l 0.26019,4.54547 4.61921,0.95456 c 2.54055,0.525 5.57162,1.13862 6.73567,1.3636 3.38579,0.65438 22.9631,2.61403 35.23937,3.52734 6.20997,0.46202 11.69901,0.99468 12.19787,1.18367 1.97666,0.74898 1.89607,7.15045 -0.0952,7.56253 -23.15957,-5.04556 -59.24686,-5.93897 -68.91172,-7.91935 -108.90265,-2.68769 -307.21858,11.94324 -340.41173,0.0741 -3.01554,-1.2348 -3.88278,-4.34755 -1.70475,-6.11886 z m 334.02713,-1.75806 c 0.91649,0.28205 3.5096,0.46853 5.76244,0.41442 l 4.09607,-0.0984 0.24846,-10.54878 c 0.13668,-5.80183 0.43089,-11.73005 0.65373,-13.1738 1.0444,-6.76523 3.56512,-61.05743 3.50796,-75.55502 -0.16548,-41.95301 -7.84375,-99.39513 -16.09093,-120.37888 -4.86578,-12.38014 -6.36169,-15.73626 -10.01301,-22.46509 -5.40749,-9.96513 -13.45828,-21.18062 -19.05838,-26.54995 -1.89575,-1.8176 -3.55318,-3.78831 -3.68328,-4.37933 -0.1298,-0.59108 -1.84861,-2.13734 -3.81906,-3.43624 -1.97046,-1.2989 -4.37214,-3.35459 -5.33701,-4.56821 -3.27258,-4.11595 -16.4821,-11.17011 -25.98001,-13.8738 l -5.92619,-1.68697 -2.93198,3.29071 c -1.61257,1.80989 -3.99737,3.49714 -5.29965,3.74946 -3.44954,0.66837 -6.62782,-2.0698 -6.60609,-5.69121 0.0171,-2.85393 -0.1412,-2.94673 -4.60693,-2.70011 -8.34964,0.4611 -24.72278,4.1195 -31.2401,6.98029 -23.34691,10.24805 -50.60823,32.64237 -70.48049,57.89756 -11.91432,15.14157 -31.59617,47.11215 -38.11131,61.90673 -1.88813,4.28744 -4.45686,10.05639 -5.70844,12.81992 -3.85984,8.52296 -10.12597,26.32656 -14.07083,39.9791 -5.31748,18.40307 -8.70618,38.30421 -10.01138,58.79497 -3.21608,50.49259 -3.15019,48.30449 -1.65998,55.11192 l 1.21487,5.54988 c 91.29078,10.14092 163.71486,-5.53721 265.15152,-1.38917 z M 282.54217,567.61434 c 2.6e-4,-1.23409 0.79259,-2.67523 1.76086,-3.20257 0.96817,-0.52732 2.45297,-2.55557 3.29939,-4.50718 0.84642,-1.9516 5.46607,-9.16432 10.26576,-16.02823 6.90855,-9.87964 9.20779,-12.48104 11.03529,-12.48561 1.80937,-0.005 2.33991,-0.58255 2.45403,-2.67364 0.10448,-1.91427 0.79058,-2.79285 2.42911,-3.11032 3.40723,-0.66018 6.06125,1.92351 8.34308,8.12195 3.00596,8.16577 7.99004,14.12279 15.93266,19.04291 10.19193,6.31345 37.02473,16.96951 40.88908,16.23818 0.76574,-0.14531 2.76727,0.1459 4.44783,0.64625 5.14113,1.53065 16.79717,2.33248 23.52073,1.61803 23.89562,-1.88523 55.10423,-11.26556 64.33606,-25.58425 0.79923,-1.82927 2.8789,-0.18645 3.44181,2.71881 0.72329,3.73299 -0.008,7.59924 -1.99204,10.53747 -1.36324,2.01847 -1.37126,3.65201 -0.0514,10.49126 1.17384,6.05833 1.32012,10.81183 0.59839,18.85965 -0.53067,5.9175 -0.51836,13.06339 0.0273,15.87975 0.74431,3.84145 0.59522,5.64955 -0.59692,7.23784 -2.02868,2.70303 -3.75626,2.35797 -8.13916,-1.62577 -1.94179,-1.76495 -5.48499,-4.66378 -7.87383,-6.44184 -4.22281,-3.1433 -12.43505,-9.92492 -17.37641,-14.34954 -1.341,-1.20077 -3.92061,-3.27109 -5.73241,-4.60073 -1.81181,-1.32964 -3.69357,-3.14229 -4.18158,-4.02813 -1.41183,-2.56256 -2.75262,-1.55379 -3.64706,2.74384 -2.43497,11.70015 -4.00575,24.33559 -3.36655,27.08149 0.66659,2.86366 -1.33604,6.67945 -3.75103,7.14737 -1.20273,0.23303 -6.00808,-3.26193 -8.01762,-5.83137 -1.0463,-1.3379 -2.22338,-2.37035 -2.61559,-2.29436 -0.94718,0.18352 -19.6032,-16.92721 -23.60288,-21.64784 -1.72971,-2.04151 -3.83511,-3.58164 -4.67875,-3.4225 -0.84348,0.15936 -3.51803,2.91556 -5.94334,6.12542 -2.42521,3.20983 -6.25279,8.15153 -8.50561,10.98152 -2.25281,2.82999 -4.46059,6.51642 -4.90619,8.19208 -0.88758,3.33784 -2.03909,3.88362 -6.12127,2.90133 -1.85166,-0.44554 -3.11221,-1.68327 -4.00046,-3.92767 -1.93106,-4.87966 -4.47298,-17.87526 -5.75482,-29.42267 l -1.13471,-10.22078 -9.65777,1.83347 c -14.29209,2.71316 -33.78862,4.86882 -40.01008,4.42373 -4.84375,-0.34652 -11.21429,-2.96521 -11.14813,-4.58253 0.0134,-0.32512 0.0244,-1.60077 0.0245,-2.83483 z m 19.40325,-0.008 c 3.85393,-0.0806 13.18502,-1.51413 21.34278,-3.27885 l 14.49504,-3.13561 -6.40209,-4.36184 c -7.1654,-4.88193 -10.5267,-8.48687 -13.76018,-14.75777 l -2.1994,-4.26527 -3.45869,2.80655 c -3.89183,3.15807 -17.53273,23.69104 -17.12768,25.78156 0.17536,0.90503 2.53469,1.30695 7.11022,1.21123 z m 54.49043,30.91695 c 0.82739,0.55876 15.36963,-17.76474 16.18141,-20.3888 0.68437,-2.21233 -1.26483,-4.6028 -3.41367,-4.18645 -0.63784,0.12358 -4.8696,-1.30688 -9.40387,-3.17884 l -8.24424,-3.40351 1.09515,11.66423 c 1.05733,11.26138 2.48528,18.61541 3.78709,19.493 z m 46.39617,-3.1072 c 10.553,9.56594 12.3104,10.51335 12.96275,6.98814 0.24719,-1.33595 1.51188,-7.13246 2.81048,-12.88114 2.71634,-12.02589 2.52544,-12.35194 -6.25655,-10.6799 -2.97167,0.56559 -9.73516,0.72332 -15.03003,0.35008 -5.29488,-0.37325 -9.84354,-0.63668 -10.10831,-0.58538 -1.13225,0.21938 7.13927,9.11912 15.62166,16.8082 z m 41.92989,-11.31107 c 12.02778,9.9016 20.64305,16.41766 20.95403,15.84832 0.97992,-1.79411 1.14708,-23.8681 0.22017,-29.06887 -1.25591,-7.046 -2.835,-9.16442 -4.92805,-6.61119 -0.69889,0.85253 -1.31857,1.30324 -1.37703,1.00154 -0.0584,-0.30169 -3.06134,0.92188 -6.67312,2.71905 -3.61179,1.79717 -9.13424,4.04921 -12.27212,5.00451 -3.13787,0.95531 -5.63694,2.08961 -5.55342,2.52067 0.0835,0.43105 4.41679,4.29474 9.62954,8.58597 z M 368.18686,475.62677 c 1.81003,-5.99372 5.34688,-12.3313 8.13879,-14.58375 14.58231,-9.12162 52.15782,-11.12953 60.7084,2.81606 4.25504,7.60409 2.99899,22.78336 -2.66564,32.21352 -5.45736,9.08526 -17.72559,16.4303 -29.41085,17.60837 -8.76015,0.88317 -19.24823,-1.88305 -25.07493,-6.61346 -8.78905,-7.13532 -14.44458,-22.33869 -11.69577,-31.44074 z m 11.36692,19.41173 c 4.75839,8.1412 10.2009,10.94817 20.83619,10.74637 5.99706,-0.11378 7.55047,-0.52146 13.8458,-3.63375 7.93292,-3.92188 14.92296,-10.71977 16.45444,-16.00204 1.4287,-4.92793 2.94155,-12.51785 1.35194,-15.89297 -6.78088,-14.39741 -32.54505,-9.95935 -43.5736,-6.57301 -3.82563,1.17467 -9.43408,6.9902 -11.45819,11.86374 -2.45617,5.91411 -1.61227,12.38189 2.54342,19.49166 z m 14.40398,-17.68439 c 2.24958,-3.06907 3.15842,-3.593 6.45385,-3.7204 5.00781,-0.19358 7.69872,0.90926 9.73507,3.98975 3.46064,5.23531 -0.53924,11.99938 -8.14367,13.77158 -8.06581,1.87972 -13.17675,-7.04009 -8.04525,-14.04093 z"
       id="path3882"
       inkscape:connector-curvature="0"
       sodipodi:nodetypes="ccsssscscsssccssccccsssscsssssccsssccccccccscsssscscscssssssssssscccscssssssscccssscsscscsscssscssccssccccssccscscsccsscscsscscsscccssssccsssssscccssscsssssscssscss" />
  </g>
</svg>
