<?xml version="1.0" encoding="UTF-8" standalone="no"?>
<!-- Created with Inkscape (http://www.inkscape.org/) -->

<svg
   xmlns:dc="http://purl.org/dc/elements/1.1/"
   xmlns:cc="http://creativecommons.org/ns#"
   xmlns:rdf="http://www.w3.org/1999/02/22-rdf-syntax-ns#"
   xmlns:svg="http://www.w3.org/2000/svg"
   xmlns="http://www.w3.org/2000/svg"
   xmlns:sodipodi="http://sodipodi.sourceforge.net/DTD/sodipodi-0.dtd"
   xmlns:inkscape="http://www.inkscape.org/namespaces/inkscape"
   width="879.65082"
   height="494.48093"
   id="svg4089"
   version="1.1"
   inkscape:version="0.48.5 r10040"
   sodipodi:docname="snowflakes.svg">
  <defs
     id="defs4091" />
  <sodipodi:namedview
     id="base"
     pagecolor="#ffffff"
     bordercolor="#666666"
     borderopacity="1.0"
     inkscape:pageopacity="0.0"
     inkscape:pageshadow="2"
     inkscape:zoom="0.98994949"
     inkscape:cx="538.62999"
     inkscape:cy="198.41687"
     inkscape:document-units="px"
     inkscape:current-layer="layer1"
     showgrid="false"
     fit-margin-top="0"
     fit-margin-left="0"
     fit-margin-right="0"
     fit-margin-bottom="0"
     inkscape:window-width="1600"
     inkscape:window-height="837"
     inkscape:window-x="0"
     inkscape:window-y="27"
     inkscape:window-maximized="1" />
  <metadata
     id="metadata4094">
    <rdf:RDF>
      <cc:Work
         rdf:about="">
        <dc:format>image/svg+xml</dc:format>
        <dc:type
           rdf:resource="http://purl.org/dc/dcmitype/StillImage" />
        <dc:title />
      </cc:Work>
    </rdf:RDF>
  </metadata>
  <g
     inkscape:label="Layer 1"
     inkscape:groupmode="layer"
     id="layer1"
     transform="translate(50.825418,-285.12172)">
    <path
       style="fill:#ffffff"
       d="m -49.360218,670.74549 c 0.809,-0.67137 1.3715,-2.16124 1.25,-3.31084 -0.5756,-5.44941 14.3237,-6.3463 24.1145,-1.4516 3.405,1.70225 5.0479,5.57267 4.0027,9.42967 -2.2163,8.17857 -20.4655,13.82541 -26.4651,8.18908 -2.1093,-1.98153 -4.3518,-7.37731 -4.3673,-10.5081 0,-0.62015 0.6563,-1.67685 1.4652,-2.34821 z m 8.4426,7.86988 c 1.9094,3.01541 15.0866,-1.6412 15.0866,-5.33136 0,-1.29562 -4.9606,-2.53058 -10.25,-2.55174 -2.0354,-0.008 -2.75,0.4809 -2.75,1.882 0,1.04116 -0.675,2.15203 -1.5,2.46862 -1.7067,0.65493 -1.8525,1.53321 -0.5866,3.53248 z m 3.7929,-105.41721 c 3.7886,-4.88328 10.0177,-4.59906 15.3156,0.69883 5.79716,5.7972 6.08336,10.43307 0.948,15.35317 -2.4804,2.37632 -3.437,2.67179 -7.0717,2.18427 -6.3277,-0.84872 -9.1773,-4.22947 -9.6249,-11.41888 -0.1984,-3.18686 0,-6.25468 0.433,-6.81739 z m 8.8609,10.18727 c 0.862,0.33077 2.0894,0.0793 2.7276,-0.55891 1.4314,-1.43146 -0.1895,-4.44395 -2.652,-4.92858 -2.194,-0.43182 -2.264,4.64771 -0.076,5.48749 z m 21.4328,79.72419 c 1.65,0.19211 3,-0.0417 3,-0.51953 0,-0.47786 1.2375,-0.8737 2.75,-0.87965 3.0908,-0.0122 5.6945,-0.79427 26.24996,-7.88501 13.3192,-4.59452 14.6833,-4.88198 16.75,-3.52995 2.255,1.47512 2.8601,3.94244 1.4847,6.05331 -0.4041,0.62015 -2.7597,1.45495 -5.2347,1.85512 -2.475,0.40016 -9.9,2.50899 -16.5,4.68627 -14.35546,4.73578 -23.61176,5.85884 -28.30136,3.43379 -4.0257,-2.08177 -4.1239,-3.67139 -0.1986,-3.21435 z m -3.54004,-73.38836 c 1.3184002,0 3.0128002,0.61563 3.7652002,1.36807 0.7525,0.75244 2.4721,1.70467 3.8215,2.11606 1.3493,0.4114 3.9158,1.84367 5.7033,3.18283 1.7875,1.33915 3.25,2.19467 3.25,1.90115 0,-0.29352 4.8374998,2.52805 10.7499998,6.27016 5.9125,3.7421 13.45,7.812 16.75,9.04422 8.8723,3.31292 10.9492,4.4957 11.3255,6.44992 0.4503,2.33829 -1.5822,4.66759 -4.0729,4.66759 -3.4818,0 -13.9017,-5.12122 -24.2526,-11.91973 -5.5,-3.61243 -10.4499998,-6.79757 -10.9999998,-7.0781 -0.55,-0.28052 -3.7,-2.26724 -7,-4.41492 -9.8118002,-6.38569 -13.8699002,-11.58725 -9.0400002,-11.58725 z m 19.9719002,170.5145 c 2.7874998,-4.97911 7.3188998,-6.37717 14.9560998,-4.6143 7.0983,1.63847 10.612,5.21014 10.612,10.78689 0,9.04239 -12.4046,16.24249 -20.4856,11.8906 -6.3708998,-3.43096 -8.6798998,-11.63728 -5.0824998,-18.06319 z m 9.1498998,11.87851 c 2.881,1.10555 4.4875,0.63533 6.966,-2.03903 3.3561,-3.62128 3.1352,-5.92023 -0.697,-7.25615 -4.7844,-1.66786 -6.6601,-1.3654 -7.145,1.15217 -0.9494,4.92908 -0.6674,7.55076 0.876,8.14301 z m 16.3896,-33.9644 c 0.5343,-0.53426 1.1417,-1.86176 1.3498,-2.95 0.2081,-1.08823 0.6074,-2.65361 0.8874,-3.47861 0.2799,-0.825 1.0523,-3.3 1.7163,-5.5 0.664,-2.2 1.5951,-4.9 2.0691,-6 1.0231,-2.37423 4.2554,-12.79047 6.3615,-20.5 2.1816,-7.98585 4.9685,-24.00932 4.2933,-24.68451 -0.3181,-0.31815 -0.1284,-1.41929 0.4216,-2.44697 1.4473,-2.70438 6.4952,-2.47316 8.3284,0.38148 1.3034,2.02952 1.0687,3.67086 -2.3951,16.75 -8.8841,33.54675 -16.9069,51.87376 -22.7537,51.97776 -1.4833,0.0264 -1.6559,-2.17186 -0.2786,-3.54915 z m 26.0744,-105.33315 c 1.5883,-2.19258 4.2528,-4.99565 5.921,-6.22904 1.6683,-1.2334 3.0332,-3.04934 3.0332,-4.03543 0,-2.47262 4.2827,-3.36249 9.1559,-1.90245 5.4327,1.6277 13.3349,9.44023 14.7387,14.57146 1.8666,6.82315 1.4145,11.30905 -1.4029,13.92011 -3.4173,3.16712 -10.3206,4.93544 -16.7097,4.28034 -14.3562,-1.47199 -21.4305,-11.36372 -14.7362,-20.60499 z m 8.8521,12.62262 c 5.6367,3.78541 16.2189,2.63993 17.6637,-1.91201 0.9733,-3.06682 -0.5902,-9.72984 -2.9092,-12.3976 -1.2601,-1.44952 -3.7073,-2.72357 -5.903,-3.07318 -3.4536,-0.54988 -4.1124,-0.23545 -8.3181,3.97028 -3.8493,3.84929 -4.5174,5.08344 -4.2494,7.84902 0.2354,2.42801 1.2019,3.87511 3.716,5.56349 z m -7.8178,-136.96808 c 0.6537,-1.12228 2.2358,-1.75 4.4106,-1.75 1.8652,0 3.6694,-0.45 4.0093,-1 1.1497,-1.86014 5.2126,-1.01467 7.8637,1.63636 4.0499,4.04997 3.4767,11.92779 -1.0856,14.91707 -5.6797,3.72148 -13.385,0.91648 -15.2552,-5.55343 -1.2548,-4.34105 -1.2432,-6.01728 0.057,-8.25 z m 9.7975,8.25 c 1.2787,0 3.5154,-2.94038 2.7891,-3.66667 -0.7263,-0.72629 -3.6667,1.51036 -3.6667,2.78911 0,0.48266 0.3949,0.87756 0.8776,0.87756 z m -3.1882,18.75 c 0.5831,-2.23168 1.5354,-2.22106 2.9429,0.0328 1.4983,2.39911 2.0366,5.18575 4.3849,22.69794 2.3006,17.15628 4.3888,25.50456 7.1106,28.42606 4.6204,4.9594 4.0873,9.09318 -1.1728,9.09318 -6.1752,0 -9.7662,-9.7413 -12.9022,-35 -1.0473,-8.43569 -1.241,-21.89185 -0.3634,-25.25 z m 32.390698,127 c 0.5606,-0.9625 2.0371,-1.75 3.2811,-1.75 2.4557,0 6.6388,3.33456 6.6388,5.29215 0,2.16772 6.4692,10.38957 17.0297,21.64338 11.1061,11.83527 13.7014,15.30127 14.319,19.12317 0.4286,2.65146 1.4646,2.78626 6.3485,0.82599 4.4991,-1.80584 13.4539,0.95681 15.1472,4.67304 1.4808,3.25004 0.4587,5.35691 -5.6724,11.69227 -4.5953,4.74848 -6.7501,5.50682 -11.7981,4.15211 -1.1693,-0.31381 -2.7039,-1.65021 -3.4101,-2.96977 -0.7062,-1.31956 -2.0672,-2.64778 -3.0245,-2.9516 -2.8394,-0.90122 -4.2523,-6.12122 -0.9132,-8.51734 l 2.0897,-2.93475 -7.8079,-8.17522 c -4.29432,-4.49635 -8.8758,-9.11531 -10.181,-10.26432 -5.2949,-4.66138 -12.7483,-12.98024 -17.7686,-19.83191 -5.891398,-8.04068 -5.693398,-7.57745 -4.2782,-10.0072 z m 47.9103,58.25 c 0.8095,1.26528 1.3548,1.07651 3.4847,-1.20636 1.3887,-1.48849 2.5249,-3.17599 2.5249,-3.75 0,-1.74209 -4.8294,-1.16585 -5.9199,0.70636 -1.2676,2.1763 -1.2723,2.40167 -0.09,4.25 z m -29.3043,-108 c 7.4759,-6.875 14.7674,-13.61579 16.2033,-14.97953 1.4358,-1.36374 4.6356,-4.02199 7.1106,-5.90722 2.475,-1.88523 4.725,-3.72409 5,-4.08636 0.8026,-1.05732 14.107,-9.73122 17.8333,-11.62661 1.2516,-0.63665 6.0937,3.08231 5.1112,3.92565 -0.2445,0.20982 -2.9195,2.00213 -5.9445,3.98291 -3.025,1.98078 -7.6,5.08411 -10.1666,6.89629 -7.4888,5.28747 -32.2657,28.62721 -39.5077,37.21615 -1.1959,1.4183 -3.0762,2.57872 -4.1786,2.57872 -2.2263,0 -5.1727,-2.49645 -5.1003,-4.32143 0.026,-0.64821 6.1634,-6.80357 13.6393,-13.67857 z m 49.8169,-204.5 c 1.9523,-5.51833 5.647,-8.50002 10.5326,-8.50002 8.5536,0 15.9761,5.42185 15.9547,11.65439 -0.016,4.75709 -4.3834,12.80745 -8.2409,15.19151 -6.439,3.97953 -13.3612,1.7835 -16.2308,-5.14915 -2.2743,-5.49448 -3.5291,-8.74231 -3.4747,-8.99378 0.024,-0.11162 0.6807,-2.00295 1.4591,-4.20295 z m 7.497,1.5 c 0.55,0 1,1.60458 1,3.56574 0,4.72316 1.5662,7.43426 4.2947,7.43426 2.516,0 4.1312,-2.1096 5.1433,-6.71768 0.54,-2.45843 0.2379,-3.60646 -1.3728,-5.21717 -2.8917,-2.89165 -10.0652,-2.8193 -10.0652,0.10152 0,0.45833 0.45,0.83333 1,0.83333 z m -0.031,157.67943 c 1.7514,-1.47368 4.1623,-2.67553 5.3576,-2.67076 2.6903,0.0107 9.4533,6.26654 10.2632,9.49346 0.7798,3.10699 -0.1041,4.39696 -4.1799,6.0999 -7.6054,3.17778 -13.1517,0.7424 -14.0806,-6.18281 -0.4895,-3.64927 -0.2222,-4.33163 2.6397,-6.73979 z m 22.5309,-155.73782 c 1.1,-0.0717 3.8,-0.10726 6,-0.0791 26.3867,0.33804 39.0983,0.11466 44.6272,-0.78423 7.5107,-1.22109 12.0629,-0.63072 14.3137,1.85633 1.2633,1.39596 1.3146,2.01751 0.2829,3.4284 -1.7704,2.42116 -11.0112,3.52585 -29.4939,3.52585 -18.4656,0 -30.4562,-1.87052 -34.8107,-5.43047 -2.5947,-2.12121 -2.6969,-2.40098 -0.9192,-2.51681 z m 28.5671,84.87425 c 1.1021,-1.47628 3.5714,-3.20151 5.4874,-3.83385 3.11,-1.02639 3.9623,-0.8692 7.9462,1.46552 6.1226,3.58809 7.0942,5.67688 4.8094,10.34024 -1.98,4.04155 -8.1842,8.16867 -12.3203,8.19578 -1.3806,0.009 -3.7431,-1.12676 -5.25,-2.52402 -3.4362,-3.18621 -3.7486,-9.52326 -0.6727,-13.64367 z m 8.4919,7.18414 c 0.8575,0 1.2764,-0.45734 0.9309,-1.01631 -0.3454,-0.55897 -1.047,-0.75742 -1.559,-0.44098 -1.387,0.85723 -1.1284,1.45729 0.6281,1.45729 z m 11.9975,-19.5 c 1.3712,-1.65 2.8344,-3.45 3.2514,-4 0.417,-0.55 5.1595,-6.175 10.5389,-12.5 5.3794,-6.325 10.3177,-12.625 10.9739,-14 2.425,-5.08084 11.7311,-2.90411 10.0698,2.35537 -0.3726,1.17955 -1.6253,2.79877 -2.7839,3.59827 -1.1586,0.7995 -3.6816,3.27086 -5.6066,5.4919 -8.7254,10.06731 -18.9164,19.4664 -23.2441,21.43787 -6.796,3.09597 -7.3872,2.65557 -3.1994,-2.38341 z m 2.5233,-154.84331 c 1.3213,-0.9255 1.9595,-2.2941 1.75,-3.7527 -0.3993,-2.7799 5.0308,-6.904 9.0903,-6.904 3.4739,0 9.7001,5.2328 10.3651,8.7113 0.7932,4.14969 -1.9875,11.42489 -5.5571,14.53869 -3.2528,2.8375 -9.9203,3.866 -11.2382,1.7337 -0.3454,-0.559 -0.9723,-0.8036 -1.393,-0.5435 -0.7733,0.4778 -5.0969,-8.9829 -5.0969,-11.1528 0,-0.6457 0.9359,-1.82949 2.0798,-2.63069 z m 8.8116,8.34329 c 1.2828,0 2.4226,-1.3273 3.5419,-4.1248 1.9509,-4.87569 1.5174,-5.82579 -1.3499,-2.9585 -1.1459,1.1458 -2.5334,2.0833 -3.0834,2.0833 -0.55,0 -1,1.125 -1,2.5 0,1.7855 0.5406,2.5 1.8914,2.5 z m 11.3873,5 c 3.5245,0 8.2075,5.8539 14.7053,18.3818 0.8162,1.5737 4.0722,5.6191 7.2355,8.9897 3.1633,3.3707 5.758,6.4339 5.766,6.8071 0.026,1.1915 -3.0782,3.8214 -4.5099,3.8214 -1.8142,0 -6.4756,-2.1393 -6.4756,-2.9719 0,-0.358 -0.8126,-1.5233 -1.8057,-2.5895 -4.024,-4.3199 -11.0782,-18.078 -13.0431,-25.4386 -0.5138,-1.925 -1.2562,-4.2875 -1.6497,-5.25 -0.3935,-0.9625 -0.4937,-1.75 -0.2228,-1.75 z m 15.3904,65.28406 c 1.6572,-2.55574 4.9658,-5.475 8.7272,-7.70016 5.3131,-3.1431 6.8605,-3.58 12.581,-3.5521 6.725,0.033 10.0227,1.4257 10.0227,4.2334 0,0.8497 1.9125,2.66971 4.25,4.04464 5.4676,3.21602 8.4993,6.50415 9.1095,9.87984 0.6915,3.82537 -5.5152,12.33729 -11.8059,16.19083 -4.4292,2.71322 -5.7248,3.01516 -12.3903,2.88766 -9.7913,-0.1873 -15.4029,-2.9506 -19.9133,-9.80571 -4.0759,-6.19493 -4.2322,-10.54724 -0.5809,-16.1784 z m 7.8691,13.59428 c 1.396,2.10949 3.5335,4.27309 4.75,4.808 4.0933,1.79986 11.3895,1.51874 15.5402,-0.59877 4.5395,-2.31585 9.1716,-7.41271 9.1716,-10.0917 0,-3.91551 -7.0243,-7.34577 -17.6705,-8.62921 -7.0021,-0.84412 -9.7446,0.0266 -12.2102,3.87671 -2.7179,4.24402 -2.6487,5.99945 0.4189,10.63497 z m 11.0333,28.69311 c 3.3966,-3.39665 7.9535,-1.08238 8.7201,4.42857 0.8772,6.30667 4.6031,29.33129 6.0436,37.34744 1.3092,7.28536 1.0447,12.6108 -0.7724,15.55092 -1.0586,1.7129 -2.8071,0.14409 -2.2432,-2.0126 0.2717,-1.03869 0.1069,-1.64932 -0.3662,-1.35697 -1.2566,0.77667 -4.2175,-11.10825 -7.9792,-32.02879 -1.0879,-6.05 -2.6521,-12.47777 -3.4761,-14.28393 -1.9,-4.16492 -1.8854,-5.6859 0.073,-7.64464 z m 7.6785,75.6837 c 4.7865,-3.78995 12.1634,-5.44519 17.8429,-4.00359 10.8783,2.7612 10.3968,16.15286 -0.7815,21.73558 -5.8223,2.90777 -10.4614,1.99384 -14.101,-2.77801 -1.9823,-2.59884 -2.7104,-4.71605 -2.7104,-7.88127 0,-2.38031 -0.3375,-4.32784 -0.75,-4.32784 -1.1786,0 -0.8772,-1.65436 0.5,-2.74487 z m 9.3714,7.11746 c -0.3823,1.52293 -0.058,2.84983 0.8874,3.63468 2.2161,1.83921 7.3361,-0.54098 8.1514,-3.78945 0.8288,-3.30225 -1.7314,-5.21782 -6.9737,-5.21782 -3.3659,0 -3.7539,0.21388 -2.6973,1.48701 0.6814,0.82102 0.9645,2.56128 0.6322,3.88558 z m 11.5083,-147.37261 c 12.4809,-16.1819 28.308,-32.3988 37.8187,-38.75 3.5003,-2.3375 6.728,-4.25 7.1727,-4.25 0.4447,0 1.2817,0.884 1.8599,1.9645 0.899,1.6798 0.3606,2.5767 -3.7148,6.1882 -5.6083,4.9701 -21.318,20.873 -26.1281,26.4497 -1.8491,2.1437 -5.7653,7.5731 -8.7028,12.0652 -5.5322,8.4605 -7.9227,10.2123 -11.3975,8.3526 -3.1878,-1.706 -2.3494,-4.9653 3.0919,-12.0202 z m 7.2204,33.53597 c 1.0703,-1.46371 2.1414,-1.71788 5.1691,-1.22656 2.1004,0.34086 4.0804,0.99081 4.3999,1.44434 0.3195,0.45353 4.4059,3.35074 9.0809,6.43824 22.2935,14.72326 26.0461,18.18748 23.8847,22.0496 -0.8273,1.47824 -2.4906,0.70486 -13.279,-6.17422 -12.475,-7.9544 -25.1397,-15.06735 -26.8278,-15.06735 -1.3927,0 -3.7779,-2.67528 -3.7779,-4.23744 0,-0.75917 0.6075,-2.21114 1.3501,-3.22661 z m 40.2964,-88.68057 c 0.5123,-1.83339 7.2235,-3.85539 12.7963,-3.85539 4.779,0 11.8423,6.70899 11.3678,10.79759 -0.4261,3.6723 -7.4822,7.5395 -13.9277,7.6335 -6.8583,0.1 -10.3323,-2.7123 -10.5395,-8.5317 -0.086,-2.4197 0.05,-5.1395 0.3031,-6.044 z m 12.9675,6.7054 c 1.3904,-0.349 2.3463,-1.1804 2.1242,-1.8477 -0.6632,-1.9918 -3.7908,-2.0223 -5.2438,-0.051 -1.5798,2.1435 -0.4925,2.8053 3.1196,1.8987 z m -3.3158,114.07941 c 5.3433,-5.50216 14.4859,-5.98876 21.8261,-1.16165 4.628,3.04353 5.6343,6.64733 2.9205,10.45864 -4.1691,5.85485 -12.9477,7.07825 -21.1904,2.95312 -7.7485,-3.87777 -8.6549,-6.99991 -3.5562,-12.25011 z m 7.9018,6.15981 c 1.4607,1.46068 9.8,1.60981 9.8,0.17525 0,-1.35544 -4.3908,-2.97525 -8.0651,-2.97525 -3.1348,0 -3.6705,0.86442 -1.7349,2.8 z m 193.8332,-76.55002 c 0.4963,-1.2375 1.2544,-2.2875 1.6846,-2.3333 2.8709,-0.3059 5.3439,-0.9688 9.3005,-2.4934 l 4.5183,-1.7409 4.1894,2.6446 c 8.7385,5.5164 7.7687,18.2632 -1.7646,23.193 -8.4979,4.39441 -16.3251,-1.3981 -18.2693,-13.52 -0.3087,-1.925 -0.1552,-4.5125 0.3411,-5.75 z m 10.1697,12.4944 c 1.7357,2.0914 3.5265,1.4296 5.7156,-2.1124 2.4241,-3.9224 2.5791,-5.5692 0.7584,-8.0592 -1.85,-2.53 -7.3756,-1.3256 -7.9979,1.7433 -0.56,2.7617 0.1695,6.7964 1.5239,8.4283 z m 10.9594,90.00562 c 0.5524,-1.5125 1.472,-2.75 2.0435,-2.75 0.5946,0 0.4659,-0.69074 -0.3009,-1.61462 -1.1488,-1.38422 -1.0078,-1.88364 0.9883,-3.5 4.4413,-3.59632 12.344,-1.72593 17.9408,4.24616 4.572,4.87859 4.3775,9.27963 -0.6261,14.16551 -3.1716,3.09697 -4.4889,3.70295 -8.0497,3.70295 -5.3897,0 -9.6973,-2.20803 -11.6412,-5.96727 -1.7213,-3.32859 -1.7678,-4.41368 -0.3547,-8.28273 z m 13.2777,5.88126 c 3.1272,-2.04902 3.2046,-3.31623 0.3857,-6.31681 -2.7538,-2.93135 -3.6665,-2.93241 -3.1066,-0.004 0.2616,1.36865 -0.2231,2.86258 -1.1889,3.6641 -1.4446,1.19896 -1.4606,1.5232 -0.1403,2.84349 1.3202,1.32028 1.7821,1.29894 4.0501,-0.18715 z m 6.157,-99.88218 c 0.507,-0.3133 4.7425,-0.8669 9.4124,-1.2302 4.6698,-0.3633 11.6406,-1.2891 15.4906,-2.0574 3.85,-0.7683 9.25,-1.59 12,-1.826 2.75,-0.2361 5.8179,-0.7604 6.8175,-1.1652 2.5983,-1.0522 6.6825,1.4193 6.6825,4.0437 0,2.294 -3.2169,5.9358 -4.2929,4.8598 -0.3468,-0.3468 -6.3853,-0.084 -13.4188,0.5845 -20.972,1.9926 -28.1173,1.8105 -31.3398,-0.7989 -1.2502,-1.0124 -1.8584,-2.097 -1.3515,-2.4103 z m 14.403,74.01885 c 1.1,-0.68696 2,-1.59078 2,-2.00848 0,-0.4177 1.6875,-2.46892 3.75,-4.55828 4.8133,-4.87596 11.2669,-12.19827 13.4742,-15.28782 6.2043,-8.68442 9.0758,-12.81305 10.9122,-15.68919 3.3169,-5.1947 7.327,-6.61792 10.2922,-3.65273 2.4775,2.4775 1.9012,5.80861 -1.431,8.27226 -1.6514,1.22089 -6.1694,6.23456 -10.0401,11.14149 -3.8707,4.90692 -10.4789,12.09263 -14.685,15.96825 -6.3198,5.82332 -8.2326,7.04657 -11.0189,7.04657 -1.9931,0 -3.1189,0.40886 -2.7536,1 0.3399,0.55 -0.083,1 -0.941,1 -2.181,0 -1.9432,-1.74312 0.441,-3.23207 z m 13.0574,-173.26794 c 1.8508,-6.3308 9.8986,-6.8283 18.5966,-1.1496 6.3722,4.1603 6.9326,7.3377 1.9628,11.1283 -3.2048,2.4444 -4.0133,5.5213 -1.4508,5.5213 0.5236,0 0.6739,-0.45 0.334,-1 -1.0545,-1.7062 0.7022,-1.0976 2.165,0.75 0.7621,0.9625 2.7176,4.3116 4.3456,7.4425 4.9584,9.5352 14.0619,23.17239 17.1095,25.62999 3.3847,2.7296 3.8124,6.6081 0.9004,8.1665 -3.7561,2.0103 -6.7495,0.1477 -11.3705,-7.0749 -6.4966,-10.15429 -14.5797,-26.88839 -15.4429,-31.97079 l -0.7546,-4.4433 -5.5727,-0.5 c -3.0649,-0.275 -6.3464,-1.1422 -7.2921,-1.9271 -1.5154,-1.2578 -4.739,-6.4708 -4.4975,-7.2732 0.05,-0.1648 0.4849,-1.6497 0.9672,-3.2997 z m 10.6926,5.4847 c 0.9625,-0.01 2.3503,-0.3958 3.0839,-0.8608 1.064,-0.6745 0.9969,-0.9748 -0.3318,-1.4847 -2.7601,-1.0592 -4.5021,-0.7261 -4.5021,0.8608 0,0.825 0.7875,1.4931 1.75,1.4847 z m 31.8737,87.66659 c 0.9187,-1.6953 1.2888,-3.8637 0.9143,-5.3558 -0.394,-1.5699 -0.02,-3.4373 1.0007,-4.9949 2.1605,-3.2973 9.84,-6.6733 13.2392,-5.8202 8.5825,2.1541 14.3775,12.7348 11.3397,20.7045 -2.2108,5.8001 -11.4274,11.752 -18.2618,11.7932 -5.3192,0.032 -9.8698,-4.4321 -9.8157,-9.6293 0.022,-2.1168 0.7346,-5.1307 1.5836,-6.6975 z m 8.426,9.3487 c 4.8398,0 11.9503,-6.0872 11.9503,-10.2305 0,-2.7793 -3.0908,-7.6635 -5.2917,-8.3621 -2.5149,-0.7982 -3.0901,0.011 -1.7664,2.4839 1.2252,2.2894 -0.4178,6.1087 -2.6279,6.1087 -1.4971,0 -4.0655,4.7305 -4.2079,7.75 -0.077,1.636 0.4532,2.25 1.9436,2.25 z m 11.0435,23.95017 c 2.6572,-1.42208 6.478,-0.49477 7.3805,1.79122 0.3818,0.96725 2.2146,7.83363 4.073,15.25863 6.7195,26.84822 7.879,42.00407 3.4262,44.78488 -1.6794,1.04882 -1.9936,0.91116 -2.3686,-1.03784 -0.2378,-1.23587 -1.6391,-8.66113 -3.1139,-16.50057 -3.2101,-17.06383 -6.695,-30.10794 -9.4617,-35.4159 -2.5857,-4.96092 -2.5675,-7.47182 0.064,-8.88042 z m 7.4802,-55.38067 c 0.8632,-0.8632 1.9203,-1.5695 2.3491,-1.5695 0.7524,0 4.8298,-3.654 17.6072,-15.7784 3.3163,-3.1469 7.3663,-6.7352 9,-7.974 16.5701,-12.56509 19.6536,-14.37829 20.9325,-12.30889 1.1718,1.8959 -1.4391,4.924 -13.0611,15.14839 -14.5266,12.7797 -27.4011,26.1993 -27.4011,28.5612 0,0.8615 -1.1787,1.3462 -3.25,1.3364 -3.8089,-0.018 -5.0379,-0.7006 -6.5983,-3.6652 -0.9192,-1.7465 -0.8352,-2.493 0.4217,-3.75 z m 7.1276,131.69623 c 6.5312,-4.5274 11.545,-3.91272 17.9216,2.19716 3.6408,3.48848 4.3774,4.82318 4.3774,7.93145 0,5.41934 -2.2693,9.01382 -8.0165,12.69749 -5.6359,3.61237 -12.1803,3.02524 -14.9046,-1.33717 -1.6473,-2.63763 -1.5365,-11.04897 0.1817,-13.8002 1.5531,-2.48692 4.8044,-2.49996 7.6515,-0.0307 2.1054,1.826 2.1386,2.07757 0.653,4.95034 -3.176,6.14186 -0.8242,6.96493 4.9055,1.71676 2.7631,-2.53094 3.5588,-3.9229 3.0889,-5.40351 -0.959,-3.0216 -6.5503,-5.20997 -12.5975,-4.93057 -6.1712,0.28512 -7.3495,-1.15694 -3.261,-3.99107 z m 4.9657,-113.59903 c 1.418,-1.418 8.2857,-0.6361 10.0444,1.1437 0.9839,0.9957 4.2639,3.4187 7.2889,5.3845 5.0048,3.2524 7.1545,4.3085 16.4788,8.0954 12.1042,4.916 19.7011,11.18281 17.6261,14.54016 -0.6156,0.9961 -2.4843,0.47247 -8.1446,-2.28223 -4.0401,-1.9662 -9.1714,-4.06425 -11.403,-4.66233 -3.6005,-0.965 -15.4601,-6.4847 -26.7893,-12.4682 -2.1685,-1.1453 -4.3465,-2.7203 -4.84,-3.5 -1.0585,-1.6723 -1.2103,-5.3021 -0.2613,-6.251 z m 46.385,-70.66669 c 0.4384,-1.925 1.5891,-3.95 2.5571,-4.5 0.968,-0.55 3.6399,-2.6875 5.9375,-4.75 8.2282,-7.3861 16.4538,-3.0755 16.4538,8.6226 0,3.5121 -0.7033,5.3941 -3.277,8.7684 -9.2379,12.1117 -24.9407,6.2128 -21.6714,-8.141 z m 10.644,6.8022 c 4.2755,0.6336 9.0414,-8.5213 6.5097,-12.5043 -1.3775,-2.1672 -5.6982,0.8356 -5.7495,3.9957 -0.024,1.4979 -0.8158,3.495 -1.7589,4.4381 -2.0998,2.0998 -1.7149,3.6683 0.9987,4.0705 z m 2.1541,94.63883 c 0.9065,-2.87019 4.6905,-7.44102 6.16,-7.44102 0.6721,0 3.4161,-0.77932 6.0979,-1.73182 4.649,-1.6512 5.031,-1.6483 8.2045,0.061 7.4683,4.02196 8.474,12.23864 2.3203,18.95691 -3.9297,4.29026 -9.4567,6.01701 -15.1324,4.72766 -6.9156,-1.57105 -9.9382,-7.32855 -7.6503,-14.57238 z m 11.0868,7.3805 c 5.8398,0.57202 10.6355,-6.84952 6.8635,-10.62152 -1.7187,-1.7187 -2.5727,-1.49155 -3.3269,0.88491 -0.364,1.14669 -1.943,2.53155 -3.509,3.07746 -2.6509,0.92412 -3.9993,2.97179 -3.5148,5.33763 0.1126,0.55 1.6818,1.14468 3.4872,1.32152 z"
       id="path3894"
       inkscape:connector-curvature="0"
       sodipodi:nodetypes="ccsssscssscssscsssssscsssscssssssssssssssssscsssssssssssssssssssssscsssssssssssssssscsssssccsssscsssssccsssssssssssscsssscsssccssssscsssscsssssscssssssssscssssccsssssccsssscsssscsssssssssssssssscssssssssssssssssssssssssssssssssssscsssssssccsssssssscssssssssssssssscsssssscssssccsscssssssssssscsssssssssscssssssscccsscccssssscsscsssssssssssssscssssssssscsscscssscsssssccsscssscscssssssccscssssscsscssssssssssccssssssssssssssssscssscsscssccsssssss" />
  </g>
</svg>
