<?xml version="1.0" encoding="UTF-8" standalone="no"?>
<!-- Created with Inkscape (http://www.inkscape.org/) -->

<svg
   xmlns:dc="http://purl.org/dc/elements/1.1/"
   xmlns:cc="http://creativecommons.org/ns#"
   xmlns:rdf="http://www.w3.org/1999/02/22-rdf-syntax-ns#"
   xmlns:svg="http://www.w3.org/2000/svg"
   xmlns="http://www.w3.org/2000/svg"
   xmlns:sodipodi="http://sodipodi.sourceforge.net/DTD/sodipodi-0.dtd"
   xmlns:inkscape="http://www.inkscape.org/namespaces/inkscape"
   width="522.46118"
   height="423.24957"
   id="svg3011"
   version="1.1"
   inkscape:version="0.48.5 r10040"
   sodipodi:docname="spiders.svg">
  <defs
     id="defs3013" />
  <sodipodi:namedview
     id="base"
     pagecolor="#ffffff"
     bordercolor="#666666"
     borderopacity="1.0"
     inkscape:pageopacity="0.0"
     inkscape:pageshadow="2"
     inkscape:zoom="0.49497475"
     inkscape:cx="-492.3432"
     inkscape:cy="90.406492"
     inkscape:document-units="px"
     inkscape:current-layer="layer1"
     showgrid="false"
     fit-margin-top="0"
     fit-margin-left="0"
     fit-margin-right="0"
     fit-margin-bottom="0"
     inkscape:window-width="1600"
     inkscape:window-height="837"
     inkscape:window-x="0"
     inkscape:window-y="27"
     inkscape:window-maximized="1" />
  <metadata
     id="metadata3016">
    <rdf:RDF>
      <cc:Work
         rdf:about="">
        <dc:format>image/svg+xml</dc:format>
        <dc:type
           rdf:resource="http://purl.org/dc/dcmitype/StillImage" />
        <dc:title />
      </cc:Work>
    </rdf:RDF>
  </metadata>
  <g
     inkscape:label="Layer 1"
     inkscape:groupmode="layer"
     id="layer1"
     transform="translate(-885.51435,-203.95648)">
    <g
       id="g3327"
       transform="translate(1362.5245,636.48512)"
       style="fill:#ffffff">
      <path
         style="fill:#ffffff"
         d="m -472.91986,-128.01713 c 0.1766,-2.22248 27.3188,-20.68264 35.146,-23.90377 10.4275,-4.29128 11.0215,-4.80908 11.6444,-10.15185 0.3086,-2.64581 1.2413,-6.60041 2.0729,-8.78792 1.5094,-3.97044 1.5082,-3.97947 -0.6841,-5.14661 -3.5624,-1.89626 -13.9271,-3.68656 -19.7709,-3.41501 -5.535,0.25726 -10.3481,1.97085 -19.3938,6.90486 l -4.9065,2.67629 0.7985,5.30949 c 0.4392,2.92016 0.4093,5.63904 -0.066,6.04206 -1.2821,1.08616 -7.2019,-6.23746 -8.4129,-10.40813 -0.8851,-3.04767 -0.7105,-3.92114 1.1083,-5.54652 2.2774,-2.03535 11.6859,-7.24862 15.6303,-8.66087 1.2825,-0.45914 2.6846,-1.13367 3.1158,-1.49907 0.4312,-0.36529 4.175,-1.1386 8.3196,-1.71845 5.8087,-0.81296 10.1354,-0.61807 18.8821,0.84928 10.5577,1.77108 11.4782,1.7726 13.2379,0.0217 11.1339,-12.63927 32.3533,-28.32541 71.3299,-11.58984 0.7119,0.6274 1.9663,1.03963 2.7876,0.91611 1.4604,-0.21965 10.9081,-8.88878 16.412,-15.05969 3.2835,-3.68139 8.1428,-5.38757 11.7553,-4.12752 1.4312,0.4993 4.4535,3.13207 6.7163,5.85077 3.283,3.9444 4.1919,5.82848 4.4987,9.32544 0.3093,3.5248 -0.034,4.61171 -1.7532,5.55452 -1.6476,0.9034 -2.326,0.79893 -2.9589,-0.4558 -2.0715,-4.10698 -5.7584,-9.2092 -7.3487,-10.16995 -0.9971,-0.60231 -2.733,-0.64683 -4.0356,-0.10356 -3.0943,1.29075 -12.6051,11.08256 -15.0011,15.44432 l -1.9396,3.53073 2.7267,4.84709 c 1.4995,2.66592 2.9296,6.19742 3.1778,7.84795 1.6422,6.43625 24.9107,-8.81885 31.4202,-10.54144 8.2357,-2.03632 11.6446,-1.09272 15.2884,4.23187 2.2243,3.25055 3.1575,6.0512 4.2176,12.65802 0.1321,4.69405 3.8425,7.8123 -1.2459,9.18949 -3.3112,0.89603 -4.5297,-0.72023 -6.7171,-8.91008 -1.9457,-7.28435 -3.1511,-9.25802 -5.9246,-9.70004 -5.4318,2.79201 -36.7535,12.89876 -37.5534,16.44832 -1.4829,7.37951 -1.8673,10.52446 -1.3598,11.12364 0.3309,0.39054 3.8745,0.52298 7.8746,0.29432 9.0957,-0.52006 13.5288,0.10437 18.085,2.54732 5.784,3.10134 7.7551,6.57452 9.1604,16.14162 1.321,8.99153 0.6166,13.05347 -2.3402,13.49816 -3.0967,0.46576 -4.1569,-1.55332 -6.0082,-11.44187 -1.5314,-8.17981 -2.1022,-9.71297 -3.982,-10.69572 -2.8725,-1.50159 -11.4643,-1.76973 -21.1667,-0.6606 -6.5649,0.75042 -7.8975,1.18777 -8.4954,2.76736 -0.3897,1.03244 -2.6701,4.41978 -5.0676,7.52751 l -4.3591,5.65026 4.162,1.02409 c 10.7257,2.63926 17.4922,5.19472 21.6686,8.18341 5.6998,4.07886 9.4795,11.01233 9.3722,17.191803 -0.098,5.67041 -3.206,18.24838 -8.2348,33.33034 -4.4087,13.22203 -6.4655,15.58096 -9.7471,11.17968 -1.5502,-2.07927 -1.3258,-3.37566 2.8389,-16.3989 6.0624,-18.95839 7.1648,-24.28529 6.2645,-30.27157 -0.688,-4.574053 -1.1734,-5.348683 -5.0463,-8.052043 -4.6009,-2.49962 -29.3149,-10.2693 -32.932,-7.67014 -4.7082,3.40794 -15.605,5.26674 -24.4145,4.1649 -4.2398,-0.53033 -8.0221,-0.9171 -8.4048,-0.85954 -3.7986,12.149373 -12.37,12.017803 -13.8086,27.733753 -0.5619,6.84529 1.4188,8.51204 8.797,7.40237 4.5947,-0.69104 5.3238,-0.541 5.5778,1.148 0.9399,6.24912 -16.9677,7.55194 -20.4069,1.48477 -1.7424,-3.07376 -2.4791,-13.04124 -1.4011,-18.95625 0.8502,-4.66565 2.4327,-8.049433 6.4564,-13.805983 5.1514,-7.37003 5.2525,-7.6532 3.0126,-8.45085 -1.2746,-0.45388 -3.2936,-1.74385 -4.4867,-2.86658 -1.6731,-1.57439 -3.1408,-1.89516 -6.4166,-1.40249 -3.4065,0.51233 -5.4573,1.74374 -10.3612,6.22117 -8.6927,7.93701 -14.0699,14.253493 -16.5506,19.441533 -3.6539,7.64172 -3.7414,7.46629 6.4226,12.86387 5.0965,2.70641 9.3497,5.47503 9.4516,6.15241 0.4808,3.19655 -6.13,2.92696 -12.2098,-0.49781 -1.5192,-0.85577 -4.3459,-2.08919 -6.2816,-2.74074 -5.4901,-1.84823 -8.957,-4.44782 -9.3416,-7.00467 -1.1481,-7.63414 15.9693,-30.244223 30.0552,-39.699113 2.7152,-1.8226 4.8865,-3.63418 4.8251,-4.0258 -0.059,-0.39199 -1.6132,-3.21654 -3.4483,-6.27766 -1.8351,-3.06112 -3.5646,-7.01032 -3.8434,-8.77599 -0.4644,-2.94003 -0.7699,-3.17076 -3.6337,-2.74005 -4.8769,0.73349 -12.879,4.94717 -22.337,11.76212 -4.7671,3.4349 -9.1391,6.76688 -9.7156,7.40432 -0.7948,0.87898 -0.1162,2.35203 2.8093,6.09759 2.1215,2.71619 3.6325,5.24276 3.3579,5.61474 -0.5232,0.70828 -15.0737,-7.95198 -16.3558,-9.73473 -0.4065,-0.56543 -0.6803,-1.76879 -0.6084,-2.67416 z m 58.7747,-8.73003 c 4.084,7.61166 9.8321,12.95872 15.8798,14.77194 22.2111,6.0765 35.5956,3.3358 49.6514,-15.78068 21.9198,-30.24148 -1.2631,-61.73615 -31.1352,-57.38741 -29.8721,4.34882 -47.8248,32.99415 -34.396,58.39615 z m 14.8269,-29.28576 c 1.3334,-1.8054 6.7555,-2.64978 8.5422,-1.33024 0.7508,0.5545 1.5847,2.46816 1.8531,4.25269 0.4034,2.68204 0.052,3.42611 -2.0245,4.29244 -4.1052,1.71239 -7.8305,0.47275 -8.6808,-2.88867 -0.4048,-1.60029 -0.2653,-3.54709 0.31,-4.32612 z m 23.7516,-3.24548 c 2.0022,-3.51953 4.3364,-3.94967 7.5773,-1.39618 4.9365,3.88948 3.2534,9.03118 -2.8838,8.80917 -4.7956,-0.17359 -6.9112,-3.51491 -4.6935,-7.41299 z"
         id="path2984-1"
         inkscape:connector-curvature="0"
         sodipodi:nodetypes="sscsccscsccccccsccsscssccccscccccccsccccscsscscccssssccsccsccsssssccsssssscsccscsscsccsccczccsssscccscc" />
      <path
         id="path3279"
         transform="translate(-414.068,133.36968)"
         d="m 30.5,-562.46875 c 0.03388,3.50435 0.01978,68.69405 0.125,113.375 0.1359,57.70448 0.276786,112.91071 0.276786,112.91071 l 7.790178,-0.53125 c 0,0 -0.170114,-28.66159 -0.535714,-41.50446 -0.375076,-12.92174 -0.34366,-180.53836 -0.5625,-184.25 -0.243474,-4.12944 -7.13492,-4.25826 -7.09375,0 z"
         style="fill:#ffffff"
         inkscape:connector-curvature="0"
         sodipodi:nodetypes="sscccss" />
    </g>
    <g
       id="g3319"
       transform="translate(1348.3824,636.48512)"
       style="fill:#ffffff">
      <path
         style="fill:#ffffff"
         d="m -109.98311,-112.76416 c 3.7393,-10.2346 16.0682,-14.2668 28.812302,-9.4231 4.29,1.6306 7.2999,2.0177 14.0301,1.8046 4.7127,-0.1491 9.1182,0.069 9.7901,0.4838 0.7124,0.4403 3.6261,-0.7291 6.9895,-2.8051 3.1724,-1.9581 6.2523,-3.5602 6.8445,-3.5602 0.5921,0 2.6083,-0.7739 4.4803,-1.7198 13.09648,-4.3638 25.38098,0.414 35.86963,7.5632 0.2937,0.4193 2.2164,2.0256 4.2727,3.5696 l 3.7387002,2.8072 3.7612999,-1.9368 c 2.0686999,-1.0653 6.8511999,-3.8516 10.6277999,-6.1919 3.7767,-2.3403 8.3017,-4.4879 10.0556,-4.7726 2.7439,-0.4452 3.554,-0.039 5.8031,2.9096 3.3255,4.36 6.7748,14.7994 6.7748,20.5041 0,4.103 -0.1529,4.3553 -2.25,3.7124 -3.5049,-1.0745 -4.4876,-2.2331 -5.2242,-6.1592 -0.8497,-4.5294 -4.4288,-12.2858 -5.6692,-12.2858 -1.6788,0 -10.5182,4.8444 -13.6542,7.4832 l -3.0827,2.5939 2.9909,4.4318 c 1.6451,2.4374 3.7556,6.6613 4.6902,9.3863 l 1.6992,4.9545 4.2382,-1.9485 c 6.8867,-3.1661 13.3895,-4.0144 19.2067,-2.5054 8.0173,2.0796 11.3063,6.0448 12.5393,15.1174 0.3728,2.7428 1.1415,6.4956 1.7083,8.3396 0.8259,2.6873 0.7225,3.6608 -0.521,4.9043 -1.402,1.402 -1.7934,1.393 -4.0619,-0.093 -2.2836,-1.4963 -4.5809,-6.8108 -4.6096,-10.6637 -0.01,-0.825 -0.4762,-3.1747 -1.0447,-5.2216 -0.8733,-3.1444 -1.6481,-3.9057 -4.996,-4.9088 -8.656,-2.5934 -22.1502,3.4265 -25.5781,11.4107 -0.9964,2.3208 -1.9528,4.4835 -2.1252,4.806 -0.1724,0.3224 3.1869,0.4006 7.4652,0.1737 9.6952,-0.5143 14.9101,1.1425 18.0288,5.7277 2.0014,2.9425 2.25,4.5415 2.25,14.469 0,12.9636 -1.0642,15.7463 -5.2861,13.8227 -2.4097,-1.098 -2.51,-1.5124 -2.6299,-10.8675 -0.157,-12.2505 -0.6642,-14.2685 -3.7826,-15.0511 -4.2943,-1.0778 -25.2927998,0.6674 -28.9364,2.4049 -1.8507,0.8826 -3.365,1.8629 -3.365,2.1784 0,0.3156 2.9166,1.6198 6.4813002,2.8982 6.6931998,2.4005 10.9844998,6.181 12.1110998,10.6698 -0.61702,3.548 -1.34256,32.1919 -9.5278999,34.4725996 -0.3105,-0.01 -1.2149,-0.4268 -2.0097999,-0.9297996 -1.2371,-0.7826 -1.057,-2.5628 1.2499999,-12.3589 4.2735999,-18.1461 3.5935999,-22.4821 -3.8046999,-24.2619 -17.7037702,-9.9739 -45.1398302,-8.718 -55.4578302,0.411 -4.2853,4.0766 -5.1496,7.6551 -2.9846,12.3578 1.0965,2.3816 7.9393,7.7971 9.8522,7.7971 0.5996,0 1.0902,1.125 1.0902,2.5 0,5.458 -10.0081,2.1001 -15.8205,-5.3081 -6.8123,-8.6827 -6.3026,-14.9035 1.8539,-22.6261 2.7317,-2.5864 4.9667,-5.0304 4.9667,-5.4312 0,-0.4008 -1.7653,-2.4525 -3.923,-4.5594 -4.5872,-4.4793 -5.3815,-4.4279 -16.8563,1.0913 -9.2542,4.4511 -10.4485,6.1707 -9.2841,13.368 0.4864,3.006 0.5688,5.7988 0.1831,6.2062 -2.3547,2.4876 -8.119702,-7.9406 -8.119702,-14.6877 0,-4.9469 6.124602,-9.5154 19.500002,-14.5457 5.6794,-2.136 6.9414,-2.9981 6.6892,-4.57 -0.171,-1.0655 -0.5319,-4.4123 -0.8021,-7.4373 -0.9062,-10.1468 -0.5236,-9.6794 -7.6104,-9.2981 -18.705902,1.0066 -24.247502,4.2757 -28.192402,16.6312 -0.6665,2.0874 -2.4527,1.8226 -3.974,-0.5891 -1.3541,-2.1467 0.9261,-13.5416 3.221,-16.0964 0.9152,-1.0188 2.8988,-2.4909 4.4081,-3.2714 3.535,-1.8281 18.296502,-4.4017 25.857102,-4.5081 5.5129,-0.078 5.9964,-0.2824 7.8862,-3.3401 1.1072,-1.7916 2.2954,-4.6683 2.6402,-6.3927 l 0.6271,-3.1354 -5.875,-0.082 c -7.4405,-0.1041 -10.676,-0.6011 -16.7297,-2.5695 -7.232802,-2.3518 -14.882002,-1.4537 -18.689702,2.1943 -1.6502,1.5809 -3.513,4.5859 -4.1398,6.6778 -1.0967,3.6605 -3.355,6.5738 -4.3357,5.5931 -1.1094,-1.1094 -1.3364,-9.5608 -0.3306,-12.3134 z m 69.460902,50.5316 c 15.86823,4.5379 36.19963,0.267 47.1446302,-9.9034 5.3780998,-4.9975 7.1681998,-12.6094 5.0841998,-21.6192 -0.9315,-4.0271 -2.2749998,-6.0943 -6.9558998,-10.7032 -16.9976902,-15.222 -45.7349302,-26.1012 -57.1028302,-3.0119 -3.8576,7.9893 -4.7845,13.1512 -4.1673,23.2061 -2.8022,8.6112 10.6508,20.4662 15.9972,22.0316 z m 1.6713,-39.0935 c 2.3244,-2.9804 4.68943,-3.0722 7.27493,-0.2824 4.6553,5.0232 2.1677,9.4959 -4.3689,7.8553 -4.13393,-1.0375 -5.40993,-4.3625 -2.90603,-7.5729 z m 19.59673,4.2243 c 0.4664,-0.7358 2.3539,-1.4108 4.1946,-1.5 2.7846,-0.1351 3.5868,0.3293 4.7765,2.7653 1.3309,2.725 1.2721,3.0554 -0.8493,4.7731 -4.4219,3.5807 -11.0808,-1.3701 -8.1218,-6.0384 z"
         id="path2994-8"
         inkscape:connector-curvature="0"
         sodipodi:nodetypes="ccccssccscccccsssssccscscscsccsssccsscsccsccccscccsssssssccssccscccccccccsccscccsscccccsccccccc" />
      <path
         id="path3281"
         transform="translate(-414.068,133.36968)"
         d="m 388.21875,-562.46875 c 1.20235,35.61124 2.0136,73.44997 2.875,106.1875 0.6367,24.1325 0.8597,57.97 0.5,76 -1.2388,62.0675 -1.87345,123.9567 -1.28125,125.5 0.4331,1.1284 1.3595,1.3503 3.375,0.875 1.5246,-0.3596 3.0606,-0.93975 3.4375,-1.28125 0.3769,-0.3415 0.8269,-47.16875 1,-104.09375 0.26654,-87.66324 -2.32029,-198.74712 -2.40625,-203.1875 -0.086,-4.44038 -7.40068,-4.70326 -7.5,0 z"
         style="fill:#ffffff"
         inkscape:connector-curvature="0"
         sodipodi:nodetypes="ccsccsszc" />
    </g>
    <g
       id="g3323"
       transform="translate(1364.4027,638.48512)"
       style="fill:#ffffff">
      <path
         sodipodi:nodetypes="ccsscccscsscsccsccsssscsscsssssssccccssscssscsscccsscscccccccsccccsscscsscccssccccscccscssccccccsscsc"
         inkscape:connector-curvature="0"
         id="path2996-5"
         d="m -274.15654,-228.39244 c 11.17163,-7.30092 19.49907,-24.85808 29.99114,-29.55812 7.15533,-2.8467 17.44133,-2.53347 30.97662,0.94353 5.16661,1.32724 6.01583,1.23581 9.14096,-0.98389 15.39643,-10.93586 41.02614,-19.09052 53.76012,-16.44515 7.42886,1.84071 14.40888,4.9784 20.44425,10.366 l 5.01723,4.17935 8.37161,-5.2521 c 17.429872,-10.93479 18.167942,-10.22777 20.719642,-9.37054 3.30393,1.11034 5.20201,3.25824 9.09551,10.29525 4.87941,8.8192 6.57971,13.35046 6.21439,16.56069 -0.26499,2.32838 -0.75947,2.91089 -2.46562,2.90516 -1.67959,-0.006 -3.18673,-2.00746 -7.07551,-9.39734 -2.71769,-5.16455 -5.70559,-9.87622 -6.63985,-10.47042 -1.27536,-0.81119 -4.248342,0.30351 -11.934652,4.47468 -5.62984,3.05529 -10.3553,5.92617 -10.50094,6.37966 -0.14562,0.45349 -0.0475,2.78808 0.21815,5.18794 l 0.48292,4.3634 9.32697,-1.62364 c 5.1299,-0.89301 10.140652,-1.36236 11.135232,-1.04297 1.79673,0.57698 2.77812,2.24144 7.83244,13.28326 6.41269,14.00924 7.393,16.96669 6.52247,19.67754 -1.47741,4.60071 -6.50535,3.39404 -7.83304,-1.87986 -0.37244,-1.47963 -2.70922,-7.12913 -5.19286,-12.55451 -5.170552,-11.2954 -4.951452,-11.18261 -16.165112,-8.31925 l -7.1507,1.82593 -1.61851,5.0401 c -1.9035,5.92757 -1.80708,6.03289 9.71867,10.61898 10.12219,4.02762 18.311932,9.77726 19.781542,13.88773 1.25,3.49621 1.58395,22.6052 0.45638,26.11649 -0.71029,2.21185 -2.67328,2.80414 -5.88018,1.77431 -2.24775,-0.72181 -2.887842,-4.60591 -2.25442,-13.67904 0.89586,-12.83198 0.0484,-13.78997 -18.967542,-21.442 l -12.55645,-5.05268 -2.72905,1.97109 c -1.50094,1.08411 -4.65552,2.86635 -7.01022,3.9605 -2.35461,1.09418 -4.12825,2.19543 -3.94131,2.44735 0.18696,0.25182 3.80499,2.91359 8.04015,5.91491 9.89604,7.01314 13.28998,10.40905 14.63844,14.6472 1.28859,4.04982 0.87981,5.59293 -3.27926,12.3776 -1.72516,2.81421 -4.21722,7.51455 -5.5379,10.4452 -2.01117,4.46269 -2.83542,5.37938 -5.07317,5.64197 -4.33425,0.50856 -4.66744,-1.665 -1.53049,-9.98501 1.4943,-3.96321 3.52351,-9.54634 4.50934,-12.40691 l 1.79244,-5.20103 -4.12758,-3.95122 c -2.27017,-2.17317 -7.56921,-6.19976 -11.77565,-8.94809 l -7.64816,-4.9969 -6.71912,1.12859 c -14.59506,1.90953 -25.71512,0.33813 -38.56715,2.07607 -5.51624,0.72767 -11.08142,3.54494 -11.87319,6.01053 -0.18552,0.57774 -0.45566,5.99885 -0.60031,12.04706 -0.25378,10.61503 -0.33883,11.02181 -2.44847,11.72244 -1.43043,0.475 -2.46447,0.2883 -2.99257,-0.54045 -0.90542,-1.42088 -2.4246,-11.72763 -2.6143,-17.73711 -0.0684,-2.16658 -0.64513,-5.47986 -1.28144,-7.36268 -1.41606,-4.1899 -0.33679,-5.311 8.10339,-8.41749 3.20437,-1.17946 5.92722,-2.45913 6.05073,-2.84378 -1.49973,-3.24283 -13.52452,-8.84728 -17.07659,-9.37656 -1.31708,-0.16973 -3.58309,-0.6551 -5.03567,-1.0786 -1.4526,-0.42341 -3.8419,-0.15298 -5.3097,0.60126 -2.54645,1.30859 -2.8184,1.9445 -5.93681,13.884 -2.78955,10.68057 -3.60369,12.78408 -5.56016,14.36636 -10.13025,3.8821 -1.1435,-24.97302 -0.52543,-31.18849 1.84061,-7.34581 18.90223,-6.50551 23.72693,-5.36652 2.99739,0.73967 5.73941,1.19588 6.09347,1.01403 0.35409,-0.18195 1.04462,-3.91856 1.53448,-8.30357 0.48987,-4.38502 1.35732,-9.00451 1.92758,-10.26554 1.03585,-2.29059 1.02948,-2.29494 -6.80211,-4.63888 -6.18479,-1.85114 -9.1935,-2.19512 -14.25788,-1.63009 -6.94869,0.77528 -10.48446,3.1951 -19.87728,13.60371 -2.42504,2.68723 -7.21791,7.91065 -10.65084,11.60758 -3.43293,3.69693 -6.3564,7.07872 -6.49656,7.51517 -0.44263,1.37837 -5.54189,0.53153 -6.57666,-1.09231 -1.43452,-2.25111 -0.43212,-4.14943 4.46722,-8.45988 z m 65.44094,0.25203 c 1.03324,8.22226 3.66753,10.91031 13.87942,14.1621 10.13443,3.22712 15.13519,3.66412 25.54093,2.23114 15.43665,-2.12567 25.87658,-6.14463 33.92475,-13.05966 20.39068,-19.44779 -3.53022,-40.05006 -17.7819,-42.5917 -8.44341,-1.48855 -26.37303,2.72771 -37.37174,8.7883 -11.31954,6.40289 -19.57965,16.84691 -18.19145,30.46982 z m 25.35247,-21.76626 c 1.90681,-1.20815 3.06343,-1.2328 5.08254,-0.10841 2.82505,1.57329 4.42215,6.41643 2.93808,8.90999 -1.19981,2.0159 -6.45483,1.37509 -9.43222,-1.15017 -2.84446,-2.41262 -2.31341,-5.2912 1.4116,-7.65141 z m 21.57914,0.62155 c 1.20032,-0.91429 2.91226,-1.42796 3.80448,-1.14145 2.37362,0.76223 4.46932,5.87744 3.56356,8.69798 -1.02654,3.19672 -3.41973,4.06404 -7.08947,2.56935 -4.54861,-1.85255 -4.68383,-6.77018 -0.27857,-10.12588 z m -91.5007,-27.54537 c 3.88528,-4.05013 13.42073,-21.40076 19.05464,-17.477 9.67065,3.22964 37.49153,32.30813 30.33039,35.02639 -2.5699,0.85343 -6.39228,-0.1185 -6.79071,-1.72684 -0.14906,-0.60138 -3.07615,-4.64749 -6.50479,-8.99141 -5.99722,-7.5983 -14.78324,-14.99891 -17.61918,-14.84083 -2.11503,0.11788 -8.63032,7.76662 -15.42908,18.11298 -2.57779,3.923 -5.88637,4.79969 -7.65269,2.02791 -1.35778,-2.13067 0.30275,-6.49896 4.61142,-12.1312 z"
         style="fill:#ffffff" />
      <path
         id="path3283"
         transform="translate(-414.068,133.36968)"
         d="m 246.5625,-562.46875 c -0.1413,55.56407 -0.81202,114.19156 -2.28125,156 1.04241,1.716 1.94585,2.02015 4.65625,1.59375 1.8556,-0.2919 3.61545,-0.7717 3.90625,-1.0625 0.50529,-0.5053 1.58125,-53.50125 1.53125,-75.53125 -0.0124,-5.50323 -0.16884,-75.70923 -0.3125,-81 -0.14366,-5.29077 -7.499,-4.77899 -7.5,0 z"
         style="fill:#ffffff"
         inkscape:connector-curvature="0"
         sodipodi:nodetypes="cccsczc" />
    </g>
  </g>
</svg>
