<?xml version="1.0" encoding="UTF-8" standalone="no"?>
<!-- Created with Inkscape (http://www.inkscape.org/) -->

<svg
   xmlns:dc="http://purl.org/dc/elements/1.1/"
   xmlns:cc="http://creativecommons.org/ns#"
   xmlns:rdf="http://www.w3.org/1999/02/22-rdf-syntax-ns#"
   xmlns:svg="http://www.w3.org/2000/svg"
   xmlns="http://www.w3.org/2000/svg"
   xmlns:sodipodi="http://sodipodi.sourceforge.net/DTD/sodipodi-0.dtd"
   xmlns:inkscape="http://www.inkscape.org/namespaces/inkscape"
   width="437.97314"
   height="301.20178"
   id="svg3166"
   version="1.1"
   inkscape:version="0.48.5 r10040"
   sodipodi:docname="whale.svg">
  <defs
     id="defs3168" />
  <sodipodi:namedview
     id="base"
     pagecolor="#ffffff"
     bordercolor="#666666"
     borderopacity="1.0"
     inkscape:pageopacity="0.0"
     inkscape:pageshadow="2"
     inkscape:zoom="0.7"
     inkscape:cx="97.189789"
     inkscape:cy="41.409701"
     inkscape:document-units="px"
     inkscape:current-layer="layer1"
     showgrid="false"
     fit-margin-top="0"
     fit-margin-left="0"
     fit-margin-right="0"
     fit-margin-bottom="0"
     inkscape:window-width="1600"
     inkscape:window-height="837"
     inkscape:window-x="0"
     inkscape:window-y="27"
     inkscape:window-maximized="1" />
  <metadata
     id="metadata3171">
    <rdf:RDF>
      <cc:Work
         rdf:about="">
        <dc:format>image/svg+xml</dc:format>
        <dc:type
           rdf:resource="http://purl.org/dc/dcmitype/StillImage" />
        <dc:title />
      </cc:Work>
    </rdf:RDF>
  </metadata>
  <g
     inkscape:label="Layer 1"
     inkscape:groupmode="layer"
     id="layer1"
     transform="translate(-156.01343,-381.76129)">
    <path
       style="fill:#ffffff"
       d="m 577.81296,681.67187 c -27.94486,-6.25979 -46.41257,-29.37751 -68.2988,-45.684 -17.73224,-8.18585 -39.97602,2.51112 -58.34768,3.10681 -35.66378,4.05173 -68.56506,15.24152 -113.033,19.63274 -44.46794,4.39122 -118.48992,11.99733 -153.50829,-35.68946 -0.83074,-1.13127 -5.15341,1.06649 -6.9281,-0.78323 -4.82947,-5.03365 -14.49211,-23.26815 -17.70338,-38.82047 -1.99602,-9.66681 -7.78153,-38.50369 8.79054,-60.35874 22.80264,-21.42085 57.77772,-33.01772 88.46078,-23.24056 13.13151,3.74441 33.97704,14.11112 28.20895,-8.95527 -0.50655,-21.43338 -6.60577,-42.19701 -9.12442,-63.30697 4.40698,-10.93405 5.95438,19.05881 8.72614,23.88 1.86962,7.55467 6.05374,40.20752 8.69614,17.71745 3.52881,-12.90755 0.46423,-39.76658 4.98579,-44.0227 6.68703,16.12222 0.94728,38.96884 1.80918,51.78656 9.07843,-17.0862 17.91867,-34.3413 27.54657,-51.10119 -12.52598,-6.68648 2.65781,-23.48553 6.58334,-11.44428 -15.74993,13.00727 29.29016,-18.29327 10.10904,0.85987 -13.45584,7.44831 12.97295,7.76226 -4.07412,11.24663 -16.38446,5.18719 -19.26317,27.29931 -28.24239,40.50677 -4.4741,8.65111 -16.03546,32.35335 -1.57929,14.4047 11.97506,-12.56171 22.94334,-26.69959 37.5974,-36.25904 7.32715,1.02715 -4.04336,-11.4702 8.6862,-4.66246 -19.64853,23.24713 -42.32433,46.64872 -59.524,71.84398 10.83591,-0.92611 138.39506,56.50275 207.97967,82.8533 13.5452,-15.19045 40.33019,-21.90715 57.73036,-28.58164 25.86528,-7.45368 -2.44937,15.25269 -8.20888,21.98579 -9.64558,17.2668 -4.91445,38.96321 8.4051,52.89787 7.22631,12.61248 25.9036,34.20059 28.25715,38.58134 4.28458,3.31996 -11.6008,3.33053 -14,1.6062 z M 358.75843,635.54548 c -12.24655,-8.8005 -19.43632,-24.76849 -17.22175,-39.67258 10.97063,5.63004 6.80105,37.52878 29.03075,36.31705 5.73046,-4.97022 -8.5061,-22.62052 -2.01189,-33.04718 11.51199,-7.59759 2.01302,23.09025 11.14314,29.28747 16.08122,16.03781 -13.54179,12.33607 -20.94025,7.11524 z m 135.26933,-11.36772 c 22.42083,-0.28121 34.41794,22.85153 51.72792,33.37736 8.22431,5.71503 22.43787,14.61673 29.91228,14.32855 -12.39354,-21.06077 -34.29465,-39.97293 -31.43764,-66.69679 -4.32598,-7.62975 13.54296,-25.46312 1.47526,-24.05325 -16.87536,0.19837 -26.36063,18.1258 -42.60047,21.4353 -79.75252,-31.7787 -161.85147,-69.43208 -242.57378,-93.82563 -29.8626,-9.53531 -63.65132,-1.34212 -86.22159,20.33539 -17.82282,21.64072 -4.07722,76.03956 7.46994,87.44495 23.84515,-6.65208 63.93037,10.12034 85.0776,-1.078 2.42494,-1.00178 7.66025,-5.26338 10.00622,-2.72447 1.62715,1.76098 -0.55003,5.61442 -2.43118,6.76959 -28.57547,15.10318 -65.88209,-2.47172 -82.74937,2.25087 6.23274,5.61325 12.48629,15.17931 28.73925,22.93202 32.01585,15.27166 100.75629,9.83601 160.69748,0.77827 58.16404,-8.7892 108.04285,-20.98889 108.04285,-20.98889 M 277.09035,566.91672 c -9.49979,-9.16498 14.67334,-11.27088 5.0902,-0.6045 l -2.6921,0.87495 z m 69.72261,-154.78309 c 0.0838,-3.83135 -4.57314,4.03538 0,0 z m 13.3228,27.7495 c -9.05969,-7.66491 -0.0659,-12.21584 6.9573,-5.3826 3.2599,-15.46026 -8.69664,-33.24769 -23.07826,-38.25473 -8.11758,-7.81398 -19.43824,-5.36703 -23.62633,1.06019 -6.01929,-12.26277 -17.09019,-11.93468 -26.09221,-7.76896 -10.48995,-3.46029 -16.32014,7.12432 -15.8089,13.5966 -10.66091,-11.94237 12.58088,-24.82156 21.53185,-15.66374 6.11653,-14.92401 23.18617,10.0568 35.47751,0.99804 18.44426,2.62038 33.32236,18.29475 37.60275,36.43246 3.85138,6.65306 -5.0607,19.94704 -12.96371,14.98274 z m -49.8568,-12.672 c -9.73477,-1.52075 -10.92817,-15.80453 1.95781,-7.68459 15.32313,2.14378 14.6302,10.41455 -1.95781,7.68459 z m 43.5639,-5.3135 c -6.21363,-8.54423 2.32618,-18.53931 2.71704,-4.17689 0.16148,1.76954 1.48188,10.7306 -2.71704,4.17689 z m -84.8695,-1.2114 c -11.35226,-3.74182 -1.98473,-31.81907 3.29739,-21.81699 -12.98443,3.50252 8.12797,10.96658 -5.38261,13.92223 5.26295,-0.87182 16.53159,4.88636 8.27521,9.64535 l -3.1163,-0.39239 z m 19.8396,-2.1873 c -20.09782,-5.4157 18.12948,-6.87988 7.531,-3.1717 -3.9756,0.76395 6.41728,8.32238 -5.08295,4.15385 l -2.44805,-0.98235 z m 19.75,-4.0276 c -6.14435,-6.95532 18.03607,-0.50881 4.06067,0.53646 z m -3.6666,-14.9808 c 1.19681,-8.58144 11.70336,7.75487 0,0 z"
       id="path3155-2-2"
       inkscape:connector-curvature="0"
       sodipodi:nodetypes="ccczssscccccccccccccccccccccccccccccccccccccccaccccccccccccccccccccccccccccccccccccccccccc" />
  </g>
</svg>
