<?xml version="1.0" encoding="UTF-8" standalone="no"?>
<!-- Created with Inkscape (http://www.inkscape.org/) -->

<svg
   xmlns:dc="http://purl.org/dc/elements/1.1/"
   xmlns:cc="http://creativecommons.org/ns#"
   xmlns:rdf="http://www.w3.org/1999/02/22-rdf-syntax-ns#"
   xmlns:svg="http://www.w3.org/2000/svg"
   xmlns="http://www.w3.org/2000/svg"
   xmlns:sodipodi="http://sodipodi.sourceforge.net/DTD/sodipodi-0.dtd"
   xmlns:inkscape="http://www.inkscape.org/namespaces/inkscape"
   width="102.06267"
   height="312.69537"
   id="svg3771"
   version="1.1"
   inkscape:version="0.48.5 r10040"
   sodipodi:docname="wheat.svg">
  <defs
     id="defs3773" />
  <sodipodi:namedview
     id="base"
     pagecolor="#ffffff"
     bordercolor="#666666"
     borderopacity="1.0"
     inkscape:pageopacity="0.0"
     inkscape:pageshadow="2"
     inkscape:zoom="1.4"
     inkscape:cx="184.81885"
     inkscape:cy="213.87878"
     inkscape:document-units="px"
     inkscape:current-layer="layer1"
     showgrid="false"
     fit-margin-top="0"
     fit-margin-left="0"
     fit-margin-right="0"
     fit-margin-bottom="0"
     inkscape:window-width="1920"
     inkscape:window-height="1137"
     inkscape:window-x="1600"
     inkscape:window-y="27"
     inkscape:window-maximized="1" />
  <metadata
     id="metadata3776">
    <rdf:RDF>
      <cc:Work
         rdf:about="">
        <dc:format>image/svg+xml</dc:format>
        <dc:type
           rdf:resource="http://purl.org/dc/dcmitype/StillImage" />
        <dc:title />
      </cc:Work>
    </rdf:RDF>
  </metadata>
  <g
     inkscape:label="Layer 1"
     inkscape:groupmode="layer"
     id="layer1"
     transform="translate(-323.96867,-372.29284)">
    <path
       sodipodi:nodetypes="cccsscccscsssssccccsscsscccccccscssscssccccscssscccccsscccsscccssscscscssccsccccccccsssccccscccc"
       style="fill:#ffffff"
       d="m 358.86104,374.05818 c -6.22931,5.53894 -7.89219,13.67507 -7.6036,19.1078 0.3082,5.5718 1.1512,9.069 3.2542,13.5 3.078,6.4856 6.5192,15.3579 6.5192,16.8082 0,0.4976 -1.7745,-0.6984 -3.9433,-2.6578 -11.6467,-10.5221 -25.3036,-3.9599 -17.7903,8.5482 3.6329,6.0478 16.7403,24.948 20.4054,29.4235 1.8656,2.278 4.7276,4.6951 6.3601,5.3713 2.0491,0.8488 2.9681,1.9272 2.9681,3.4831 0,1.2395 0.2808,3.7724 0.624,5.6287 0.617,3.3375 0.5421,3.2954 -6.75,-3.7962 -9.2065,-8.9534 -14.0011,-11.5207 -21.6499,-11.5927 -11.9986,-0.113 -17.5147,7.2035 -12.0712,16.0113 2.2958,3.7146 17.516,15.5377 25.3957,19.7274 3.6142,1.9217 6.238,2.5252 10.9779,2.5252 3.7936,0 6.6117,0.4887 7.2085,1.25 1.701,2.17 5.1112,29.75 3.6785,29.75 -8.88679,-7.86431 -18.78993,-13.64766 -28.9135,-19.1494 -4.9075,-2.6012 -7.1188,-3.1733 -12.1444,-3.1418 -11.6658,0.073 -14.2584,5.6519 -8.3906,18.0553 7.3174,15.4675 15.7969,20.9545 36.6402,23.7091 3.6148,0.4777 6.1692,0.2301 8.75,-0.8483 6.4382,-2.69 4.6599,-4.0708 -7.0313,-5.4594 -17.4267,-2.0698 -24.6705,-6.8408 -30.7235,-20.2354 -3.8734,-8.5714 -3.8041,-9.472 0.7084,-9.2032 5.1357,0.306 11.2604,3.5337 23.4643,12.3658 12.71676,6.11434 15.42992,11.33904 18.7269,17.5409 l -0.1293,12.9666 -0.1293,12.9666 c 1.05982,35.97985 -1.19182,71.56414 -2.56353,108.92135 -0.54028,16.11177 6.71652,8.19788 5.818,0.1007 0.5744,-3.575 2.97343,-79.44245 3.47913,-96.98585 0.5057,-17.5433 1.2808,-32.2507 1.7225,-32.683 0.4417,-0.4324 5.078,-2.1626 10.303,-3.8449 5.225,-1.6823 11.8199,-4.3972 14.6553,-6.0331 9.6521,-5.5687 15.3447,-15.2669 15.3447,-26.1419 0,-5.4072 -0.5177,-5.9385 -7.334,-7.5258 -9.8092,-2.2844 -19.0811,2.8092 -28.2892,15.5408 -3.1844,4.4029 -5.9683,7.8267 -6.1865,7.6085 -0.2182,-0.2182 -0.7745,-3.6878 -1.2361,-7.7102 -0.4617,-4.0224 -1.1522,-9.9009 -1.5345,-13.0634 l -0.695,-5.75 3.8876,-0.01 c 5.1666,-0.013 12.9888,-3.7749 17.7332,-8.5283 4.8929,-4.9023 11.5823,-14.7233 12.7124,-18.6636 1.0143,-3.5367 -0.754,-7.7716 -4.2747,-10.2376 -3.5291,-2.4719 -10.8513,-2.0037 -15.24,0.9745 -6.4531,4.3792 -12.4228,10.5846 -14.6919,15.272 -1.9644,4.058 -2.2671,4.301 -2.9748,2.3879 -0.4333,-1.1714 -1.3473,-6.9424 -2.031,-12.8245 l -1.2432,-10.6946 2.4489,-1.5419 c 4.5123,-2.8412 10.4106,-9.5979 14.9488,-17.1246 3.8188,-6.3333 4.4768,-8.1948 4.3468,-12.2955 -0.2894,-9.1293 -4.2447,-13.714 -11.8311,-13.714 -3.1621,0 -4.5201,0.8444 -9.719,6.0433 -3.3238,3.3239 -6.1194,5.9114 -6.2123,5.75 -0.093,-0.1613 -0.7066,-2.4151 -1.3636,-5.0084 -1.0545,-4.1628 -0.9718,-5.1 0.7058,-8 5.7125,-9.8751 8.2303,-30.8997 4.284,-35.7732 -2.6572,-3.2815 -9.8652,-3.8739 -13.3804,-1.0997 z m 7.1918,4.6146 c 2.3576,2.8407 -1.2992,26.4734 -4.0964,26.4734 -1.0046,0 -2.6475,-5.2846 -3.4741,-11.175 -0.677,-4.824 0.5867,-10.38 3.3151,-14.575 1.7232,-2.6495 2.5415,-2.7886 4.2554,-0.7234 z m 24.03221,43.16496 c 2.141,5.6311 -1.56761,8.90684 -5.14441,14.83954 -3.7455,6.2123 -9.6041,13.4689 -10.8742,13.4689 -0.4447,0 -1.1052,-1.9785 -1.4678,-4.3967 -1.0339,-6.8943 1.7497,-17.0508 6.1758,-22.5338 5.6456,-6.9938 9.80791,-5.33034 11.31061,-1.37794 z m -34.80421,7.69964 c 3.68053,5.02468 14.34196,21.13716 11.2444,25.4478 -0.8816,0.8816 -4.3578,-3.5289 -12.0895,-15.339 -8.2241,-12.5621 -9.6841,-15.3301 -9.011,-17.0842 0.9416,-2.4536 4.7598,0.2486 9.8561,6.9754 z m 14.734,58.979 c 0.01,0.4786 -2.5966,0.6812 -5.7897,0.4502 -11.20577,-2.79841 -17.15764,-7.10519 -26.1782,-16.1152 -3.4409,-3.5194 -4.1038,-8.2556 -1.2661,-9.0461 10.87104,-2.46198 31.57164,18.42483 33.234,24.7111 z m 36.8365,-19.0783 c 0.3813,3.3222 -2.8938,9.2505 -8.8354,15.993 -4.2707,4.8464 -9.313,7.7151 -13.5607,7.7151 -2.2135,0 -2.2611,-0.139 -0.9417,-2.75 0.7643,-1.5125 2.5547,-5.2931 3.9787,-8.4012 1.4783,-3.2268 4.8305,-7.85 7.8138,-10.7764 2.89628,-3.67949 10.83609,-7.46439 11.5453,-1.7805 z m 9.28664,40.30269 c 2.7144,0.7274 3.64329,1.93468 1.49869,9.15618 -2.2416,7.5481 -9.92273,13.21383 -20.85203,17.31123 -4.8105,1.8034 -9.0106,3.0146 -9.3336,2.6915 -0.9698,-0.9698 3.0225,-9.0038 8.3807,-16.8653 5.00491,-7.02137 12.50491,-14.34985 20.30624,-12.29361 z"
       id="path3617"
       inkscape:connector-curvature="0" />
  </g>
</svg>
