<?xml version="1.0" encoding="UTF-8" standalone="no"?>
<!-- Created with Inkscape (http://www.inkscape.org/) -->

<svg
   xmlns:dc="http://purl.org/dc/elements/1.1/"
   xmlns:cc="http://creativecommons.org/ns#"
   xmlns:rdf="http://www.w3.org/1999/02/22-rdf-syntax-ns#"
   xmlns:svg="http://www.w3.org/2000/svg"
   xmlns="http://www.w3.org/2000/svg"
   xmlns:sodipodi="http://sodipodi.sourceforge.net/DTD/sodipodi-0.dtd"
   xmlns:inkscape="http://www.inkscape.org/namespaces/inkscape"
   width="164.03769"
   height="190.69173"
   id="svg3237"
   version="1.1"
   inkscape:version="0.48.5 r10040"
   sodipodi:docname="bee.svg">
  <defs
     id="defs3239" />
  <sodipodi:namedview
     id="base"
     pagecolor="#ffffff"
     bordercolor="#666666"
     borderopacity="1.0"
     inkscape:pageopacity="0.0"
     inkscape:pageshadow="2"
     inkscape:zoom="0.98994949"
     inkscape:cx="384.67732"
     inkscape:cy="-59.697473"
     inkscape:document-units="px"
     inkscape:current-layer="layer1"
     showgrid="false"
     fit-margin-top="0"
     fit-margin-left="0"
     fit-margin-right="0"
     fit-margin-bottom="0"
     inkscape:window-width="1600"
     inkscape:window-height="837"
     inkscape:window-x="0"
     inkscape:window-y="27"
     inkscape:window-maximized="1" />
  <metadata
     id="metadata3242">
    <rdf:RDF>
      <cc:Work
         rdf:about="">
        <dc:format>image/svg+xml</dc:format>
        <dc:type
           rdf:resource="http://purl.org/dc/dcmitype/StillImage" />
        <dc:title />
      </cc:Work>
    </rdf:RDF>
  </metadata>
  <g
     inkscape:label="Layer 1"
     inkscape:groupmode="layer"
     id="layer1"
     transform="translate(-432.26687,-419.87346)">
    <path
       id="path3014"
       style="fill:#ffffff"
       d="m 532.71875,420.625 c -5.40558,-0.0977 -10.82582,1.55535 -14.6875,5.0625 -0.0101,0.0107 -0.0205,0.0211 -0.0312,0.0312 -15.19066,17.40436 -5.70621,53.47141 -1.15625,71.375 0.0321,0.10044 0.0429,0.20769 0.0312,0.3125 -0.14899,0.86431 -0.88076,1.44668 -1.625,1.6875 -9.82884,-0.67992 -22.13361,4.83904 -30.59375,2.87495 -0.33712,-0.0871 -0.58685,-0.43392 -0.5625,-0.78125 0.63097,-8.40503 -4.3962,-15.86752 -10.875,-20.9375 -0.0554,-0.0272 -0.0718,-0.0663 -0.125,-0.0937 -0.58128,-0.3001 -1.06867,-0.60134 -1.40625,-0.96875 -0.36845,-0.401 -0.57301,-0.9116 -0.59375,-1.40625 1.85334,-5.14826 8.91929,-6.92196 11.65625,-11.625 0.24985,-0.45425 0.36483,-0.87981 0.375,-1.15625 0.0102,-0.27644 -0.0305,-0.41038 -0.21875,-0.59375 -0.36826,-0.3587 -1.63509,-0.7641 -4,-0.65625 -1.02425,0.56214 -1.89964,0.96123 -2.59375,1.125 -0.75253,0.17756 -1.468,0.12799 -1.96875,-0.34375 -0.50075,-0.47174 -0.57047,-1.12562 -0.53125,-1.75 0.0392,-0.62438 0.18515,-1.29363 0.40625,-2.03125 0.44221,-1.47524 1.12732,-3.18246 1.65625,-4.75 0.52893,-1.56754 0.86029,-3.02733 0.75,-3.71875 -0.002,-0.0312 -0.002,-0.0625 0,-0.0937 -0.0784,-2.36451 -0.62712,-3.43224 -0.9375,-3.65625 -0.15519,-0.11201 -0.27283,-0.13173 -0.53125,-0.0625 -0.25842,0.0692 -0.60369,0.25559 -1,0.59375 -7.48139,8.3864 -6.31019,24.1358 -15.125,29.625 -7.96616,4.34629 -13.92845,11.78468 -19.75,18.875 -0.0101,0.0107 -0.0205,0.0211 -0.0312,0.0312 -5.88597,6.53777 -8.65819,16.72882 -3.6875,24.40625 0.01,0.0112 0.0215,0.0201 0.0312,0.0312 0.013,0.02 0.0181,0.0426 0.0312,0.0625 10.03721,11.03975 19.62654,4.9929 29.4062,6.40625 1.3156,0.24694 2.30205,1.0811 3,2.15625 1.38596,2.13498 1.80791,5.23635 2.03125,8.0625 0.002,0.0203 -0.002,0.0422 0,0.0625 2.73606,17.63046 10.95352,32.12843 25.125,45.3125 0.022,0.0196 0.0429,0.0405 0.0625,0.0625 10.95596,11.75887 35.87674,25.31715 58.28125,25.53125 0.0104,-2.2e-4 0.0208,-2.2e-4 0.0312,0 10.10073,0.2271 16.91422,-7.88595 24.34375,-14.0625 0.11623,-0.0903 0.25946,-0.1454 0.40625,-0.15625 1.80705,-0.15845 3.43784,0.85859 5,2.15625 1.56216,1.29766 3.1107,2.94488 4.59375,4.3125 1.48305,1.36762 2.93126,2.43604 4.15625,2.6875 1.12997,0.23195 2.14148,-0.17468 3.34375,-1.6875 -2.49744,-5.8027 -7.30059,-10.5783 -11.0625,-16.03125 -0.14981,-0.21581 -0.17452,-0.51237 -0.0625,-0.75 2.71957,-5.69191 5.88591,-11.14966 7.6875,-17.0625 0.002,-0.0102 -0.002,-0.0211 0,-0.0312 3.60517,-15.04116 -2.72483,-30.05902 -9.96875,-43.25 -0.0247,-0.0396 -0.0456,-0.0815 -0.0625,-0.125 -2.92705,-8.12657 -9.55421,-12.26932 -17.40625,-15.1875 -0.0366,-0.008 -0.0576,-0.0231 -0.0937,-0.0312 -1.76394,-0.39693 -3.0386,-0.98418 -3.875,-1.75 -0.85354,-0.78151 -1.21602,-1.855 -1,-2.84375 0.42468,-1.94376 2.50845,-3.46609 5.3125,-4.46875 0.0388,-0.0232 0.0861,-0.0393 0.125,-0.0625 5.59106,-3.34136 11.67623,-6.89664 16.625,-11.3125 7.59926,-7.80897 14.16067,-19.29132 7.5937,-29.46875 -9.35113,-11.06244 -26.78228,-3.69529 -36.25,3 -0.35211,0.2393 -0.90075,0.0982 -1.09375,-0.28125 -0.82187,-1.54202 -0.94753,-3.50001 -0.8125,-5.75 0.13503,-2.24999 0.56221,-4.78353 0.96875,-7.40625 0.81309,-5.24545 1.5435,-10.85168 0.1875,-14.96875 -0.014,-0.0407 -0.0244,-0.0825 -0.0312,-0.125 -1.65047,-9.25254 -10.46288,-14.24343 -19.46875,-14.40625 z m 2.6875,4.9375 c 0.0219,2.9e-4 0.0406,-4.1e-4 0.0625,0 4.87874,0.0908 8.17584,3.08279 9.8125,6.90625 1.63097,3.81017 1.76382,8.45214 0.625,12.3125 -0.009,0.0308 -0.022,0.063 -0.0312,0.0937 -2.76137,14.5114 -6.07484,29.2979 -12.4375,42.78125 -0.24676,0.52294 -1.15221,0.5024 -1.375,-0.0312 -0.92377,-2.29701 -1.05235,-5.50775 -1.03125,-8.9375 0.0211,-3.42975 0.21269,-7.0828 0.0312,-10 -0.39597,-10.64025 0.72895,-21.44617 -1.1875,-31.6875 -1.12557,1.97558 -1.67852,4.68011 -1.96875,7.65625 -0.36383,3.73091 -0.36276,7.77877 -0.96875,11.15625 -0.002,0.031 0.002,0.0627 0,0.0937 -0.70155,14.02429 -2.37028,28.23562 -0.0312,41.96875 l 0.28125,1.1875 c 0.1517,0.60126 -0.69545,1.15861 -1.18755,0.7813 -3.06242,-2.31409 -4.46317,-6.62038 -5.46875,-11.21875 -1.00558,-4.59837 -1.56719,-9.53681 -2.59375,-13.1875 -0.0114,-0.0203 -0.77941,-6.60719 -0.78881,-6.62849 -2.82435,-16.12333 -2.06475,-44.34969 18.25761,-43.24651 z m -58.65625,12.75 c -0.87878,0.0981 -1.41048,0.40176 -1.625,1 -0.21321,0.5946 -0.10296,1.72735 0.875,3.5 0.006,0.0109 -0.006,0.0203 0,0.0312 0.55799,0.90608 1.52901,1.63553 2.5625,1.9375 1.00761,0.29441 2.03247,0.19021 2.90625,-0.40625 0.84047,-0.92442 1.12472,-1.73116 1.09375,-2.40625 -0.0317,-0.68983 -0.3722,-1.32005 -0.96875,-1.90625 -1.1931,-1.1724 -3.38117,-1.9133 -4.84375,-1.75 z m 12.28125,20.34375 c -1.5307,-0.16487 -3.04927,0.4502 -3.625,1.375 -0.28786,0.4624 -0.38468,0.99002 -0.1875,1.71875 0.19718,0.72873 0.73478,1.66696 1.8125,2.71875 0.0339,0.0284 0.0653,0.0598 0.0937,0.0937 1.00794,1.39621 2.19967,1.57002 3.34375,1.125 1.12536,-0.43774 2.09966,-1.59967 2.3125,-3.0625 -0.24116,-2.67279 -1.9372,-3.7735 -3.75,-3.96875 z m 86.6875,1.65625 c 1.95505,-0.17052 3.84848,0.0753 5.5,0.96875 1.65152,0.89346 3.01102,2.4369 3.9375,4.6875 0.0289,0.0594 0.05,0.12262 0.0625,0.1875 0.73713,5.6667 -1.48977,10.43927 -4.875,14.375 -3.38523,3.93573 -7.93531,7.08932 -11.96875,9.6875 -0.0101,0.0107 -0.0205,0.0211 -0.0312,0.0312 -6.94249,3.95805 -13.5578,8.74895 -21.15625,11.84375 -0.0101,0.0107 -0.0205,0.0211 -0.0312,0.0312 -1.70995,0.6159 -2.94873,1.00782 -3.875,1.21875 -0.46314,0.10547 -0.85214,0.14273 -1.1875,0.15625 -0.33536,0.0135 -0.66122,0.0279 -1,-0.1875 -0.33878,-0.21545 -0.49614,-0.76421 -0.4375,-1.09375 0.0586,-0.32954 0.20816,-0.53822 0.375,-0.78125 0.33368,-0.48606 0.80011,-1.00093 1.40625,-1.59375 1.21228,-1.18564 2.87288,-2.65013 4.3125,-4.0625 1.43962,-1.41237 2.64335,-2.84305 2.9375,-3.65625 0.0223,-0.0665 0.0539,-0.12977 0.0937,-0.1875 4.15585,-6.06427 10.54869,-12.55387 12.625,-18.71875 -7.10338,5.03246 -12.44729,12.52717 -19.71875,17.9375 -0.52961,0.36882 -1.3726,-0.31025 -1.125,-0.90625 3.609,-8.01854 8.8464,-15.80887 15.8125,-21.4375 0.0203,-0.0114 0.0412,-0.0218 0.0625,-0.0312 4.26498,-2.87687 11.7654,-7.90044 18.28125,-8.46875 z M 463.5625,486.75 c 2.82274,-0.36978 5.64061,0.11116 8.15625,1.71875 2.51564,1.60759 4.6992,4.32884 6.40625,8.34375 0.0289,0.0594 0.05,0.12262 0.0625,0.1875 0.74431,5.10384 -0.91692,9.73376 -3.65625,13.71875 -2.73933,3.98499 -6.57057,7.33741 -10.21875,10.03125 -0.048,0.0374 -0.10063,0.0689 -0.15625,0.0937 -13.93428,4.79072 -31.63425,2.26878 -22.125,-16.28125 4.35215,-8.32472 13.06081,-16.70288 21.53125,-17.8125 z m -2.375,7.3125 c -2.15632,0.30908 -4.52365,2.008 -5.46875,4.0625 -0.47255,1.02725 -0.61702,2.09388 -0.28125,3.21875 0.33425,1.11977 1.15643,2.31913 2.75,3.46875 0.009,0.005 0.0226,-0.005 0.0312,0 3.59417,2.22158 8.20983,-0.56817 7.8125,-4.8125 -8.7e-4,-0.0208 -8.7e-4,-0.0417 0,-0.0625 0.0235,-2.55684 -0.62679,-4.08477 -1.5,-4.9375 -0.87321,-0.85273 -2.04966,-1.12299 -3.34375,-0.9375 z m 36.09375,13.3125 c 0.68219,-0.15199 1.22631,-0.20339 1.75,0 0.38781,0.15062 0.71195,0.53977 0.78125,0.9375 0.0693,0.39773 -0.0278,0.73215 -0.15625,1.0625 -0.25692,0.66069 -0.70969,1.33846 -1.28125,2.0625 -1.13395,1.43646 -2.6864,2.99629 -3.75,3.96875 -0.009,0.008 -0.0227,0.0235 -0.0312,0.0312 -1.39604,1.43481 -2.73559,2.92675 -4.03125,4.46875 -0.009,0.0213 -0.0198,0.0422 -0.0312,0.0625 -5.51943,5.72918 -8.79662,13.64442 -14.65625,19.4375 -0.36555,0.36356 -1.09855,0.18032 -1.25,-0.3125 -1.34228,-4.51538 -1.64913,-9.17019 -2.34375,-13.65625 -0.0352,-0.2222 0.0358,-0.45885 0.1875,-0.625 5.94373,-6.91746 12.38804,-15.30342 22.4375,-16.625 0.95129,-0.38492 1.7426,-0.6716 2.375,-0.8125 z m 36.4375,2.0625 c 2.72183,0.004 5.86583,0.18577 8.25,0.84375 1.19208,0.32899 2.20607,0.74714 2.90625,1.46875 0.70018,0.72161 0.9407,1.87971 0.46875,2.9375 -0.0533,0.12407 -0.14065,0.23329 -0.25,0.3125 -11.42004,7.7852 -21.26447,17.78915 -29.78125,28.6875 -0.0125,0.0193 -0.0187,0.0432 -0.0312,0.0625 -6.60846,10.17474 -13.48048,20.78183 -15.75,32.65625 -0.0101,0.0107 -0.0205,0.0211 -0.0312,0.0312 l -0.25,1.0625 c -0.10902,0.42035 -0.6337,0.67474 -1.03125,0.5 -5.61574,-2.64187 -10.83259,-10.36136 -13.75,-16.15625 -0.0701,-0.14423 -0.0923,-0.3112 -0.0625,-0.46875 1.93866,-10.76796 9.42643,-19.18773 14.4375,-28.1875 0.0101,-0.0107 0.0205,-0.0211 0.0312,-0.0312 6.91925,-10.64371 16.82264,-21.70423 30.34375,-23.53125 0.0104,-2.2e-4 0.0208,-2.2e-4 0.0312,0 1.0643,-0.1069 2.65347,-0.19 4.46875,-0.1875 z M 571.5,523.15625 c 0.97675,-0.12602 1.97664,0.0135 2.84375,0.59375 0.0104,-2.2e-4 0.0208,-2.2e-4 0.0312,0 2.05023,1.40342 3.27138,2.8628 3.8125,4.375 0.54112,1.5122 0.33422,3.03461 -0.375,4.375 -1.39485,2.6362 -4.53091,4.72322 -7.84375,6.28125 -7.59969,7.97303 -14.49285,16.78499 -19.90625,26.40625 -0.0101,0.0107 -0.0205,0.0211 -0.0312,0.0312 -6.08906,9.78254 -9.84054,20.70711 -13.875,31.53125 -0.0606,0.17088 -0.18526,0.31819 -0.34375,0.40625 -2.37343,1.34683 -6.25307,1.0127 -9.78125,-0.15625 -1.76409,-0.58448 -3.42598,-1.39147 -4.75,-2.4375 -1.32402,-1.04603 -2.33347,-2.34424 -2.59375,-3.875 -0.0176,-0.0926 -0.0176,-0.18861 0,-0.28125 2.08574,-10.62456 6.08864,-20.88898 11.125,-30.4375 -2.2e-4,-0.0104 -2.2e-4,-0.0208 0,-0.0312 8.07391,-13.49372 17.63611,-28.33274 33.46875,-33.9375 0.0608,-0.0183 0.12402,-0.0288 0.1875,-0.0312 1.02266,-0.0916 2.36167,-0.67892 3.75,-1.3125 1.38833,-0.63358 2.82551,-1.31218 4.28125,-1.5 z m 15.125,26.875 c 0.27573,0.0479 0.51559,0.26252 0.59375,0.53125 3.16601,9.7709 -0.62079,20.83628 -6.9375,28.40625 -0.0508,0.0729 -0.11459,0.13672 -0.1875,0.1875 -3.63838,2.0392 -5.22167,5.70401 -7.03125,9.5 -1.78306,3.74036 -3.85765,7.59267 -8.46875,9.5625 -0.0686,0.0293 -0.11778,0.0653 -0.1875,0.0937 -1.10965,0.80006 -3.81341,2.26346 -6.375,2.96875 -1.32539,0.36492 -2.56936,0.5783 -3.625,0.0625 -0.52782,-0.2579 -0.98438,-0.7773 -1.125,-1.40625 -0.14062,-0.62895 -0.0462,-1.32497 0.21875,-2.15625 -2.2e-4,-0.0104 -2.2e-4,-0.0208 0,-0.0312 4.20678,-11.41244 9.91455,-22.32011 16.3125,-32.625 0.0185,-0.0327 0.0394,-0.0641 0.0625,-0.0937 2.1466,-2.40396 4.52904,-6.3666 7.21875,-9.625 1.34486,-1.6292 2.77366,-3.08329 4.34375,-4.09375 1.57009,-1.01046 3.3328,-1.57962 5.1875,-1.28125 z"
       inkscape:connector-curvature="0"
       sodipodi:nodetypes="ccccccccccscccccsscssccccccccccccsccccccccssscccccccccssccccccssccccccsccccsccscccccscccccsccsccscccssccsccccsccsccccscccsssccccccccccsccsccccccssccccscccsscsccccccccccccssccccccccccccccccccsscccccssccccccsccccccsccsssccccsscc" />
  </g>
</svg>
