<?xml version="1.0" encoding="UTF-8" standalone="no"?>
<!-- Created with Inkscape (http://www.inkscape.org/) -->

<svg
   xmlns:dc="http://purl.org/dc/elements/1.1/"
   xmlns:cc="http://creativecommons.org/ns#"
   xmlns:rdf="http://www.w3.org/1999/02/22-rdf-syntax-ns#"
   xmlns:svg="http://www.w3.org/2000/svg"
   xmlns="http://www.w3.org/2000/svg"
   xmlns:sodipodi="http://sodipodi.sourceforge.net/DTD/sodipodi-0.dtd"
   xmlns:inkscape="http://www.inkscape.org/namespaces/inkscape"
   width="593.30847"
   height="678.5119"
   id="svg3017"
   version="1.1"
   inkscape:version="0.48.5 r10040"
   sodipodi:docname="New document 3">
  <defs
     id="defs3019" />
  <sodipodi:namedview
     id="base"
     pagecolor="#ffffff"
     bordercolor="#666666"
     borderopacity="1.0"
     inkscape:pageopacity="0.0"
     inkscape:pageshadow="2"
     inkscape:zoom="0.35"
     inkscape:cx="296.65424"
     inkscape:cy="339.25596"
     inkscape:document-units="px"
     inkscape:current-layer="layer1"
     showgrid="false"
     showborder="true"
     fit-margin-top="0"
     fit-margin-left="0"
     fit-margin-right="0"
     fit-margin-bottom="0"
     inkscape:window-width="1920"
     inkscape:window-height="1137"
     inkscape:window-x="1600"
     inkscape:window-y="27"
     inkscape:window-maximized="1" />
  <metadata
     id="metadata3022">
    <rdf:RDF>
      <cc:Work
         rdf:about="">
        <dc:format>image/svg+xml</dc:format>
        <dc:type
           rdf:resource="http://purl.org/dc/dcmitype/StillImage" />
        <dc:title></dc:title>
      </cc:Work>
    </rdf:RDF>
  </metadata>
  <g
     inkscape:label="Layer 1"
     inkscape:groupmode="layer"
     id="layer1"
     transform="translate(-78.345764,-193.10622)">
    <path
       sodipodi:nodetypes="cccccccccc"
       inkscape:connector-curvature="0"
       id="path2986"
       d="m 305.36197,494.55586 c 33.2875,-22.01032 80.6294,-3.0085 90.9022,35.30436 17.6015,38.9633 -30.8709,83.80537 -68.5237,62.36843 -50.9928,-31.20333 -41.6158,-79.28406 -22.3785,-97.67279 z m 51.5472,95.47847 c 48.0124,-9.56455 42.2395,-78.00373 2.1996,-93.9317 -87.1767,-27.88033 -74.2254,94.45297 -2.1996,93.9317 z m 5.3625,-21.25158 c 9.4411,-13.21255 17.524,-37.41503 8.2537,-47.61174 26.4112,2.39553 7.6545,56.12142 -8.2537,47.61174 z"
       style="fill:#ffffff" />
    <path
       sodipodi:nodetypes="cccccccccc"
       inkscape:connector-curvature="0"
       id="path2988"
       d="m 506.54727,681.77561 c -35.021,7.51601 -76.9682,-25.01208 -52.3203,-69.47052 15.8875,-33.37099 69.7791,-32.8893 81.812,2.84796 9.38,21.07763 1.7009,61.57899 -29.4917,66.62256 z m 21.4565,-27.36857 c 21.7239,-38.07915 -29.7762,-82.19385 -60.2314,-46.92879 -47.0687,61.31935 45.5514,87.76059 60.2314,46.92879 z m -26.9052,0.43981 c -2.8804,-9.54368 19.7479,-33.56685 2.1364,-48.44608 19.2952,3.01913 19.9266,49.13347 -2.1364,48.44608 z"
       style="fill:#ffffff" />
    <path
       style="fill:#ffffff"
       d="m 482.78897,838.67959 c -36.6989,-30.29491 -0.7498,-95.10016 43.6806,-84.17141 41.6389,8.99466 44.6984,71.36004 5.8932,86.12532 -15.2523,5.911 -35.3843,7.5149 -49.5738,-1.95391 z m 12.9495,-0.82467 c 23.574,7.40156 74.2684,-17.5926 54.6727,-56.72603 -21.9202,-44.34433 -92.0699,-6.10288 -74.0979,36.2102 3.1616,9.10174 9.5226,18.11682 19.4252,20.51583 z m 16.7459,-23.55587 c 19.8061,-2.99697 28.1144,-33.99559 22.8728,-46.96102 20.2521,10.69067 -4.6444,67.53382 -22.8728,46.96102 z"
       id="path2990"
       inkscape:connector-curvature="0"
       sodipodi:nodetypes="ccccccccccc" />
    <path
       sodipodi:nodetypes="ccccccccccc"
       inkscape:connector-curvature="0"
       id="path2992"
       d="m 106.63776,332.46287 c -53.550786,-25.03185 -22.845706,-111.81075 23.9859,-128.77171 39.054,-18.30071 91.11401,-15.87538 113.23911,31.35088 32.0877,98.60445 -68.89281,133.13286 -137.22501,97.42083 z m 26.991,4.58282 c 42.294,10.32586 100.80921,-5.72302 108.22491,-55.17249 15.4362,-46.64204 -34.2412,-92.52538 -79.78611,-79.97007 -85.300686,11.58876 -102.654416,123.94925 -28.4388,135.14256 z m 51.08271,-18.23078 c 14.9369,-11.91743 44.3631,-49.80212 12.3881,-70.86864 38.8446,-3.89081 32.7941,72.57523 -12.3881,70.86864 z"
       style="fill:#ffffff" />
    <path
       style="fill:#ffffff"
       d="m 156.35006,426.81291 c -20.6623,-44.06148 77.03341,-46.51697 59.70391,-0.45431 -10.9888,31.86558 -43.81511,21.66427 -59.70391,0.45431 z m 16.9259,6.95424 c 36.53161,25.33904 53.46791,-46.08302 7.14011,-34.24646 -24.16481,1.92147 -31.80011,22.62938 -7.14011,34.24646 z m 10.65291,-4.95432 c 15.6194,-7.58765 2.1662,-44.1633 17.2917,-12.21158 2.2524,6.81301 -14.3974,26.82496 -17.2917,12.21158 z"
       id="path2994"
       inkscape:connector-curvature="0"
       sodipodi:nodetypes="ccccccccc" />
    <path
       sodipodi:nodetypes="ccccccccccccc"
       inkscape:connector-curvature="0"
       id="path2996"
       d="m 417.89527,415.50016 c -41.8084,1.62813 -78.7835,-41.42871 -63.3995,-81.87986 7.9109,-30.28045 82.0274,-56.41026 121.3981,-29.7039 35.8728,31.94826 19.8859,104.71864 -30.7755,110.74208 -8.9151,2.43257 -18.1537,1.51279 -27.2231,0.84168 z m 27.7865,-7.48928 c 53.442,-5.92967 59.6944,-99.87063 5.0996,-108.11999 -36.1541,-4.55815 -93.2191,12.41215 -94.8584,54.62048 1.4735,43.07352 47.2067,58.30149 83.3437,54.76163 z m -5.8866,-13.12052 c 6.2832,-13.01669 30.3469,-31.57498 28.0107,-54.08953 7.1907,18.23059 -2.8315,55.25816 -28.0107,54.08953 z"
       style="fill:#ffffff" />
    <path
       sodipodi:nodetypes="cccccc"
       inkscape:connector-curvature="0"
       id="path2998"
       d="m 650.01057,871.38631 c -46.1681,-19.70746 46.0676,-43.16947 15.1673,-3.57623 -4.453,2.81279 -9.8798,4.43968 -15.1673,3.57623 z m 6.9029,-7.09468 c 8.0968,-8.8609 -9.7773,-22.93311 -14.7248,-3.19041 4.3655,2.23171 9.831,7.39896 14.7248,3.19041 z"
       style="fill:#ffffff" />
  </g>
</svg>
