<?xml version="1.0" encoding="UTF-8" standalone="no"?>
<!-- Created with Inkscape (http://www.inkscape.org/) -->

<svg
   xmlns:dc="http://purl.org/dc/elements/1.1/"
   xmlns:cc="http://creativecommons.org/ns#"
   xmlns:rdf="http://www.w3.org/1999/02/22-rdf-syntax-ns#"
   xmlns:svg="http://www.w3.org/2000/svg"
   xmlns="http://www.w3.org/2000/svg"
   xmlns:sodipodi="http://sodipodi.sourceforge.net/DTD/sodipodi-0.dtd"
   xmlns:inkscape="http://www.inkscape.org/namespaces/inkscape"
   width="180.81487"
   height="157.93492"
   id="svg3417"
   version="1.1"
   inkscape:version="0.48.5 r10040"
   sodipodi:docname="crab.svg">
  <defs
     id="defs3419" />
  <sodipodi:namedview
     id="base"
     pagecolor="#ffffff"
     bordercolor="#666666"
     borderopacity="1.0"
     inkscape:pageopacity="0.0"
     inkscape:pageshadow="2"
     inkscape:zoom="0.98994949"
     inkscape:cx="104.68198"
     inkscape:cy="96.441956"
     inkscape:document-units="px"
     inkscape:current-layer="layer1"
     showgrid="false"
     fit-margin-top="0"
     fit-margin-left="0"
     fit-margin-right="0"
     fit-margin-bottom="0"
     inkscape:window-width="1600"
     inkscape:window-height="837"
     inkscape:window-x="0"
     inkscape:window-y="27"
     inkscape:window-maximized="1" />
  <metadata
     id="metadata3422">
    <rdf:RDF>
      <cc:Work
         rdf:about="">
        <dc:format>image/svg+xml</dc:format>
        <dc:type
           rdf:resource="http://purl.org/dc/dcmitype/StillImage" />
        <dc:title />
      </cc:Work>
    </rdf:RDF>
  </metadata>
  <g
     inkscape:label="Layer 1"
     inkscape:groupmode="layer"
     id="layer1"
     transform="translate(-284.59257,-453.39472)">
    <path
       sodipodi:type="inkscape:offset"
       inkscape:radius="-0.65525782"
       inkscape:original="M 344.375 453.4375 C 342.54801 453.673 340.5678 454.95635 338.28125 457.3125 C 333.72175 462.0107 331.621 468.3995 332.5 474.8125 C 332.994 478.4164 332.6168 480.20115 330.5 484.28125 C 328.0614 488.98165 327.96795 489.59955 329.15625 493.84375 C 329.85545 496.34125 330.84285 498.6279 331.34375 498.9375 C 331.84475 499.2471 331.94275 501.4221 331.59375 503.75 C 330.84475 508.7444 332.38195 515.12965 334.96875 517.90625 C 337.69615 520.83375 336.6882 522.6601 333.3125 520.9375 C 331.8431 520.1877 327.28125 518.81845 323.15625 517.90625 C 312.70095 515.59425 306.9024 513.62815 297.6875 509.21875 C 290.5079 505.78325 289.5708 505.54115 288.0625 506.90625 C 283.6584 510.89185 283.3648 530.05995 287.6875 531.71875 C 289.1232 532.26975 289.6439 530.39605 290.6875 521.21875 C 291.0375 518.14075 291.6403 515.17515 292 514.59375 C 292.415 513.92315 295.94595 515.13205 301.65625 517.90625 C 306.60625 520.31105 312.11875 522.55305 313.90625 522.90625 C 321.26695 524.36085 316.00055 525.40005 299.90625 525.65625 C 293.29495 525.76155 292.15625 526.0345 292.15625 527.5 C 292.15625 528.4449 292.60625 529.50385 293.15625 529.84375 C 293.70625 530.18365 294.15625 532.0531 294.15625 534 C 294.15625 537.7782 296.76925 544.34375 298.28125 544.34375 C 299.57315 544.34375 301.7642 538.17375 302.0625 533.71875 C 302.1121 532.97715 305.80745 532.625 313.15625 532.625 C 319.20625 532.625 324.15625 532.6967 324.15625 532.8125 C 324.15625 534.3112 296.1223 548.34375 293.125 548.34375 C 289.8769 548.34375 287.9354 552.9057 288.5625 559.0625 C 289.1715 565.0418 290.92555 568.61475 294.15625 570.34375 C 297.59465 572.18395 298.25215 570.7052 297.53125 562.75 L 296.875 555.3125 L 299.8125 554.3125 C 302.9211 553.2288 303.20155 553.08265 319.59375 544.09375 C 325.36085 540.93125 330.2183 538.34375 330.375 538.34375 C 330.5317 538.34475 330.74055 542.05725 330.84375 546.59375 C 331.15905 560.44565 334.6797 567.2083 345.4375 574.5625 C 361.8515 585.7832 372.11445 589.54055 386.65625 589.71875 C 393.76805 589.80595 395.17475 589.50315 399.40625 586.96875 C 402.02415 585.40085 406.63915 581.35085 409.65625 577.96875 C 415.97635 570.88415 416.30135 571.4181 413.21875 583.9375 C 412.15065 588.2756 410.943 594.6648 410.5625 598.125 L 409.875 604.40625 L 405.53125 603.75 C 399.37545 602.8269 396.15625 603.83665 396.15625 606.65625 C 396.15625 607.91075 396.68375 609.465 397.34375 610.125 C 398.00375 610.785 400.5175 611.34375 402.9375 611.34375 C 406.586 611.34375 407.90745 610.7488 410.65625 608 C 413.98475 604.6714 414.3789 603.67345 420.3125 582.34375 C 421.46 578.21875 422.56825 574.21815 422.78125 573.46875 C 423.30995 571.60835 425.19125 573.2595 427.34375 577.5 C 429.89365 582.5233 434.15675 592.27835 434.15625 593.09375 C 434.15595 593.48995 431.87425 595.793 429.09375 598.1875 C 425.46525 601.3123 424.12415 603.147 424.34375 604.6875 C 424.81525 607.9955 428.23895 607.7872 433.71875 604.125 L 438.65625 600.84375 L 438.9375 594.625 C 439.1589 589.9893 438.59505 586.55155 436.71875 581.15625 C 435.33525 577.17795 434.38595 573.7703 434.59375 573.5625 C 434.80165 573.3547 438.59225 575.1208 443.03125 577.5 C 447.47025 579.8792 452.90285 582.74375 455.09375 583.84375 C 457.28475 584.94375 459.105 586.14295 459.125 586.53125 C 459.1449 586.91955 457.80625 589.54535 456.15625 592.34375 C 452.63495 598.31605 452.46565 599.34375 455.09375 599.34375 C 460.76225 599.34375 465.64405 593.99465 465.40625 588.03125 C 465.28105 584.89185 464.501 583.47815 461.4375 580.71875 C 456.4489 576.22555 445.3206 568.5957 436.9375 563.9375 L 430.21875 560.1875 L 433.84375 557.03125 C 438.17135 553.23155 441.095 547.23655 441.125 542.09375 C 441.1423 539.13775 441.52965 538.34375 442.96875 538.34375 C 446.40815 538.34375 449.48125 533.7917 449.40625 528.8125 C 449.36175 525.8713 449.7484 524.38035 450.5 524.53125 C 452.7552 524.98425 456.32135 522.12575 457.71875 518.78125 C 459.53235 514.44005 459.5589 506.00795 457.75 502.53125 C 455.4493 498.10945 451.5825 495.04095 449.25 495.78125 C 447.3887 496.37205 445.17225 501.44245 445.15625 505.09375 C 445.15315 505.78125 444.70625 506.34375 444.15625 506.34375 C 443.60625 506.34375 443.15625 505.9807 443.15625 505.5625 C 443.15625 504.2553 434.9702 496.34375 433.625 496.34375 C 431.8516 496.34375 427.15625 508.5386 427.15625 513.125 C 427.15625 515.1968 427.88635 517.94125 428.78125 519.21875 C 430.19695 521.23995 430.23605 522.0388 429.09375 525.5 C 428.10205 528.5047 428.03885 530.45325 428.84375 533.46875 L 429.90625 537.46875 L 424.65625 540.03125 L 419.40625 542.625 L 413.03125 536.15625 C 409.52095 532.60685 403.5649 528.0162 399.8125 525.9375 L 393 522.15625 L 399.0625 515.8125 C 402.5319 512.1996 405.15625 508.59825 405.15625 507.40625 C 405.15625 505.22545 406.59385 504.62475 407.65625 506.34375 C 408.51055 507.72605 412.4819 507.5806 413.9375 506.125 C 416.9489 503.1136 414.1609 495.34375 410.0625 495.34375 C 407.8532 495.34375 405.15625 499.01535 405.15625 502.03125 C 405.15625 503.53875 404.6836 504.07695 403.75 503.71875 C 402.2529 503.14415 397.14285 507.14515 390.46875 514.09375 C 388.17915 516.47755 386.10985 518.0624 385.84375 517.625 C 385.57765 517.1875 385.04355 513.24375 384.65625 508.84375 C 384.26895 504.44375 383.3443 499.59025 382.625 498.09375 C 381.869 496.52135 381.54045 493.73035 381.84375 491.46875 C 382.25965 488.36815 381.9267 487.1142 380.25 485.4375 C 376.4396 481.6271 371.90625 483.5069 371.90625 488.875 C 371.90625 491.9056 374.76215 495.34375 377.28125 495.34375 C 378.70905 495.34375 378.89985 495.7652 378.28125 497.4375 C 377.56035 499.3864 378.3294 508.48465 379.6875 514.21875 C 380.187 516.32785 379.9771 516.5066 377.9375 515.875 C 367.5936 512.6721 352.7104 512.3524 345.25 515.1875 C 342.277 516.3173 339.4645 517.00585 339 516.71875 C 338.5355 516.43165 338.15625 513.5837 338.15625 510.375 C 338.15625 505.8477 338.5166 504.40355 339.8125 503.90625 C 342.1756 502.99935 342.9524 504.8498 342.125 509.375 C 341.3365 513.6868 341.62115 514.34375 344.28125 514.34375 C 347.43145 514.34375 349.2734 510.08465 349.125 503.15625 C 349.0503 499.67065 349.3035 494.03125 349.6875 490.59375 L 350.375 484.34375 L 353.90625 484.34375 C 356.78635 484.34375 358.31015 483.43975 362.28125 479.46875 C 366.46675 475.28315 367.15625 474.0615 367.15625 470.625 C 367.15625 466.4326 365.43005 464.11145 361.46875 462.90625 C 360.27745 462.54385 359.0369 462.71595 358.6875 463.28125 C 357.6358 464.98295 349.0531 470.5531 348.4375 469.9375 C 348.1228 469.6227 348.29585 468.79455 348.84375 468.09375 C 349.39155 467.39295 350.3064 464.91775 350.875 462.59375 C 351.8092 458.77575 351.70775 458.12485 349.59375 455.84375 C 347.88715 454.0023 346.20199 453.202 344.375 453.4375 z M 341.375 464.34375 C 341.5556 464.34375 341.7025 467.94405 341.6875 472.34375 C 341.6724 476.74345 341.39625 480.34345 341.09375 480.34375 C 339.56755 480.34525 338.15625 477.56055 338.15625 474.59375 C 338.15625 471.68675 340.4615 464.34375 341.375 464.34375 z M 347.09375 476.96875 C 347.7216 476.65344 348.6583 476.6655 349.9375 477 C 351.7645 477.4778 351.8778 477.7471 350.6875 478.9375 C 348.8702 480.755 346.15625 480.7116 346.15625 478.875 C 346.15625 477.89825 346.4659 477.28406 347.09375 476.96875 z M 334.96875 485.9375 C 335.42585 485.655 337.45085 486.17915 339.46875 487.09375 C 342.38225 488.41435 343.15625 489.31675 343.15625 491.46875 C 343.15625 492.95915 342.86515 494.88 342.53125 495.75 C 341.85825 497.5038 337.6107 497.9074 336.625 496.3125 C 336.2796 495.7535 335.5745 495.5586 335.0625 495.875 C 334.5354 496.2008 334.15625 494.2688 334.15625 491.4375 C 334.15625 488.6875 334.51165 486.22 334.96875 485.9375 z M 434.15625 509.09375 L 438.25 513.21875 C 440.5147 515.48345 443.1879 517.34375 444.1875 517.34375 C 445.1871 517.34375 447.29565 515.53195 448.84375 513.34375 C 450.39195 511.15545 451.99375 509.35575 452.40625 509.34375 C 453.59135 509.30995 453.2832 513.1066 451.8125 516.625 C 449.8684 521.276 448.19185 522.2932 445.15625 520.6875 C 443.78125 519.9602 441.0036 519.35375 439 519.34375 C 434.9424 519.32735 434.15625 518.2177 434.15625 512.625 L 434.15625 509.09375 z M 354.46875 520.46875 C 365.07045 519.86965 376.81425 522.65725 388.65625 528.53125 C 400.05935 534.18755 404.00315 536.9248 409.65625 543.1875 C 414.90705 549.0044 417.3931 553.2235 416.6875 555.0625 C 415.2187 558.8901 406.30625 570.8871 402.34375 574.375 C 399.91425 576.5135 395.489 579.16285 392.5 580.28125 C 389.5109 581.39955 386.51065 582.291 385.84375 582.25 C 383.52595 582.1067 365.62885 575.6734 361.15625 573.375 C 355.02695 570.2251 348.31775 565.6723 344.40625 562 C 335.12645 553.2877 334.7573 532.82025 343.75 524.34375 C 347.1031 521.18315 348.09495 520.82885 354.46875 520.46875 z M 440.78125 525.84375 C 442.5229 526.38969 443.35265 528.6712 442.8125 532 C 442.236 535.5526 440.15625 539.10465 440.15625 536.53125 C 440.15625 535.87125 439.0626 535.34375 437.75 535.34375 C 435.8562 535.34375 435.2913 534.69215 434.9375 532.28125 C 434.4352 528.85875 435.6449 526.82435 438.75 525.90625 C 439.51767 525.67925 440.2007 525.66177 440.78125 525.84375 z M 433.8125 541.9375 C 434.1861 541.8427 434.52675 542.08605 435 542.65625 C 435.8849 543.72255 435.47865 544.9429 433.21875 548.0625 C 431.61825 550.272 428.91995 553.06995 427.21875 554.28125 C 423.88295 556.65655 423.79035 556.5593 422.78125 550.6875 C 422.26355 547.6751 422.4106 547.4987 426.625 546.4375 C 429.0433 545.8285 431.6587 544.4245 432.4375 543.3125 C 433.02555 542.473 433.4389 542.0323 433.8125 541.9375 z "
       style="fill:#ffffff"
       id="path2989"
       d="m 344.46875,454.09375 c -1.58717,0.20459 -3.48106,1.3817 -5.71875,3.6875 -4.4228,4.55734 -6.44573,10.72167 -5.59375,16.9375 0.50405,3.6772 0.0756,5.75381 -2.0625,9.875 -1.21547,2.34282 -1.81005,3.59461 -1.96875,4.71875 -0.1587,1.12414 0.0655,2.23389 0.65625,4.34375 0.34201,1.22163 0.77405,2.39278 1.15625,3.28125 0.1911,0.44423 0.37831,0.83265 0.53125,1.09375 0.15294,0.2611 0.31848,0.40539 0.21875,0.34375 0.40899,0.25274 0.50158,0.58489 0.59375,0.9375 0.0922,0.35261 0.13303,0.78368 0.15625,1.25 0.0464,0.93264 -0.007,2.07881 -0.1875,3.28125 -0.35867,2.39168 -0.18969,5.1642 0.40625,7.65625 0.59594,2.49205 1.61449,4.71638 2.78125,5.96875 0.71873,0.77147 1.22034,1.46699 1.5,2.125 0.27966,0.65801 0.37285,1.30913 0.0625,1.875 -0.31035,0.56587 -0.98463,0.81349 -1.65625,0.78125 -0.67162,-0.0322 -1.44631,-0.26079 -2.34375,-0.71875 -0.634,-0.32352 -2.14547,-0.86112 -3.96875,-1.40625 -1.82328,-0.54513 -3.98652,-1.14158 -6.03125,-1.59375 -10.4819,-2.31788 -16.35072,-4.29589 -25.59375,-8.71875 -3.58519,-1.71555 -5.62246,-2.61842 -6.8125,-2.90625 -0.59502,-0.14391 -0.94388,-0.13959 -1.21875,-0.0625 -0.27487,0.0771 -0.5301,0.25034 -0.875,0.5625 -0.90996,0.82349 -1.74837,2.64778 -2.3125,4.96875 -0.56413,2.32097 -0.89637,5.10686 -0.9375,7.8125 -0.0411,2.70564 0.19576,5.33219 0.6875,7.34375 0.49174,2.01156 1.31573,3.29992 2,3.5625 0.23057,0.0885 0.1559,0.11638 0.25,0.0312 0.0941,-0.0851 0.32533,-0.46378 0.53125,-1.1875 0.41184,-1.44744 0.79152,-4.19978 1.3125,-8.78125 0.1771,-1.55749 0.41248,-3.09184 0.65625,-4.3125 0.12189,-0.61033 0.25611,-1.13171 0.375,-1.5625 0.11889,-0.43079 0.19703,-0.74358 0.375,-1.03125 0.18446,-0.29806 0.49797,-0.42481 0.75,-0.46875 0.25203,-0.0439 0.5023,-0.0364 0.78125,0 0.55789,0.0727 1.24671,0.27208 2.09375,0.5625 1.69408,0.58084 4.00575,1.5748 6.875,2.96875 2.461,1.1956 5.07582,2.35082 7.28125,3.25 2.20543,0.89918 4.05174,1.53718 4.8125,1.6875 0.93466,0.1847 1.68213,0.38202 2.25,0.5625 0.56787,0.18048 0.94717,0.30363 1.28125,0.65625 0.16704,0.17631 0.31817,0.55088 0.21875,0.875 -0.0994,0.32412 -0.31255,0.45231 -0.5,0.5625 -0.3749,0.22037 -0.80431,0.34422 -1.4375,0.46875 -2.53277,0.49813 -7.87739,0.80919 -15.9375,0.9375 -3.29723,0.0525 -5.20918,0.17328 -6.1875,0.40625 -0.48916,0.11649 -0.70374,0.25766 -0.78125,0.34375 -0.0775,0.0861 -0.125,0.15598 -0.125,0.4375 0,0.36843 0.10316,0.81166 0.25,1.15625 0.14684,0.34459 0.35338,0.57302 0.4375,0.625 0.33201,0.20518 0.47775,0.50024 0.625,0.8125 0.14725,0.31226 0.27687,0.65469 0.375,1.0625 0.19627,0.81562 0.3125,1.81982 0.3125,2.84375 0,1.73804 0.62015,4.29258 1.4375,6.34375 0.40867,1.02558 0.8656,1.94977 1.28125,2.5625 0.20783,0.30637 0.41258,0.52661 0.5625,0.65625 0.14992,0.12964 0.23561,0.125 0.1875,0.125 -0.0993,0 -0.0572,0.0216 0.0625,-0.0937 0.1197,-0.11533 0.29153,-0.33183 0.46875,-0.625 0.35444,-0.58634 0.7617,-1.47835 1.125,-2.5 0.72659,-2.04329 1.3254,-4.64033 1.46875,-6.78125 0.0242,-0.36125 0.25649,-0.63885 0.46875,-0.78125 0.21226,-0.1424 0.44728,-0.2329 0.71875,-0.3125 0.54293,-0.1592 1.27324,-0.25131 2.21875,-0.34375 1.89101,-0.18488 4.65888,-0.28125 8.34375,-0.28125 3.02759,0 5.78164,0.03 7.78125,0.0625 0.99981,0.0163 1.80591,0.0391 2.375,0.0625 0.28454,0.0117 0.52,0.0164 0.6875,0.0312 0.0838,0.007 0.14204,0.0172 0.21875,0.0312 0.0384,0.007 0.0792,0.003 0.15625,0.0312 0.0385,0.0142 0.0694,0.0291 0.15625,0.0937 0.0217,0.0162 0.0674,0.0363 0.0937,0.0625 0.0264,0.0262 0.0622,0.0933 0.0625,0.0937 3e-4,4.5e-4 0.0936,0.1558 0.0937,0.15625 1.5e-4,4.5e-4 0.0312,0.2183 0.0312,0.21875 0,0.30219 -0.12484,0.43789 -0.21875,0.5625 -0.0939,0.12461 -0.19016,0.23385 -0.3125,0.34375 -0.24469,0.2198 -0.56912,0.44602 -0.96875,0.71875 -0.79926,0.54546 -1.90402,1.23201 -3.25,2 -2.69196,1.53597 -6.30049,3.42954 -10,5.28125 -3.69951,1.85171 -7.49754,3.65432 -10.5625,5 -1.53248,0.67284 -2.89413,1.23058 -3.96875,1.625 C 294.45663,548.73817 293.75531,549 293.125,549 c -1.31728,0 -2.37357,0.89082 -3.125,2.65625 -0.75143,1.76543 -1.08624,4.3494 -0.78125,7.34375 0.59881,5.8793 2.26342,9.1829 5.25,10.78125 0.81975,0.43872 1.42714,0.62751 1.75,0.625 0.32286,-0.003 0.41123,-0.0269 0.59375,-0.4375 0.36504,-0.82128 0.421,-3.20012 0.0625,-7.15625 l -0.65625,-7.4375 a 0.65532335,0.65532335 0 0 1 0.4375,-0.6875 l 2.9375,-1 c 1.55144,-0.54085 2.3207,-0.80636 4.8125,-2.09375 2.4918,-1.28739 6.67897,-3.56809 14.875,-8.0625 2.88549,-1.58232 5.54187,-3.01856 7.5,-4.0625 0.97906,-0.52197 1.77103,-0.95534 2.34375,-1.25 0.28636,-0.14733 0.51928,-0.2624 0.6875,-0.34375 0.0841,-0.0407 0.1578,-0.0674 0.21875,-0.0937 0.0305,-0.0132 0.0572,-0.0494 0.0937,-0.0625 0.0366,-0.0131 0.0197,-0.0312 0.25,-0.0312 0.001,10e-6 0.15214,0.006 0.21875,0.0312 0.0666,0.0249 0.1453,0.0628 0.1875,0.0937 0.0844,0.062 0.1256,0.1121 0.15625,0.15625 0.0613,0.0883 0.0777,0.14262 0.0937,0.1875 0.0322,0.0898 0.0487,0.14588 0.0625,0.21875 0.0276,0.14574 0.0399,0.34348 0.0625,0.5625 0.0452,0.43803 0.0823,1.02795 0.125,1.78125 0.0853,1.50659 0.16701,3.60077 0.21875,5.875 0.15644,6.8729 1.11144,11.90484 3.3125,16.125 2.20106,4.22016 5.67086,7.66941 11,11.3125 16.36521,11.18735 26.41102,14.85439 40.84375,15.03125 7.09215,0.087 8.20993,-0.14292 12.40625,-2.65625 2.4824,-1.48675 7.12463,-5.54668 10.09375,-8.875 1.5846,-1.77628 2.79179,-3.07624 3.71875,-3.875 0.46348,-0.39938 0.84939,-0.69439 1.28125,-0.84375 0.21593,-0.0747 0.48199,-0.10253 0.75,-0.0312 0.26801,0.0713 0.49721,0.25499 0.625,0.46875 0.25558,0.42752 0.27243,0.8985 0.25,1.46875 -0.0224,0.57025 -0.12623,1.25893 -0.28125,2.125 -0.31004,1.73214 -0.8847,4.1165 -1.65625,7.25 -1.0598,4.30441 -2.25139,10.69617 -2.625,14.09375 l -0.6875,6.28125 a 0.65532335,0.65532335 0 0 1 -0.75,0.59375 l -4.34375,-0.65625 c -3.02668,-0.45387 -5.31532,-0.40513 -6.71875,0.0312 -0.70172,0.21819 -1.17209,0.51963 -1.46875,0.875 -0.29666,0.35537 -0.4375,0.76354 -0.4375,1.34375 0,1.07082 0.58027,2.58027 1,3 0.10126,0.10126 0.85158,0.47683 1.8125,0.6875 0.96092,0.21067 2.15293,0.34375 3.3125,0.34375 3.57727,0 4.54202,-0.44827 7.25,-3.15625 1.65024,-1.65029 2.48362,-2.56813 3.71875,-5.84375 1.23513,-3.27562 2.81475,-8.86747 5.78125,-19.53125 1.14738,-4.12456 2.2515,-8.11064 2.46875,-8.875 0.0835,-0.29395 0.18412,-0.55736 0.375,-0.78125 0.19088,-0.22389 0.47906,-0.39439 0.78125,-0.4375 0.60439,-0.0862 1.09299,0.24222 1.5625,0.65625 0.93902,0.82807 1.96691,2.34165 3.0625,4.5 1.28573,2.53288 2.98643,6.22821 4.375,9.40625 0.69429,1.58902 1.30602,3.0371 1.75,4.15625 0.22199,0.55957 0.40395,1.03473 0.53125,1.40625 0.0636,0.18576 0.11842,0.32908 0.15625,0.46875 0.0378,0.13967 0.0626,0.24359 0.0625,0.4375 -2.8e-4,0.36375 -0.12668,0.4505 -0.21875,0.59375 -0.0921,0.14325 -0.20461,0.27044 -0.34375,0.4375 -0.27828,0.33411 -0.65765,0.74805 -1.125,1.21875 -0.93471,0.9414 -2.19194,2.13655 -3.59375,3.34375 -1.79645,1.54707 -3.01159,2.75112 -3.71875,3.71875 -0.70716,0.96763 -0.89087,1.63773 -0.8125,2.1875 0.10211,0.71638 0.33631,1.14345 0.65625,1.40625 0.31994,0.2628 0.78202,0.41636 1.46875,0.375 1.37346,-0.0827 3.52649,-0.98199 6.21875,-2.78125 L 438,600.5 l 0.28125,-5.90625 c 0.21813,-4.56733 -0.32619,-7.86655 -2.1875,-13.21875 -0.69554,-2.00006 -1.26663,-3.85575 -1.65625,-5.25 -0.19481,-0.69712 -0.35023,-1.27825 -0.4375,-1.71875 -0.0436,-0.22025 -0.0815,-0.39356 -0.0937,-0.5625 -0.006,-0.0845 -0.0113,-0.17897 0,-0.28125 0.0113,-0.10228 0.003,-0.25337 0.21875,-0.46875 0.27109,-0.27096 0.48125,-0.19337 0.59375,-0.1875 0.1125,0.006 0.19158,0.009 0.28125,0.0312 0.17935,0.0448 0.38467,0.12689 0.625,0.21875 0.48066,0.18373 1.10259,0.45222 1.875,0.8125 1.54483,0.72056 3.6153,1.77435 5.84375,2.96875 4.43582,2.3775 9.85984,5.22229 12.03125,6.3125 1.1158,0.56019 2.1433,1.14948 2.90625,1.65625 0.38148,0.25338 0.69147,0.50053 0.9375,0.71875 0.12301,0.10911 0.24865,0.18998 0.34375,0.3125 0.0951,0.12252 0.20356,0.26766 0.21875,0.5625 0.0131,0.2549 -0.0462,0.32516 -0.0937,0.46875 -0.0476,0.14359 -0.10857,0.31686 -0.1875,0.5 -0.15787,0.36628 -0.38293,0.83957 -0.65625,1.375 -0.54663,1.07087 -1.29383,2.43409 -2.125,3.84375 -1.75463,2.97594 -2.63822,4.77153 -2.75,5.5 -0.0279,0.18212 -0.0103,0.28237 0,0.3125 0.0103,0.0301 -0.0116,0.004 0.0312,0.0312 0.0858,0.0545 0.47943,0.15625 1.09375,0.15625 5.25628,0 9.8792,-5.03394 9.65625,-10.625 -0.0606,-1.51947 -0.27696,-2.54717 -0.8125,-3.53125 -0.53554,-0.98408 -1.42655,-1.95153 -2.9375,-3.3125 -4.90262,-4.41576 -16.04223,-12.08852 -24.375,-16.71875 l -6.71875,-3.75 a 0.65532335,0.65532335 0 0 1 -0.125,-1.0625 l 3.625,-3.15625 c 4.18077,-3.67078 7.03393,-9.54006 7.0625,-14.4375 0.009,-1.50628 0.0918,-2.51347 0.46875,-3.28125 0.18849,-0.38389 0.47629,-0.68951 0.84375,-0.875 0.36746,-0.18549 0.76747,-0.25 1.1875,-0.25 1.43062,0 2.89316,-0.95475 4,-2.59375 1.10684,-1.639 1.81667,-3.92942 1.78125,-6.28125 -0.0227,-1.50098 0.0682,-2.63792 0.28125,-3.46875 0.10654,-0.41542 0.21859,-0.77114 0.46875,-1.0625 0.25016,-0.29136 0.7223,-0.4871 1.125,-0.40625 0.80132,0.16096 2.14481,-0.30562 3.40625,-1.3125 1.26144,-1.00688 2.44589,-2.48068 3.09375,-4.03125 0.84907,-2.03241 1.30543,-5.16631 1.3125,-8.1875 0.007,-3.02119 -0.47752,-5.95523 -1.28125,-7.5 -1.10962,-2.13261 -2.60467,-3.96757 -4.0625,-5.125 -1.45783,-1.15743 -2.83833,-1.5721 -3.65625,-1.3125 -0.24346,0.0773 -0.66779,0.41069 -1.09375,0.96875 -0.42596,0.55806 -0.84067,1.32575 -1.21875,2.1875 -0.75615,1.72351 -1.30508,3.83685 -1.3125,5.53125 -0.004,0.96984 -0.65948,1.90625 -1.65625,1.90625 -0.83835,0 -1.65625,-0.54924 -1.65625,-1.4375 0,0.17855 -0.0476,-0.10104 -0.25,-0.40625 -0.20244,-0.30521 -0.52252,-0.70581 -0.90625,-1.15625 -0.76746,-0.90088 -1.81086,-2.00341 -2.90625,-3.0625 -1.09539,-1.05909 -2.22457,-2.07023 -3.15625,-2.8125 -0.46584,-0.37114 -0.90198,-0.67835 -1.21875,-0.875 -0.31677,-0.19665 -0.5905,-0.25 -0.4375,-0.25 0.15382,0 -0.0315,0.0256 -0.28125,0.3125 -0.24977,0.28689 -0.57444,0.75915 -0.90625,1.34375 -0.66362,1.1692 -1.40435,2.80443 -2.09375,4.59375 -1.3788,3.57864 -2.53125,7.80541 -2.53125,9.875 0,1.91786 0.76203,4.66527 1.5,5.71875 0.7295,1.0415 1.19802,1.89085 1.25,2.9375 0.052,1.04665 -0.2672,2.19054 -0.84375,3.9375 -0.96787,2.9325 -1.03456,4.65446 -0.25,7.59375 l 1.0625,4 a 0.65532335,0.65532335 0 0 1 -0.34375,0.75 l -5.25,2.5625 -5.25,2.59375 a 0.65532335,0.65532335 0 0 1 -0.75,-0.125 l -6.375,-6.46875 C 409.11415,533.13824 403.15179,528.52296 399.5,526.5 l -6.8125,-3.78125 a 0.65532335,0.65532335 0 0 1 -0.15625,-1 l 6.0625,-6.34375 a 0.65532335,0.65532335 0 0 1 0,-0.0312 c 1.71653,-1.78753 3.21544,-3.5633 4.28125,-5.03125 0.5329,-0.73398 0.97136,-1.38496 1.25,-1.90625 0.27864,-0.52129 0.375,-0.94244 0.375,-1 0,-1.23438 0.38067,-2.22656 1.25,-2.59375 0.43466,-0.1836 0.95254,-0.13124 1.375,0.0937 0.42246,0.22499 0.78443,0.59326 1.09375,1.09375 0.0915,0.14807 0.35856,0.33911 0.78125,0.46875 0.42269,0.12964 0.9816,0.20814 1.5625,0.1875 1.1618,-0.0413 2.38142,-0.47517 2.90625,-1 1.23496,-1.23496 1.36887,-3.68566 0.59375,-5.84375 -0.38756,-1.07905 -0.9851,-2.06108 -1.6875,-2.75 -0.7024,-0.68892 -1.49494,-1.0625 -2.3125,-1.0625 -0.74166,0 -1.87132,0.74033 -2.75,1.9375 -0.87868,1.19717 -1.5,2.78112 -1.5,4.09375 0,0.82223 -0.0797,1.47086 -0.5,1.96875 -0.21015,0.24894 -0.55152,0.4252 -0.875,0.46875 -0.32348,0.0435 -0.6356,-0.009 -0.9375,-0.125 -0.0204,-0.008 -0.48816,0.004 -1.21875,0.375 -0.73059,0.37075 -1.68324,0.99228 -2.8125,1.875 -2.25853,1.76543 -5.20855,4.50939 -8.53125,7.96875 -1.16286,1.2107 -2.27774,2.2036 -3.15625,2.875 -0.43926,0.3357 -0.80821,0.58807 -1.15625,0.75 -0.17402,0.081 -0.33852,0.14038 -0.5625,0.15625 -0.22398,0.0159 -0.60433,-0.0842 -0.78125,-0.375 -0.12154,-0.19983 -0.14072,-0.31861 -0.1875,-0.5 -0.0468,-0.18139 -0.0765,-0.3972 -0.125,-0.65625 -0.0969,-0.5181 -0.20396,-1.19776 -0.3125,-2 -0.21708,-1.60449 -0.46179,-3.69708 -0.65625,-5.90625 -0.1915,-2.17559 -0.50995,-4.47923 -0.875,-6.40625 -0.36505,-1.92702 -0.80643,-3.52723 -1.09375,-4.125 -0.85508,-1.77848 -1.16478,-4.60622 -0.84375,-7 0.20334,-1.51593 0.20546,-2.50438 0,-3.28125 -0.20546,-0.77687 -0.61032,-1.39157 -1.40625,-2.1875 -1.77523,-1.77523 -3.55339,-2.13948 -4.875,-1.59375 -1.32161,0.54573 -2.34375,2.0629 -2.34375,4.5625 0,1.30947 0.64886,2.80021 1.59375,3.9375 0.94489,1.13729 2.16356,1.875 3.125,1.875 0.38919,0 0.71065,0.0243 1.03125,0.125 0.3206,0.10069 0.68317,0.31708 0.84375,0.65625 0.32115,0.67834 0.0731,1.31399 -0.25,2.1875 -0.10952,0.29608 -0.24213,1.24993 -0.25,2.4375 -0.008,1.18757 0.0528,2.64724 0.1875,4.25 0.26944,3.20553 0.80122,6.90034 1.46875,9.71875 0.12773,0.53931 0.22641,0.96085 0.25,1.34375 0.0236,0.3829 6.1e-4,0.83383 -0.34375,1.15625 -0.34436,0.32242 -0.77848,0.33071 -1.15625,0.28125 -0.37777,-0.0495 -0.79122,-0.18233 -1.3125,-0.34375 -10.18602,-3.15401 -25.10665,-3.41399 -32.28125,-0.6875 -1.50932,0.57357 -2.95674,1.02634 -4.125,1.3125 -0.58413,0.14308 -1.11002,0.23432 -1.53125,0.28125 -0.21062,0.0235 -0.38112,0.0404 -0.5625,0.0312 -0.18138,-0.009 -0.36009,-0.0118 -0.59375,-0.15625 -0.24717,-0.15277 -0.32439,-0.33334 -0.40625,-0.5 -0.0819,-0.16666 -0.16134,-0.32778 -0.21875,-0.53125 -0.11482,-0.40694 -0.20218,-0.93702 -0.28125,-1.53125 -0.15813,-1.18846 -0.25,-2.71358 -0.25,-4.34375 0,-2.28104 0.0932,-3.80045 0.375,-4.90625 0.28181,-1.1058 0.86044,-1.87012 1.6875,-2.1875 0.67158,-0.25773 1.31728,-0.33143 1.90625,-0.15625 0.58897,0.17518 1.06541,0.63334 1.3125,1.21875 0.49418,1.17082 0.42307,2.84242 0,5.15625 -0.39068,2.13638 -0.448,3.33443 -0.28125,3.71875 0.0834,0.19216 0.1432,0.25642 0.40625,0.34375 0.26305,0.0873 0.73695,0.125 1.375,0.125 1.2798,0 2.28637,-0.80058 3.0625,-2.59375 0.77613,-1.79317 1.1979,-4.5342 1.125,-7.9375 -0.0757,-3.53245 0.17325,-9.1405 0.5625,-12.625 l 0.6875,-6.25 a 0.65532335,0.65532335 0 0 1 0.65625,-0.59375 l 3.53125,0 c 1.37149,0 2.29492,-0.1767 3.4375,-0.84375 1.14258,-0.66705 2.49525,-1.8703 4.46875,-3.84375 2.08293,-2.08298 3.27134,-3.41404 3.90625,-4.5625 0.63491,-1.14846 0.78125,-2.13807 0.78125,-3.8125 0,-2.00627 -0.39519,-3.47845 -1.21875,-4.59375 -0.82356,-1.1153 -2.10606,-1.92378 -4,-2.5 -0.50743,-0.15436 -1.04491,-0.17841 -1.4375,-0.125 -0.39259,0.0534 -0.58576,0.20583 -0.59375,0.21875 -0.38842,0.62848 -1.142,1.26307 -2.125,2.03125 -0.983,0.76818 -2.18404,1.60181 -3.375,2.375 -1.19096,0.77319 -2.37107,1.45806 -3.3125,1.9375 -0.47072,0.23972 -0.8645,0.44661 -1.21875,0.5625 -0.17713,0.0579 -0.34665,0.0797 -0.53125,0.0937 -0.1846,0.0141 -0.45835,0.0417 -0.71875,-0.21875 -0.40293,-0.40305 -0.37943,-0.92214 -0.28125,-1.375 0.0982,-0.45286 0.29453,-0.92105 0.625,-1.34375 0.15238,-0.19494 0.5789,-0.99802 0.9375,-1.96875 0.3586,-0.97073 0.72222,-2.14589 1,-3.28125 0.46376,-1.89533 0.60665,-2.94938 0.46875,-3.6875 -0.1379,-0.73812 -0.55432,-1.34716 -1.59375,-2.46875 -1.62476,-1.75314 -3.06661,-2.39241 -4.65625,-2.1875 z m -3.09375,9.59375 c 0.27778,0 0.45889,0.15982 0.53125,0.25 0.0724,0.0902 0.10542,0.16987 0.125,0.21875 0.0392,0.0978 0.0477,0.1443 0.0625,0.21875 0.0296,0.14889 0.0419,0.31672 0.0625,0.53125 0.0411,0.42905 0.0648,1.01803 0.0937,1.75 0.058,1.46393 0.10128,3.47975 0.0937,5.6875 -0.008,2.21295 -0.077,4.21445 -0.1875,5.6875 -0.0552,0.73653 -0.11257,1.33792 -0.1875,1.78125 -0.0375,0.22167 -0.0982,0.42375 -0.15625,0.59375 -0.029,0.085 -0.0498,0.13927 -0.125,0.25 -0.0752,0.11073 -0.24995,0.34341 -0.59375,0.34375 -1.16183,0.001 -2.02534,-0.94815 -2.625,-2.125 -0.59966,-1.17685 -0.96875,-2.69395 -0.96875,-4.28125 0,-1.62671 0.60963,-4.16774 1.3125,-6.40625 0.35143,-1.11925 0.72847,-2.15958 1.09375,-2.9375 0.18264,-0.38896 0.33821,-0.70385 0.53125,-0.96875 0.0965,-0.13245 0.20932,-0.26577 0.34375,-0.375 0.13443,-0.10923 0.31719,-0.21875 0.59375,-0.21875 z m 6.90625,12.40625 c 0.54857,0.006 1.13689,0.10458 1.8125,0.28125 0.46972,0.12284 0.8411,0.23443 1.15625,0.375 0.31515,0.14057 0.65547,0.31734 0.8125,0.71875 0.15703,0.40141 -0.007,0.81245 -0.1875,1.09375 -0.18024,0.2813 -0.40877,0.53374 -0.71875,0.84375 -1.02581,1.02592 -2.31,1.54773 -3.4375,1.53125 -0.56375,-0.008 -1.1023,-0.17645 -1.53125,-0.53125 -0.42895,-0.3548 -0.6875,-0.91072 -0.6875,-1.53125 0,-1.11524 0.4569,-2.07031 1.3125,-2.5 0.43371,-0.21781 0.92018,-0.28725 1.46875,-0.28125 z m -12.65625,9.125 c 0.3429,0.0285 0.72426,0.1075 1.15625,0.21875 0.86397,0.2225 1.9276,0.59061 2.96875,1.0625 1.48799,0.67446 2.48585,1.23826 3.15625,2.03125 0.6704,0.79299 0.90625,1.78294 0.90625,2.9375 0,1.57572 -0.25239,3.47897 -0.65625,4.53125 -0.24784,0.64584 -0.80447,1.06769 -1.40625,1.375 -0.60178,0.30731 -1.29369,0.4953 -2,0.5625 -0.70631,0.0672 -1.41412,0.0322 -2.0625,-0.15625 -0.64838,-0.1884 -1.26143,-0.53673 -1.625,-1.125 -0.17159,-0.27771 -0.47547,-0.33047 -0.65625,-0.21875 -0.20402,0.1261 -0.5666,0.1724 -0.8125,0.0625 -0.2459,-0.1099 -0.37416,-0.28264 -0.46875,-0.4375 -0.18918,-0.30972 -0.25582,-0.65805 -0.34375,-1.09375 C 333.6054,494.09736 333.5,492.8824 333.5,491.4375 c 0,-1.40323 0.0976,-2.74183 0.25,-3.78125 0.0762,-0.51971 0.16726,-0.94575 0.28125,-1.3125 0.11399,-0.36675 0.1489,-0.69382 0.59375,-0.96875 0.37541,-0.23201 0.6571,-0.1847 1,-0.15625 z m 98.40625,23.21875 a 0.65532335,0.65532335 0 0 1 0.59375,0.1875 l 4.09375,4.125 c 1.10463,1.10463 2.30632,2.12263 3.34375,2.84375 0.51871,0.36056 0.99141,0.6551 1.375,0.84375 0.38359,0.18865 0.70334,0.25 0.75,0.25 0.10391,0 0.89029,-0.34634 1.6875,-1.03125 0.79721,-0.68491 1.69521,-1.6383 2.4375,-2.6875 0.78672,-1.11199 1.58205,-2.12487 2.25,-2.875 0.33397,-0.37507 0.64088,-0.67259 0.90625,-0.90625 0.13268,-0.11683 0.24298,-0.22893 0.375,-0.3125 0.13202,-0.0836 0.24791,-0.17926 0.53125,-0.1875 0.32245,-0.009 0.66702,0.15616 0.875,0.375 0.20798,0.21884 0.33021,0.44969 0.40625,0.71875 0.15208,0.53811 0.15388,1.19893 0.0937,1.9375 -0.12026,1.47714 -0.58234,3.3347 -1.34375,5.15625 -0.99134,2.37166 -1.88875,3.91483 -3.15625,4.6875 -1.2675,0.77267 -2.79382,0.57165 -4.40625,-0.28125 C 443.65808,520.65409 440.87441,520.00936 439,520 c -1.04418,-0.004 -1.91007,-0.0882 -2.65625,-0.3125 -0.74618,-0.22435 -1.37401,-0.60902 -1.8125,-1.21875 C 433.65426,517.2493 433.5,515.45205 433.5,512.625 l 0,-3.53125 a 0.65532335,0.65532335 0 0 1 0.53125,-0.65625 z m -79.59375,11.375 c 10.74323,-0.6071 22.57744,2.21104 34.5,8.125 11.42461,5.66697 15.52771,8.50777 21.21875,14.8125 2.64373,2.92876 4.58595,5.4571 5.8125,7.53125 1.22655,2.07415 1.84879,3.71498 1.34375,5.03125 -0.81118,2.11389 -3.422,6.00399 -6.34375,9.9375 -2.92175,3.93351 -6.10945,7.79585 -8.1875,9.625 -2.52424,2.2219 -6.9542,4.86821 -10.0625,6.03125 -1.50842,0.56434 -2.99289,1.07441 -4.21875,1.4375 -0.61293,0.18155 -1.18153,0.30606 -1.625,0.40625 -0.44347,0.10019 -0.72058,0.17727 -1.0625,0.15625 -0.4145,-0.0256 -0.95252,-0.14558 -1.6875,-0.34375 -0.73498,-0.19817 -1.64476,-0.48103 -2.6875,-0.8125 -2.08549,-0.66294 -4.67631,-1.54111 -7.34375,-2.5 -5.33488,-1.91778 -10.91873,-4.08325 -13.25,-5.28125 -6.18471,-3.17837 -12.88794,-7.75676 -16.875,-11.5 -4.82341,-4.52844 -7.27565,-11.9723 -7.40625,-19.375 -0.1306,-7.4027 2.05884,-14.79687 6.75,-19.21875 1.69112,-1.59404 2.8529,-2.55272 4.4375,-3.125 1.5846,-0.57228 3.49043,-0.75688 6.6875,-0.9375 z m 85.375,5.25 c 0.40424,-0.0117 0.79027,0.0415 1.15625,0.15625 1.09108,0.34201 1.90678,1.24095 2.3125,2.4375 0.40572,1.19655 0.46986,2.69737 0.1875,4.4375 -0.30268,1.86519 -0.97173,3.69751 -1.625,4.8125 -0.16332,0.27875 -0.32032,0.49022 -0.5,0.6875 -0.17968,0.19728 -0.38958,0.41762 -0.78125,0.46875 -0.19583,0.0256 -0.42421,-0.0288 -0.59375,-0.15625 -0.16954,-0.12747 -0.28509,-0.29366 -0.34375,-0.4375 -0.11731,-0.28768 -0.125,-0.57169 -0.125,-0.9375 0,0.0319 -0.024,-0.0933 -0.34375,-0.25 C 438.83655,536.12459 438.31852,536 437.75,536 c -1.02205,0 -1.88492,-0.20171 -2.46875,-0.84375 -0.58383,-0.64204 -0.81706,-1.53462 -1,-2.78125 -0.26483,-1.80448 -0.0717,-3.34357 0.65625,-4.5625 0.72796,-1.21893 1.96844,-2.04145 3.625,-2.53125 0.43012,-0.12719 0.84576,-0.20702 1.25,-0.21875 z m -6.15625,16.25 c 0.36238,-0.0919 0.76714,0.002 1.0625,0.1875 0.29536,0.18595 0.52454,0.4407 0.78125,0.75 0.55237,0.6656 0.72566,1.56367 0.40625,2.53125 -0.31941,0.96758 -1.01343,2.07868 -2.15625,3.65625 -1.65158,2.28002 -4.33336,5.07705 -6.15625,6.375 -0.83684,0.59588 -1.47665,1.03573 -2.0625,1.3125 -0.29292,0.13838 -0.5867,0.26911 -0.90625,0.28125 -0.31955,0.0121 -0.65075,-0.10433 -0.90625,-0.3125 -0.51099,-0.41634 -0.72386,-1.03424 -0.9375,-1.875 -0.21364,-0.84076 -0.40374,-1.93695 -0.65625,-3.40625 -0.13048,-0.75926 -0.22696,-1.35725 -0.21875,-1.90625 0.008,-0.549 0.16351,-1.09212 0.53125,-1.5 0.73548,-0.81575 1.91746,-1.06149 4.03125,-1.59375 1.14776,-0.28904 2.37054,-0.77272 3.375,-1.3125 1.00446,-0.53978 1.79648,-1.18267 2.0625,-1.5625 0.60901,-0.86942 1.01883,-1.43947 1.75,-1.625 z" />
  </g>
</svg>
