<?xml version="1.0" encoding="UTF-8" standalone="no"?>
<!-- Created with Inkscape (http://www.inkscape.org/) -->

<svg
   xmlns:dc="http://purl.org/dc/elements/1.1/"
   xmlns:cc="http://creativecommons.org/ns#"
   xmlns:rdf="http://www.w3.org/1999/02/22-rdf-syntax-ns#"
   xmlns:svg="http://www.w3.org/2000/svg"
   xmlns="http://www.w3.org/2000/svg"
   xmlns:sodipodi="http://sodipodi.sourceforge.net/DTD/sodipodi-0.dtd"
   xmlns:inkscape="http://www.inkscape.org/namespaces/inkscape"
   width="183.1057"
   height="793.53418"
   id="svg3031"
   version="1.1"
   inkscape:version="0.48.5 r10040"
   sodipodi:docname="dandelion.svg">
  <defs
     id="defs3033" />
  <sodipodi:namedview
     id="base"
     pagecolor="#ffffff"
     bordercolor="#666666"
     borderopacity="1.0"
     inkscape:pageopacity="0.0"
     inkscape:pageshadow="2"
     inkscape:zoom="0.35"
     inkscape:cx="91.552849"
     inkscape:cy="396.7671"
     inkscape:document-units="px"
     inkscape:current-layer="layer1"
     showgrid="false"
     fit-margin-top="0"
     fit-margin-left="0"
     fit-margin-right="0"
     fit-margin-bottom="0"
     inkscape:window-width="480"
     inkscape:window-height="410"
     inkscape:window-x="1"
     inkscape:window-y="99"
     inkscape:window-maximized="0" />
  <metadata
     id="metadata3036">
    <rdf:RDF>
      <cc:Work
         rdf:about="">
        <dc:format>image/svg+xml</dc:format>
        <dc:type
           rdf:resource="http://purl.org/dc/dcmitype/StillImage" />
        <dc:title />
      </cc:Work>
    </rdf:RDF>
  </metadata>
  <g
     inkscape:label="Layer 1"
     inkscape:groupmode="layer"
     id="layer1"
     transform="translate(-283.44715,-135.59509)">
    <path
       style="fill:#ffffff"
       d="m 286.09947,192.76376 c 2.6276,-2.6275 4.7983,-2.9282 10.9071,-1.5108 4.1806,0.97 9.2369,5.1573 10.2427,8.4824 0.9775,3.2311 7.2847,8.2626 14.1198,11.2636 6.66885,2.928 7.86415,4.3428 6.23715,7.3827 -2.23365,4.1735 -11.57665,1.4038 -19.88475,-5.8947 l -4.4234,-3.8859 -2.0766,2.3501 c -2.347,2.6562 -6.1742,3.5721 -8.9339,2.138 -1.2409,-0.6448 -2.22,-0.6025 -2.95,0.1274 -7.59137,-3.18827 -5.66269,-9.91077 -5.6926,-12.0749 0,-4.9556 0.401,-6.3243 2.4545,-8.3779 z m -0.1685,64.5621 c 2.751,-5.4372 10.0064,-5.172 13.8241,0.5052 2.3325,3.4687 2.51,3.5391 7.3899,2.9321 2.75,-0.3421 8.15,-1.3154 12,-2.1629 10.65895,-2.3464 14.37225,-2.642 16.01885,-1.2754 1.8933,1.5713 1.8994,4.3925 0.013,5.9581 -1.7447,1.448 -24.30765,5.1409 -30.03165,4.9153 -8.9517,-0.3527 -9.996,-0.062 -11.1939,3.111 -0.898,2.379 -1.7299,3 -4.0192,3 -1.5878,0 -3.4269,-0.54 -4.0869,-1.2 -1.5815,-1.5815 -1.5214,-12.6064 0.086,-15.7834 z m 28.3325,54.2272 c 0.3038,-0.691 0.8585,-1.0671 1.2327,-0.8358 0.3742,0.2313 2.9233,-0.1886 5.6646,-0.9331 4.2182,-1.1455 6.64985,-2.9766 15.82195,-11.9142 7.4843,-7.293 11.5588,-10.5607 13.1682,-10.5607 7.1732,0 7.5117,4.3486 0.7262,9.3296 -2.6223,1.925 -5.6598,4.5036 -6.75,5.7302 -1.0902,1.2267 -4.1878,3.987 -6.8837,6.1341 -3.7279,2.969 -4.9594,4.6387 -5.143,6.9732 -0.6904,8.7759 -11.58035,13.1505 -15.98855,6.4228 -1.6996,-2.594 -2.7274,-8.3468 -1.8484,-10.3461 z m 3.2057,613.75624 c 0.9676,-2.1476 6.2602,-10.1416 8.276,-12.5 0.94025,-1.1 2.53975,-3.3805 3.55465,-5.0678 1.8836,-3.1316 6.8293,-10.4459 12.4039,-18.3443 1.7128,-2.4266 3.5167,-5.3517 4.0088,-6.5 0.4921,-1.1484 2.2649,-4.3379 3.9396,-7.0879 3.4599,-5.6813 14.112,-27.2886 18.9801,-38.5 1.7911,-4.125 4.4997,-10.2 6.0192,-13.5 3.4326,-7.4553 8.5948,-20.1673 9.5431,-23.5 0.3913,-1.375 1.485,-4.3 2.4306,-6.5 4.6306,-10.7743 18.9688,-53.2374 21.1038,-62.5 0.4437,-1.925 1.4693,-5.975 2.2791,-9 8.7656,-32.7436 16.8394,-69.8781 19.5679,-90 0.5593,-4.125 2.1366,-15.15 3.5051,-24.5 2.7275,-18.6357 5.0893,-41.7425 6.6416,-64.9782 1.0504,-15.7231 1.325,-61.6377 0.4458,-74.5218 -1.0451,-15.314 -2.6386,-35.6242 -3.0993,-39.5 -3.3455,-28.1507 -8.7989,-56.31811 -14.6174,-75.50004 -2.2523,-7.425 -4.4215,-13.95 -4.8206,-14.5 -0.399,-0.55 -1.2951,-2.8 -1.9913,-5 -0.6963,-2.2 -4.0571,-9.6441 -7.4686,-16.5425 -3.4115,-6.8983 -7.6484,-16.1228 -9.4152,-20.4987 -1.7669,-4.376 -4.35,-9.8974 -5.7403,-12.2697 l -2.5278,-4.3134 -5.6715,0.8121 c -3.1193,0.4467 -9.217,0.7241 -13.5505,0.6164 -16.2299,-0.4034 -25.7786,-9.2958 -29.5645,-27.5326 -1.3301,-6.4072 0.1365,-14.6859 4.1226,-23.2716 2.9705,-6.3981 13.2687,-19.1631 17.0285,-21.1073 4.6014,-2.3795 18.9392,-3.9657 23.4877,-2.5984 8.3545,2.5112 23.1283,16.3437 26.2604,24.5871 1.8045,4.7493 3.1605,11.8222 3.1981,16.682 0.066,8.5483 -1.9874,12.8294 -9.8942,20.6257 l -7.291,7.1891 3.0053,5.9139 c 1.6528,3.2527 4.172,9.0176 5.5981,12.8109 1.4261,3.7934 5.4194,12.972 8.874,20.397 12.7261,27.3526 19.3578,51.1891 25.4565,91.50004 7.7991,51.5494 8.8612,123.0877 2.5984,175 -1.1283,9.3518 -4.9427,36.9551 -6.0802,44 -0.2664,1.65 -1.1375,7.05 -1.9356,12 -6.7862,42.0877 -16.1827,80.9199 -29.7633,123 -4.5214,14.0096 -7.7494,23.1827 -11.7886,33.5 -1.1843,3.025 -3.244,8.375 -4.5771,11.8889 -12.1184,31.9429 -31.6245,72.1517 -44.4423,91.6111 -5.0719,7.7 -10.4753,16.5076 -12.0074,19.5724 -4.0081,8.0176 -8.46945,12.0987 -12.81615,11.7239 -3.5822,-0.3089 -4.4058,-1.2663 -3.266,-3.7963 z m 37.84985,-659.24084 c 3.7794,5.0445 9.6489,7.6077 17.326,7.5661 11.5929,-0.063 22.2495,-4.4496 29.0905,-11.9755 5.4998,-6.0503 6.6378,-14.1359 3.4912,-24.8038 -1.464,-4.9635 -2.8661,-7.0596 -8.4287,-12.6001 -7.6845,-7.6541 -11.9685,-10.1912 -16.4667,-9.752 l -3.1863,0.311 c 34.1224,18.58737 -4.7488,59.72934 -22.939,46.3859 -2.5578,-3.0392 -2.7747,-3.1316 -2.0913,-0.8908 0.4193,1.375 1.8613,3.9666 3.2043,5.7592 z m -21.1394,-111.788 c 2.3633,-1.9613 7.1125,-1.3681 12.0059,1.4997 5.2905,3.1004 6.55,6.4129 4.0486,10.6475 -1.6847,2.8521 -1.6687,2.9022 3.934,12.2908 6.9027,11.5672 7.1539,14.9115 1.1571,15.4053 -4.2008,0.3459 -6.6802,-1.086 -6.6802,-3.8578 0,-0.9891 -1.575,-5.5328 -3.5,-10.0972 -1.925,-4.5643 -3.5,-8.8891 -3.5,-9.6105 0,-0.7215 -0.6543,-1.5629 -1.4541,-1.8698 -0.7997,-0.3068 -2.4136,-2.5402 -3.5865,-4.963 -1.1728,-2.4228 -2.5435,-4.6592 -3.0459,-4.9697 -1.3946,-0.8619 -1.0903,-3.0549 0.6211,-4.4753 z m 36.6654,148.2288 c 1.3249,-1.3249 5.7151,-1.5851 7.3336,-0.4347 1.2503,0.8887 8.6982,21.3207 10.8917,29.879 2.3332,9.1039 2.0815,13.9398 -0.8798,16.9011 -3.3591,3.3591 -5.8414,3.0855 -10.5426,-1.1618 -5.2914,-4.7804 -5.4291,-8.4736 -0.505,-13.5432 l 3.4978,-3.6012 -2.5666,-5.8696 c -1.4116,-3.2283 -3.8856,-8.6052 -5.4978,-11.9486 -3.227,-6.6922 -3.5215,-8.4309 -1.7313,-10.221 z m 22.7191,-106.65 c 0.5055,-0.3124 1.4167,-2.9265 2.025,-5.809 1.935,-9.1698 6.1024,-21.0079 10.0709,-28.6077 3.1231,-5.9808 3.6717,-7.8273 2.9159,-9.8151 -1.2033,-3.1648 -1.1899,-7.9657 0.028,-10.2423 2.2495,-4.2032 8.5412,-6.5808 14.6891,-5.5508 4.0485,0.6782 6.0951,4.8405 6.3801,12.9749 0.3041,8.6794 0.2003,9.2054 -2.2786,11.5514 -1.9217,1.8186 -3.0204,2.0413 -7.5303,1.5266 l -5.2802,-0.6026 -1.9839,4.6281 c -3.4846,8.1293 -5.9043,16.4513 -7.5008,25.798 -1.6194,9.48 -2.9116,11.5985 -7.0745,11.5985 -3.9257,0 -7.3265,-5.6791 -4.4612,-7.45 z m 23.7567,17.27 c 0.8073,-3.0554 14.9849,-4.9249 22.0287,-2.9048 2.323,0.6663 3.4836,0.563 4.2658,-0.3795 1.9759,-2.3807 6.9887,-2.6475 11.5806,-0.6162 3.704,1.6384 4.4292,2.4577 5.0353,5.6881 0.5497,2.9303 0.2121,4.7086 -1.5101,7.955 -3.8906,7.3338 -10.0449,7.7907 -13.5855,1.0086 -1.1052,-2.117 -3.1302,-4.2737 -4.5,-4.7926 -2.3724,-0.8988 -10.0267,-0.5479 -16.4906,0.756 -2.2431,0.4525 -3.5677,0.073 -5.25,-1.5037 -1.2375,-1.1598 -2.1978,-2.4288 -2.134,-2.8199 0.064,-0.391 0.3157,-1.467 0.5598,-2.391 z m 2.0742,42.968 c 2.2938,-1.995 5.7197,-1.6211 8.5083,0.9285 1.2329,1.1272 3.8167,3.4888 5.7417,5.2478 1.925,1.7591 6.425,5.2754 10,7.8141 3.575,2.5386 7.9782,5.877 9.7848,7.4186 1.9542,1.6676 4.4565,2.803 6.1774,2.803 6.2172,0 9.133,9.0514 5.0651,15.7231 -3.2521,5.3337 -9.02,5.55 -11.6161,0.4356 -0.5988,-1.1797 -1.895,-3.0358 -2.8804,-4.1247 -1.232,-1.3613 -1.613,-2.873 -1.2197,-4.8394 0.61,-3.0503 1.2224,-2.5406 -25.8543,-21.5195 -5.8701,-4.1146 -6.9702,-7.0489 -3.7068,-9.8871 z"
       id="path3012"
       inkscape:connector-curvature="0"
       sodipodi:nodetypes="cscscscccccccccscsccssccsscssccsccsccscccscccsscssscsccsccccsssccscsccsssssssssssscccsssccccccccsssssccsccscssscsscccsscsscscccscccccccsscsscccccccsscccsc" />
  </g>
</svg>
