<?xml version="1.0" encoding="UTF-8" standalone="no"?>
<!-- Created with Inkscape (http://www.inkscape.org/) -->

<svg
   xmlns:dc="http://purl.org/dc/elements/1.1/"
   xmlns:cc="http://creativecommons.org/ns#"
   xmlns:rdf="http://www.w3.org/1999/02/22-rdf-syntax-ns#"
   xmlns:svg="http://www.w3.org/2000/svg"
   xmlns="http://www.w3.org/2000/svg"
   xmlns:sodipodi="http://sodipodi.sourceforge.net/DTD/sodipodi-0.dtd"
   xmlns:inkscape="http://www.inkscape.org/namespaces/inkscape"
   width="431.62607"
   height="312.09659"
   id="svg3000"
   version="1.1"
   inkscape:version="0.48.5 r10040"
   sodipodi:docname="New document 3">
  <defs
     id="defs3002" />
  <sodipodi:namedview
     id="base"
     pagecolor="#ffffff"
     bordercolor="#666666"
     borderopacity="1.0"
     inkscape:pageopacity="0.0"
     inkscape:pageshadow="2"
     inkscape:zoom="0.35"
     inkscape:cx="215.81303"
     inkscape:cy="156.04829"
     inkscape:document-units="px"
     inkscape:current-layer="layer1"
     showgrid="false"
     fit-margin-top="0"
     fit-margin-left="0"
     fit-margin-right="0"
     fit-margin-bottom="0"
     inkscape:window-width="480"
     inkscape:window-height="410"
     inkscape:window-x="1"
     inkscape:window-y="99"
     inkscape:window-maximized="0" />
  <metadata
     id="metadata3005">
    <rdf:RDF>
      <cc:Work
         rdf:about="">
        <dc:format>image/svg+xml</dc:format>
        <dc:type
           rdf:resource="http://purl.org/dc/dcmitype/StillImage" />
        <dc:title></dc:title>
      </cc:Work>
    </rdf:RDF>
  </metadata>
  <g
     inkscape:label="Layer 1"
     inkscape:groupmode="layer"
     id="layer1"
     transform="translate(-159.18697,-376.31389)">
    <path
       style="fill:#ffffff"
       d="m 160.2088,493.68172 c 4.0747,-10.9195 12.0898,-14.7265 32.1321,-15.262 19.4931,-0.5209 35.7498,3.5881 48.3233,12.214 5.2286,3.5871 5.73084,4.06873 8.51144,2.42623 2.7271,-1.66248 5.7714,-2.34378 8.34786,-3.61023 4.68551,-2.3375 14.35641,-3.3431 17.96991,-1.8687 4.3842,1.789 6.6055,6.8419 5.2175,11.8688 -1.9355,7.0099 -8.0223,12.8647 -14.4972,13.9447 -2.4196,0.4036 -2.1992,1.1613 2.634,9.0578 9.1283,14.914 10.79736,45.76153 7.02984,52.98045 -3.76752,7.21892 4.05391,5.2646 7.21336,5.74732 6.1875,0.9377 15.1858,1.9828 19.9962,2.3225 4.8105,0.3396 9.0098,1.0438 9.3317,1.5648 0.322,0.5209 0.2926,2.6807 -0.065,4.7993 -23.50956,3.19273 -39.85635,18.50298 -46.6669,28.20426 -7.58651,5.3453 -9.53601,0.13 -6.2555,-16.73456 3.3455,-17.1983 4.0788,-15.464 -7.84021,-18.543 -20.424,-5.2759 -29.2254,-8.0839 -35.6329,-11.3685 -3.5911,-1.8408 -6.8866,-3.1261 -7.3232,-2.8563 -0.4366,0.2699 -0.7938,1.5679 -0.7938,2.8846 0,5.6821 -4.8681,12.488 -8.9323,12.488 -3.1424,0 -11.5586,-4.287 -15.3177,-7.8024 -3.6223,-3.3875 -3.5383,-6.851 0.3584,-14.7662 l 3.1083,-6.3141 -8.3583,-9.5768 c -4.5972,-5.2673 -9.9974,-12.26997 -12.0006,-15.56157 -5.9568,-9.7882 -9.3305,-28.626 -6.4899,-36.2384 z m 8.4989,22.5353 c 1.729,6.2353 4.682,11.6287 9.6332,17.5948 6.3921,7.70217 10.9539,12.12937 12.4982,12.12937 0.9663,0 2.2804,0.6308 2.9203,1.4019 1.1556,1.3924 5.9642,3.0487 6.7038,2.3091 0.2125,-0.2125 -0.2894,-1.7409 -1.1153,-3.3964 -1.1739,-2.3532 -2.1917,-3.0297 -4.6642,-3.1 -6.356,-0.1807 -9.3319,-7.21457 -3.0523,-7.21457 6.3817,0 20.1342,-6.6261 20.1881,-9.7269 0.012,-0.6749 1.0825,-1.9223 2.3794,-2.772 2.7846,-1.8246 6.1481,-8.7397 5.3115,-10.92 -0.3309,-0.8623 0.191,-2.0821 1.1998,-2.8037 2.6079,-1.8657 7.1307,-12.4331 7.1307,-16.6607 0,-3.6102 -0.054,-3.6571 -6.25,-5.4255 -9.1853,-2.6217 -16.9599,-3.4787 -28.784,-3.1731 -12.8214,0.3313 -18.0752,1.791 -22.5492,6.2651 -3.2952,3.2952 -3.4168,3.6898 -3.4168,11.0884 0,4.4184 0.7916,10.5267 1.8668,14.4042 z m 22.6985,-13.5131 c 1.52,-2.8014 5.273,-4.4224 7.9026,-3.4134 1.9198,0.7367 3.0963,5.5149 1.8604,7.5555 -0.5314,0.8773 -2.6904,2.4521 -4.7978,3.4995 -6.67275,3.94038 -6.68285,-4.40749 -4.9652,-7.6415 z m -2.8,67.88487 c 0.4041,0.6312 2.9534,2.3263 5.6653,3.7669 5.7598,3.0597 6.5306,2.5271 6.5541,-4.5281 0.012,-3.7008 -0.5236,-5.1526 -2.7083,-7.3373 l -2.7236,-2.7236 -3.7764,4.0485 c -3.9348,4.2183 -4.2266,4.8749 -3.0111,6.7736 z m 27.2347,-11.35 c 0.5467,-3.9815 2.4935,-5.4686 3.4039,-2.6002 0.7964,2.5092 4.3359,4.52 6.6586,3.7827 2.8081,-0.8912 2.4107,-2.0256 -1.8125,-5.1735 -2.0625,-1.5374 -3.975,-3.0228 -4.25,-3.3009 -0.275,-0.2781 -0.95,-0.5609 -1.5,-0.6285 -0.55,-0.067 -2.9125,-0.4103 -5.25,-0.7618 -3.6272,-0.5454 -4.2547,-0.3808 -4.2818,1.1228 -0.017,0.969 -0.6913,2.6337 -1.4974,3.6993 -1.3651,1.8048 -1.1404,2.128 3.2818,4.7194 l 4.7474,2.7819 z m -1.5921,-16.6552 c 5.8531,0.8023 7.2224,-1.4666 3.2704,-5.41867 -2.4609,-2.4608 -2.704,-2.5105 -4.4691,-0.913 -1.0267,0.9291 -2.3038,1.68927 -2.838,1.68927 -0.5342,0 -1.5142,0.543 -2.1778,1.2066 -1.6057,1.6056 0.2181,2.6139 6.2145,3.4358 z m 10.9827,-13.17867 c 3.1444,1.1113 4.5687,-0.2909 4.5941,-4.5226 0.015,-2.4741 -2.4115,-6.9528 -3.2178,-5.9395 -1.9244,2.4184 -4.6685,7.6979 -4.4173,8.4984 0.1726,0.55 1.541,1.4337 3.041,1.9637 z m 3.1745,20.56107 c 6.7196,2.5547 8.6597,-0.089 5.0827,-6.9264 -3.0182,-5.76917 -5.6413,-6.65927 -5.6631,-1.9217 -0.01,1.8278 -0.4516,3.9983 -0.9847,4.8233 -1.4821,2.2933 -1.2206,2.9656 1.5651,4.0248 z m 9.3399,20.8991 c 1.1056,0.06 1.0523,-0.3135 -0.25,-1.7526 -3.2881,-3.6333 -1.2422,-6.2573 2.809,-3.6029 1.3863,0.9083 3.199,1.3911 4.0283,1.0729 2.574,-0.9877 1.6312,-4.0573 -1.765,-5.7461 l -3.2273,-1.6047 -4.5982,4.6047 -4.5981,4.6048 3.0981,1.1739 c 1.704,0.6457 3.7304,1.2082 4.5032,1.25 z m -5.4281,-61.92387 c 0.8123,0 2.2141,1.125 3.115,2.5 1.9539,2.982 2.5047,3.0521 5.4214,0.6903 2.139,-1.732 2.1662,-1.9425 0.6341,-4.9053 -1.7646,-3.4123 -4.3336,-6.285 -5.6207,-6.285 -0.8689,0 -4.9807,5.9502 -5.0099,7.25 -0.01,0.4125 0.6478,0.75 1.4601,0.75 z m 7.7456,21.4433 c 1.24,0.8686 4.2835,1.5567 6.885,1.5567 6.6704,0 7.9188,-2.215 7.3713,-13.0786 -0.324,-6.4282 -0.8457,-8.7327 -2.3079,-10.1949 -1.8524,-1.8524 -1.9019,-1.8105 -2.5345,2.1455 -0.7452,4.6606 -5.8035,10.116 -9.3864,10.1234 -1.9522,0 -2.25,0.5266 -2.25,3.9479 0,2.9413 0.5647,4.3389 2.2225,5.5 z m 3.589,19.04517 c -0.4312,3.6938 -0.815,3.3945 8.1467,6.3532 1.9021,0.628 3.7946,0.8054 4.2057,0.3944 1.3956,-1.3956 -1.4221,-9.7217 -4.3404,-12.8256 -2.0519,-2.1824 -3.9018,-3.127 -6.3007,-3.2172 -3.35,-0.1259 -3.3818,-0.087 -2.3529,2.8644 0.5737,1.6457 0.8624,4.5395 0.6416,6.4308 z m 12.6201,26.4986 6.43171,1.2136 4.7848,-4.5849 c 10.1056,-9.91758 3.33933,-32.84739 -2.2317,-44.86877 -1.8499,-3.8793 -3.414,-4.0796 -3.4202,-0.438 0,1.2051 -0.8611,3.5971 -1.9091,5.3157 -1.90231,3.1197 -1.90131,3.1329 0.6166,8.22047 3.2717,6.6109 4.2677,17.0232 1.9647,20.5381 -0.8804,1.3436 -2.95,2.7393 -4.59921,3.1015 -2.1186,0.4653 -3.713,1.8846 -5.4338,4.8369 -1.3395,2.2981 -2.4804,4.4648 -2.5354,4.8151 -0.055,0.3502 2.7942,1.1828 6.3316,1.8503 z m 0.8256,-69.95497 c 2.94021,3.7114 4.72141,4.3794 6.21861,2.3319 0.6719,-0.919 2.6831,-2.3893 4.4693,-3.2674 4.2551,-2.0919 6.9405,-6.4685 5.4347,-8.8573 -3.0233,-4.7962 -20.85791,0.4664 -18.89721,5.5761 0.2925,0.7621 1.541,2.6596 2.7746,4.2167 z m 11.28261,99.70518 c 12.92195,-13.81424 21.70724,-15.49744 21.70724,-15.49744 l -5.44284,-0.91697 c -15.22878,-2.56565 -14.0704,-3.6321 -15.9172,5.4271 -2.1461,10.5278 -2.1949,10.98731 -0.3472,10.98731 z"
       id="path3387-8"
       inkscape:connector-curvature="0"
       sodipodi:nodetypes="scscccssszccsccccsssscssccsscccsssccccsssssscccsccccsscssssscscsssscssssssscsscccsssccsssccccccssscscscsccscscsccsccssccsccscsscsscssssssccssc" />
    <path
       sodipodi:nodetypes="sssssssssssscccsssscscsssscssssssssscsssssssccssssssscsscsssssssccscssssscssssssssssscssssssscsscssssssssscccsssssssssscssssssscsssssssssssssssssssscsssscsssscssssssssssssscssscscc"
       inkscape:connector-curvature="0"
       id="path3444"
       d="m 374.39904,587.11623 c 2.3144,-8.43495 5.3535,-13.41025 11.4937,-18.81627 7.6957,-6.77562 18.4787,-13.27997 26.8383,-16.18907 8.5302,-2.96846 29.4725,-1.66209 44.1351,2.75312 3.4955,1.05255 6.533,1.91372 6.75,1.91372 0.2171,0 0.3947,-1.40938 0.3947,-3.13197 0,-1.72258 0.8985,-4.58577 1.9967,-6.36265 1.6649,-2.69386 2.9716,-3.43759 7.8642,-4.47587 4.6549,-0.98782 6.3607,-0.99038 8.2533,-0.0124 3.9969,2.06531 6.8858,5.21491 6.8858,7.50715 0,3.13733 -5.692,10.53321 -9.0952,11.81777 -1.5977,0.60303 -2.9048,1.38797 -2.9048,1.7443 0,0.35633 1.6875,1.78263 3.75,3.16955 11.4865,7.72407 29.2917,28.80957 36.7639,43.53711 13.17805,15.29727 29.46718,0.78511 48.9861,-4.30448 4.95,-1.48068 10.4094,-3.03697 12.132,-3.45842 1.7227,-0.42146 3.622,-1.06904 4.2207,-1.43906 1.5955,-0.9861 6.9025,2.06227 7.641,4.38903 0.8932,2.81445 0.1299,3.65293 -6.1052,6.70597 -6.6386,3.25061 -11.2677,8.18082 -20.6123,21.95351 -5.534,8.15625 -7.5176,13.56642 -8.7484,23.86045 -0.4603,3.85 -1.4001,8.97342 -2.0884,11.38538 -0.9533,3.34083 -0.9761,4.82628 -0.095,6.23643 2.0477,3.2788 1.3626,4.63349 -2.594,5.12934 -2.0625,0.25848 -4.5524,0.0589 -5.533,-0.44347 -2.3203,-1.18864 -10.8653,-18.94881 -14.3415,-29.80768 -1.4966,-4.675 -3.0237,-8.85785 -3.3935,-9.2952 -0.3698,-0.43736 -4.9045,1.36265 -10.0772,4.00001 -9.5156,4.85168 -12.7833,6.04229 -29.9048,10.89585 -12.2391,3.46951 -22.1394,5.30983 -28.8333,5.35965 -2.9333,0.0218 -5.1596,0.37719 -4.9473,0.78969 2.6313,5.11177 3.8244,8.93954 3.3613,10.78441 -0.7113,2.83425 -10.2032,11.58406 -15.0737,13.89528 -4.0809,1.9365 -7.0577,1.56445 -10.6305,-1.32865 -3.302,-2.67377 -3.1471,-8.81722 0.4161,-16.50332 1.5049,-3.24625 2.6093,-6.02915 2.4543,-6.18422 -0.1551,-0.15507 -2.1526,-0.50742 -4.4389,-0.783 -5.9883,-0.72179 -20.8879,-6.11781 -25.8389,-9.35773 -7.5567,-4.94506 -19.1895,-16.28037 -22.9348,-22.34834 -8.6579,-14.02679 -10.5584,-27.50479 -6.146,-43.58594 z m 7.8338,29.6615 c 1.1412,3.025 3.3612,7.81018 4.9333,10.63373 3.1527,5.66227 14.425,16.75322 20.1668,19.84234 l 3.6729,1.97606 c 14.28976,-18.76344 37.76713,-26.46531 26.8983,-91.51809 -0.749,-0.46288 -5.8689,-0.74989 -11.3775,-0.63781 -9.5925,0.19516 -10.3897,0.38658 -18.8623,4.52906 -12.4303,6.07749 -22.6338,16.09139 -25.1419,24.67471 -3.8241,13.08702 -3.8986,20.9335 -0.2896,30.5 z m 28.7375,-41.81194 c 1.6277,-1.20343 3.808,-2.18806 4.845,-2.18806 4.918,0 7.0459,8.63668 3.1565,12.81144 -2.4249,2.60288 -2.2889,2.58746 -5.981,0.67821 -5.6304,-2.91158 -6.5338,-7.96477 -2.0205,-11.30159 z m 22.2048,69.74327 c 2.6522,-1.39751 3.7982,-2.82834 3.8204,-4.77001 0.01,-0.73627 -1.4806,0.16373 -3.3088,2 -3.7623,3.77878 -3.9064,4.55883 -0.5116,2.77001 z m 5.7348,10.78817 c 9.646,-0.62493 13.1009,-2.02396 13.1009,-5.30505 0,-1.15746 0.8061,-2.83394 1.7912,-3.72551 1.6565,-1.49905 2.0328,-1.47419 5,0.33031 2.2437,1.36447 3.2088,2.70769 3.2088,4.46606 0,3.38476 2.5462,3.3155 17.0608,-0.46405 2.39173,-0.56968 33.44813,-5.94681 20.8276,-12.65576 -0.8594,-1.0355 -2.5212,-1.41986 -5.0826,-1.17559 -2.2641,0.21592 -3.8058,-0.0708 -3.8058,-0.70778 0,-0.5889 2.4577,-3.07579 5.4616,-5.52643 8.7001,-7.09779 12.0694,-18.79421 6.5312,-22.67328 -2.357,-1.65091 -2.6034,-4.1109 -0.4928,-4.92079 0.825,-0.31659 1.5,-1.14736 1.5,-1.84617 0,-0.69882 -0.675,-1.83077 -1.5,-2.51546 -0.825,-0.68469 -1.5,-0.82079 -1.5,-0.30244 0,0.51834 -1.6269,2.84314 -3.6154,5.1662 -3.3666,3.93308 -3.5042,4.34661 -2,6.00874 0.8885,0.98174 1.6137,2.87455 1.6117,4.20624 -0.01,3.61331 -3.6976,8.98224 -7.0458,10.24604 -3.2897,1.24173 -3.574,2.26684 -1.4187,5.11635 2.469,3.2643 1.8633,8.81615 -1.2818,11.74959 -5.603,5.22589 -11.3307,6.72857 -14.3061,3.75323 -2.6434,-2.64344 -2.4415,-3.94395 0.6125,-3.94395 2.3627,0 8.4436,-5.20176 8.4436,-7.22286 0,-1.33387 -3.9276,-4.77714 -5.4491,-4.77714 -1.5451,0 -6.5509,-5.9491 -6.5509,-7.78537 0,-1.75822 1.9706,-2.48395 3.4379,-1.26614 0.7427,0.61636 3.5355,1.36601 6.2062,1.66588 4.8339,0.54275 4.8662,0.52671 7.1358,-3.53457 l 2.2798,-4.0798 -2.395,0 c -3.4384,0 -7.8418,-3.75267 -7.4691,-6.36539 0.2378,-1.6674 1.1085,-2.20155 3.9783,-2.44044 2.7579,-0.22958 4.2803,-1.1022 6.1061,-3.5 4.176,-5.48424 4.2145,-7.07961 0.2439,-10.10812 -3.5304,-2.6928 -4.425,-5.28499 -2.4911,-7.21883 1.5656,-1.56567 0.3323,-3.44737 -5.3532,-8.16695 l -5.1796,-4.29974 -0.2995,5.53661 c -0.2679,4.9514 -0.6555,5.80811 -3.6673,8.10534 l -3.3678,2.56873 3.9173,6.79446 c 5.1632,8.95554 5.1969,12.44174 0.1673,17.34203 -5.4274,5.2879 -12.1146,8.04405 -16.1251,6.64601 -1.7187,-0.59915 -3.1249,-1.68353 -3.1249,-2.40975 0,-0.72621 -0.2725,-2.03043 -0.6055,-2.89827 -0.4898,-1.27652 -0.06,-1.47424 2.25,-1.03524 2.144,0.40745 4.1013,-0.28104 7.8555,-2.76333 6.1387,-4.0589 6.703,-6.47468 2.6983,-11.55281 -1.6198,-2.05387 -3.8526,-5.23462 -4.9618,-7.06832 l -2.0169,-3.33401 -3.2638,2.9162 -3.2638,2.91621 2.2576,3.05361 c 1.3676,1.84975 2.0227,3.78856 1.6617,4.91781 -0.7291,2.28023 -7.5905,9.87289 -9.4845,10.49516 -1.038,0.34102 -1.1959,1.50054 -0.647,4.74978 0.6291,3.72343 1.0057,4.22556 2.8142,3.75262 2.3786,-0.62203 8.1318,1.73709 11.4407,4.69132 2.7124,2.42167 3.7614,7.2402 2.3719,10.89487 -1.3279,3.49273 -7.8883,7.80736 -12.8914,8.47841 -3.2165,0.43142 -4.3161,0.11011 -6.0715,-1.77412 -2.8546,-3.06404 -2.8312,-5.33689 0.047,-4.58417 4.2058,1.09986 12.0863,-4.46395 10.3354,-7.29702 -0.3114,-0.50381 -1.864,-1.56347 -3.4503,-2.35481 -2.7459,-1.36985 -2.9829,-1.30519 -4.9457,1.34967 -1.1339,1.53366 -3.4271,3.08837 -5.096,3.45493 -3.4147,0.74999 -3.6759,1.75378 -1.5282,5.87186 1.729,3.31523 1.9187,6.9732 0.4993,9.62547 -1.0397,1.94265 -6.3413,5.01023 -8.6591,5.01023 -0.7405,0 -1.3464,0.51661 -1.3464,1.14802 0,0.82122 2.5333,0.9839 8.8991,0.57147 z m -1.3639,25.28051 c 1.0898,0 6.0516,-3.58795 8.7722,-6.34322 3.1704,-3.2108 3.4253,-7.90594 0.4597,-8.46825 -2.0196,-0.38296 -6.3846,3.99661 -8.2836,8.31147 -1.3773,3.12929 -1.869,6.5 -0.9483,6.5 z m 10.4648,-81.00001 c 0.55,0 1,-0.9 1,-2 0,-1.1 -0.45,-2 -1,-2 -0.55,0 -1,0.9 -1,2 0,1.1 0.45,2 1,2 z m 1.6117,-15 c 2.407,0 2.6739,-4.54385 0.5073,-8.63938 l -2.0424,-3.86062 0.092,6.25 c 0.067,4.53516 0.4629,6.25 1.4426,6.25 z m 7.8882,-7.8284 c 1.3643,2.93062 2.485,6.1159 2.4903,7.0784 0.014,2.42363 1.0454,2.20077 4.9664,-1.07264 3.0651,-2.55886 3.3656,-3.28312 3.2151,-7.75 -0.1324,-3.93143 -0.6718,-5.3392 -2.6688,-6.96492 -1.3766,-1.12067 -2.5029,-2.58317 -2.5029,-3.25 0,-0.66684 -0.17,-1.21244 -0.3779,-1.21244 -0.2078,0 -1.8953,-0.63323 -3.75,-1.40719 l -3.3721,-1.40718 -0.2403,5.32878 c -0.1779,3.9449 0.4039,6.71256 2.2402,10.65719 z m 14.1272,-15.76122 c 1.7913,0.68742 2.862,-0.4833 6.4522,-7.05546 1.2841,-2.35078 2.0503,-4.55863 1.7026,-4.90633 -0.3477,-0.34771 -2.2564,-0.0449 -4.2415,0.67297 -2.5289,0.91445 -3.7749,2.06453 -4.1624,3.8418 -0.3041,1.39515 -0.7031,2.98664 -0.8865,3.53664 -0.7364,2.20748 -0.4146,3.31552 1.1356,3.91038 z m 37.4323,72.70263 c 0.7923,-0.21284 2.1235,-0.45914 2.9582,-0.54734 2.5297,-0.2673 3.7276,-1.41419 4.4395,-4.25073 0.5346,-2.13013 0.1887,-3.07349 -1.6299,-4.44529 -2.2795,-1.71941 -2.3427,-1.68861 -5.0167,2.44451 -2.8457,4.39826 -3.183,7.45213 -0.7511,6.79885 z m 25.577,5.82082 c 1.7081,7.52783 9.9728,27.79028 10.9405,26.82258 0.27,-0.27001 1.1772,-4.93816 2.0159,-10.37366 2.2488,-14.57353 3.795,-18.35063 12.4186,-30.33736 4.3036,-5.98181 7.6226,-11.07805 7.3757,-11.32496 -0.6878,-0.68775 -12.4428,2.69893 -16.3871,4.72121 -1.925,0.98696 -5.075,2.97738 -7,4.42315 -5.59755,3.4526 -10.27867,10.89327 -9.3636,16.06904 z"
       style="fill:#ffffff" />
    <path
       style="fill:#ffffff"
       d="m 335.06834,424.30774 c 11.92311,-29.52463 35.94753,-41.7233 60.6027,-41.21124 10.6981,0.2309 14.1699,0.67111 17.3284,2.19713 l 3.9499,1.90838 2.409,-5.44714 c 2.799,-6.32913 4.4487,-6.79308 11.2394,-3.16095 4.6259,2.47424 8.1777,6.95465 8.1882,10.32896 0.01,3.21538 -3.8392,7.55291 -6.3588,7.16555 -1.3114,-0.20162 -1.9806,-0.89747 -1.7353,-1.80443 1.3752,-5.08489 1.1565,-6.57518 -1.3041,-8.88683 l -2.5593,-2.40436 -1.4306,3.40235 c -0.7868,1.87129 -1.1324,3.92719 -0.768,4.56866 1.0405,1.83124 6.4691,7.59433 9.7437,10.34392 8.0786,6.78347 17.5257,23.72827 21.6465,38.82616 l 2.2725,8.32616 c 8.14052,-2.46287 17.1426,-3.30178 24.95,-6.2888 4.64794,-1.93593 9.7345,6.08665 5.7367,10.52456 -21.77074,9.59866 -24.71679,32.57267 -27.9367,43.29815 -1.41984,2.16858 -2.99274,6.05719 -5.1431,7.25657 -1.4441,0.77283 -2.4812,0.55058 -4.3722,-0.93684 -2.2411,-1.76283 -2.4499,-2.55266 -2.1757,-8.22799 1.2515,-25.89558 1.3643,-33.4389 0.5192,-34.73342 -0.8002,-1.22563 -1.7104,-1.26443 -5.7642,-0.24569 -2.6477,0.66537 -9.2433,1.65881 -14.6569,2.20764 -14.7119,1.49148 -20.9357,2.17017 -23.1571,2.52522 -1.1,0.17581 -2.7484,0.3531 -3.6631,0.39397 -1.4251,0.0637 -1.503,0.49859 -0.5444,3.03838 1.5313,4.05686 0.096,7.61038 -4.6072,11.40939 -5.0803,4.10323 -10.5178,4.24863 -14.3818,0.38457 -2.2461,-2.24611 -2.7055,-3.60272 -2.75,-8.12175 l -0.053,-5.42523 -6.7773,-0.66876 c -21.6591,-2.13727 -40.8425,-16.97152 -40.6969,-31.47043 0.014,-1.41452 1.0267,-5.49686 2.25,-9.07186 z m 6.1349,15.79966 c 1.7729,3.39358 6.0504,7.35581 10.5893,9.8088 1.925,1.04035 3.725,2.15729 4,2.48209 1.1773,1.3905 10.9579,3.98452 17.2168,4.56621 1.51751,-4.00998 2.35528,-6.27931 7.5332,-11.49084 7.7794,-7.79687 11.5484,-14.21417 13.2501,-22.56082 2.0775,-10.18988 -0.7145,-26.03582 -5.4966,-31.19582 l -2.4275,-2.61933 -5.788,1.77281 c -12.9743,3.97391 -20.2143,8.8537 -30.3221,20.43724 -8.1,9.28258 -11.9611,22.28026 -8.5552,28.79966 z m 30.5236,-36.76448 c 3.2107,-1.71836 4.8377,-1.2007 7.5973,2.41733 3.0716,4.02712 2.9179,6.9096 -0.3935,7.38037 -3.8905,0.55309 -6.7307,-0.64337 -7.9667,-3.35596 -1.6541,-3.63035 -1.4622,-5.25095 0.7629,-6.44174 z m 11.4407,52.96482 c 1.3062,0 3.7123,-0.26746 5.3468,-0.59436 2.8281,-0.56562 2.9671,-0.8312 2.875,-5.49383 -0.053,-2.69472 -0.3218,-4.88745 -0.5968,-4.87275 -0.275,0.0147 -2.2879,1.81193 -4.4732,3.99383 -1.32906,1.68069 -7.54316,6.74332 -3.1518,6.96711 z m 6.5483,19 c 2.5895,0 8.0767,-4.73691 8.0767,-6.97232 0,-1.81646 -2.9798,-2.92111 -6.1186,-2.26828 -3.5351,0.73523 -5.3374,9.2406 -1.9581,9.2406 z m 7.8066,-35.36033 c 4.4684,-2.31069 5.6251,-4.10777 4.2718,-6.63651 -0.6254,-1.16858 -1.5371,-1.98485 -2.0259,-1.81393 -0.9496,0.33199 -5.8886,9.0907 -5.4329,9.63451 0.1492,0.17805 1.5833,-0.35478 3.187,-1.18407 z m 3.2503,-41.87437 c 0.8737,-0.16827 1.5198,-1.34959 1.5198,-2.779 0,-1.95427 -0.5747,-2.55269 -2.6859,-2.79653 -2.6111,-0.30161 -2.6534,-0.22432 -1.5198,2.77899 0.7085,1.87709 1.7624,2.97439 2.6859,2.79654 z m 3.7005,52.46146 c 5.3647,-1.99188 6.359,-3.59995 3.2536,-5.26194 -1.6167,-0.86522 -2.8187,-0.88288 -4.6079,-0.0677 -1.3313,0.60658 -3.3109,1.10288 -4.3991,1.10288 -1.8732,0 -1.8966,0.15866 -0.4391,2.97718 l 1.5396,2.97718 z m -2.123,-30.39 c 0.1554,0.18522 1.0528,-0.83881 1.9942,-2.27562 1.6212,-2.47427 1.6172,-2.71677 -0.075,-4.58676 -0.9827,-1.08591 -2.1242,-1.97438 -2.5366,-1.97438 -0.6623,0 -0.1049,7.97566 0.6175,8.83676 z m 5.0893,9.064 c 1.8959,2.21417 4.353,1.71444 4.353,-0.8853 0,-2.35927 -2.3517,-4.20146 -4.3733,-3.42572 -2.06,0.79052 -2.0549,1.88735 0.02,4.31102 z m 0.7084,-22.42941 c 1.6864,2.30627 4.2569,1.47375 5.7815,-1.8725 0.9292,-2.03941 0.7744,-2.89618 -0.9106,-5.0383 l -2.0302,-2.58102 -2.0152,3.26024 c -2.4872,4.02376 -2.4799,3.96906 -0.8255,6.23158 z m 2.6446,-11.52823 c 0,0.42874 1.125,0.56448 2.5,0.30163 2.9927,-0.5721 3.2084,-1.79528 0.5657,-3.20957 -2.8159,-1.50703 -4.3719,-1.27545 -3.6727,0.54661 0.3339,0.86998 0.607,1.93258 0.607,2.36133 z m 6,53.84904 c 0,2.93367 1.3464,2.7976 3.0062,-0.3038 1.1922,-2.22756 1.1265,-2.67639 -0.581,-3.9682 -1.0589,-0.8011 -2.4877,-1.47086 -3.1752,-1.48836 -0.6875,-0.0175 -1.2643,-0.3693 -1.2818,-0.7818 -0.073,-1.72771 -2.9244,-4.39513 -3.9923,-3.73511 -0.7711,0.47658 0.041,1.9419 2.4335,4.3923 1.9748,2.02242 3.5906,4.67066 3.5906,5.88497 z m 0,-24.6715 c 4.5306,4.76267 4.9572,7.23149 1.8257,10.56489 -2.1344,2.27199 -1.5399,2.90947 1.5925,1.70746 2.4633,-0.94526 2.236,-11.0506 -0.2664,-11.84484 -1.0166,-0.32264 -2.3569,-1.70296 -2.9786,-3.06739 -1.266,-2.77865 -0.9783,-3.0005 1.7124,-1.32014 1.507,0.94113 2.547,0.73511 5.4991,-1.08938 4.5368,-2.80393 6.2251,-5.63154 4.5602,-7.63766 -0.6678,-0.80458 -0.9418,-2.69926 -0.6218,-4.29917 0.4507,-2.25351 -0.012,-3.42025 -2.1802,-5.49752 -3.4517,-3.30694 -5.5341,-3.48228 -4.5951,-0.38691 0.8961,2.954 0.8954,2.84237 0.04,5.87139 -0.4071,1.44176 -2.5059,4.34559 -4.664,6.45295 -2.1582,2.10735 -3.9239,4.39628 -3.9239,5.0865 0,0.69022 1.8,3.14714 4,5.45982 z m 11.1293,20.67667 c 1.4948,0.17958 3.1864,-0.48867 4.2711,-1.6873 1.5491,-1.71169 1.6344,-2.4746 0.6203,-5.54733 -1.3525,-4.09808 -3.0207,-4.71075 -3.0207,-1.10938 0,1.4555 -1.003,3.18406 -2.4661,4.25 -2.974,2.16671 -2.7522,3.69186 0.5954,4.09401 z m 3.189,-18.51784 c 1.4497,-0.27713 3.0832,0.25892 4.2179,1.3841 1.9488,1.93251 1.8395,1.31709 -0.6725,-3.78566 l -1.2908,-2.62207 -2.7472,2.03109 c -3.1581,2.33493 -2.9418,3.64906 0.4926,2.99254 z m 0.9317,26.29978 c 7.2872,-1.00326 16.0125,-2.5061 16.251,-2.79905 1.8099,-2.22353 2.2506,-4.89063 1.379,-8.34553 -2.2429,-8.88939 -2.6422,-10.18434 -3.7067,-12.01821 -1.0567,-1.82037 -1.114,-1.80406 -1.1429,0.32505 -0.017,1.23284 -0.9304,2.80358 -2.0304,3.49054 -1.57,0.98047 -2,2.33203 -2,6.28597 0,7.28229 -1.869,9.48196 -8.0567,9.48196 -4.3417,0 -4.9433,0.25341 -4.9433,2.08219 0,1.87476 0.4234,2.0239 4.25,1.49708 z m 6.2931,-33.92435 c 2.4595,0.94378 2.6685,-0.17755 0.5152,-2.76326 l -1.9918,-2.39166 -0.033,2.28138 c -0.018,1.25477 0.6612,2.54786 1.5099,2.87354 z m 18.3039,70.75051 c 0.92657,-8.85486 6.11969,-28.53169 22.837,-38.40543 -10.74721,3.28245 -15.31025,1.88876 -21.4078,6.2162 -0.8374,0.67416 -1.3202,5.61104 -1.5289,15.63454 -0.1678,8.05709 -0.4046,14.9602 -0.5262,15.34024 -0.1216,0.38004 0.16,0.92654 0.6259,1.21445 z"
       id="path3461"
       inkscape:connector-curvature="0"
       sodipodi:nodetypes="ccscsssssscsssscccccsssssscsssscssccsssccsscsssssssscscsccssssssscssssssssssscssssssssssssscssssssssssscsssssssssssssssssssssssssssssssssccssssscscsccsssccccsc" />
  </g>
</svg>
