<?xml version="1.0" encoding="UTF-8" standalone="no"?>
<!-- Created with Inkscape (http://www.inkscape.org/) -->

<svg
   xmlns:dc="http://purl.org/dc/elements/1.1/"
   xmlns:cc="http://creativecommons.org/ns#"
   xmlns:rdf="http://www.w3.org/1999/02/22-rdf-syntax-ns#"
   xmlns:svg="http://www.w3.org/2000/svg"
   xmlns="http://www.w3.org/2000/svg"
   xmlns:sodipodi="http://sodipodi.sourceforge.net/DTD/sodipodi-0.dtd"
   xmlns:inkscape="http://www.inkscape.org/namespaces/inkscape"
   width="127.05137"
   height="236.57956"
   id="svg3012"
   version="1.1"
   inkscape:version="0.48.5 r10040"
   sodipodi:docname="hearts.svg">
  <defs
     id="defs3014" />
  <sodipodi:namedview
     id="base"
     pagecolor="#ffffff"
     bordercolor="#666666"
     borderopacity="1.0"
     inkscape:pageopacity="0.0"
     inkscape:pageshadow="2"
     inkscape:zoom="0.7"
     inkscape:cx="157.59638"
     inkscape:cy="71.870348"
     inkscape:document-units="px"
     inkscape:current-layer="layer1"
     showgrid="false"
     fit-margin-top="0"
     fit-margin-left="0"
     fit-margin-right="0"
     fit-margin-bottom="0"
     inkscape:window-width="480"
     inkscape:window-height="410"
     inkscape:window-x="1118"
     inkscape:window-y="192"
     inkscape:window-maximized="0" />
  <metadata
     id="metadata3017">
    <rdf:RDF>
      <cc:Work
         rdf:about="">
        <dc:format>image/svg+xml</dc:format>
        <dc:type
           rdf:resource="http://purl.org/dc/dcmitype/StillImage" />
        <dc:title />
      </cc:Work>
    </rdf:RDF>
  </metadata>
  <g
     inkscape:label="Layer 1"
     inkscape:groupmode="layer"
     id="layer1"
     transform="translate(-327.39278,-416.68316)">
    <path
       sodipodi:nodetypes="ccccsscsccscccsscsssssssc"
       style="fill:#ffffff"
       d="m 427.16283,607.1115 3.4697,4.0536 3.0416,-3.0415 c 3.4916,-3.4916 8.3493,-4.0476 13.2451,-1.5159 2.6521,1.3715 2.9503,2.0161 2.9503,6.3779 0,5.4038 -1.5114,9.6195 -6.2266,17.3675 -3.8088,6.2587 -12.6709,18.0939 -13.8992,18.5622 -0.4808,0.1834 -0.8742,0.9854 -0.8742,1.7823 0,2.0151 -4.069,3.3583 -6.1799,2.0399 -0.9375,-0.5854 -2.4178,-2.8849 -3.2894,-5.11 -0.8717,-2.225 -4.2735,-8.3205 -7.5596,-13.5455 -8.7035,-13.839 -10.95,-18.7811 -10.9613,-24.1136 2.62839,-16.79019 19.69869,-10.4629 26.2835,-2.8569 z m -18.3704,0.1147 c -2.0976,3.9193 -0.3736,9.5657 5.8551,19.1762 3.2722,5.0488 6.9941,10.9427 8.271,13.0975 l 2.3217,3.9179 3.3938,-3.9179 c 9.7189,-11.2197 17.8224,-29.4179 13.0996,-29.4179 -1.1357,0 -7.6905,10.46 -8.4492,13.4829 -0.4428,1.7643 -1.3103,2.5171 -2.9009,2.5171 -3.1771,0 -4.1633,-1.6404 -4.9633,-8.2559 -0.5565,-4.6017 -1.3569,-6.4565 -3.9915,-9.25 -2.723,-2.8873 -4.0068,-3.4941 -7.3921,-3.4941 -3.1651,0 -4.3577,0.4876 -5.2442,2.1442 z"
       id="path2984"
       inkscape:connector-curvature="0" />
    <path
       inkscape:connector-curvature="0"
       id="path2986"
       d="m 381.1677,417.06911 c 4.93057,1.21451 7.4362,4.34851 10.18177,12.73543 2.1658,6.61596 2.41927,8.70578 1.78056,14.68182 -1.24051,11.60664 -4.69722,24.71126 -11.6933,44.32998 -3.66212,10.26935 -6.50661,19.25028 -6.32118,19.95768 0.43718,1.66785 -2.56616,2.43814 -5.30421,1.36037 -1.17799,-0.46377 -3.16636,-2.61749 -4.41853,-4.78606 -1.2522,-2.16867 -4.22,-6.68806 -6.59511,-10.04308 -2.3751,-3.35501 -4.46816,-6.67169 -4.65128,-7.37029 -0.18314,-0.6987 -4.9461,-7.25074 -10.58431,-14.5602 -7.93857,-10.29176 -10.9765,-15.05741 -13.46595,-21.12467 -3.18032,-7.75091 -3.20036,-7.9031 -1.87178,-14.22651 1.54647,-7.36117 4.08205,-10.15572 9.56854,-10.54539 5.78903,-0.41117 10.54397,1.86466 15.78109,7.55326 l 4.85669,5.27525 1.27373,-4.836 c 3.41318,-12.95871 12.37329,-20.64064 21.46327,-18.40159 z m -10.42572,12.08131 c -2.66733,4.34594 -4.41737,13.75392 -3.98303,21.41195 0.62621,11.04114 -4.45862,9.77691 -11.90883,-2.96091 -5.71866,-9.77721 -9.31486,-13.51006 -13.25797,-13.76148 -2.74539,-0.175 -3.28705,0.21167 -5.00731,3.57445 -1.54262,3.01548 -1.68744,4.68775 -0.72303,8.34886 1.78295,6.76252 5.46635,14.55658 8.86714,18.75509 6.61932,8.17178 17.4345,22.99948 20.28329,27.80862 1.66158,2.80485 3.46703,5.23643 4.01229,5.40344 0.91608,0.28059 3.34234,-5.79392 9.88944,-24.75997 3.04937,-8.83387 6.78927,-27.49374 7.03522,-35.10224 0.23417,-7.24214 -2.59287,-14.47902 -5.77834,-14.79206 -3.08235,-0.30295 -7.10579,2.28912 -9.42887,6.07425 z"
       style="fill:#ffffff"
       sodipodi:nodetypes="sssssccsssscsscssssscsccccsscs" />
    <path
       sodipodi:nodetypes="ccccccscsssscccssscscsscsss"
       style="fill:#ffffff"
       d="m 358.78087,547.44859 c 1.18703,0.34056 3.50506,1.91548 5.15118,3.49978 l 2.9928,2.88058 2.78335,-2.89175 c 5.44232,-5.65446 10.89606,-5.81666 15.42588,-0.45873 4.55276,5.38488 4.43191,10.56579 -0.46434,19.91416 -4.43538,8.46811 -10.29268,25.63769 -9.9277,29.10081 0.50922,4.83164 -0.19303,6.65991 -2.64883,6.89581 -1.65641,0.15948 -3.01788,-1.25712 -6.09059,-6.33564 -2.17652,-3.59729 -4.00687,-7.01075 -4.06744,-7.58547 -0.0606,-0.57461 -2.36703,-3.8659 -5.12552,-7.31397 -9.29055,-11.61311 -11.561,-15.4004 -12.70927,-21.2008 -1.3967,-7.05557 -0.99492,-9.81237 1.96328,-13.46745 1.8218,-2.25104 3.30275,-3.00481 6.46121,-3.28852 2.25371,-0.20233 5.06884,-0.0895 6.25599,0.25119 z m -7.23248,8.92902 c -2.20558,5.64888 1.21995,14.20689 9.03176,22.56365 2.44955,2.6205 4.48676,5.07821 4.52717,5.46159 0.14411,1.36742 4.27633,4.32662 4.72889,3.38651 0.25356,-0.52698 1.68274,-3.99216 3.17589,-7.70058 1.49314,-3.70842 4.26549,-9.80427 6.16074,-13.54622 1.89523,-3.74206 3.35575,-7.65881 3.24561,-8.70392 -0.24637,-2.33765 -2.35126,-5.5634 -3.54793,-5.43729 -2.00818,0.21165 -6.35114,5.96734 -6.67225,8.84263 -0.64168,5.74701 -5.81747,5.22622 -9.17957,-0.92367 -3.18546,-5.82682 -5.15741,-7.71584 -7.76705,-7.44081 -1.71869,0.18114 -2.81105,1.21301 -3.70326,3.49811 z"
       id="path2988"
       inkscape:connector-curvature="0" />
    <path
       sodipodi:nodetypes="csscccssscccccccccscc"
       style="fill:#ffffff"
       d="m 429.1455,480.72174 c -3.78454,0.16958 -6.48661,3.99119 -6.86711,9.71244 -0.48413,7.27908 1.11397,31.43776 2.2334,33.76293 1.16849,2.42711 2.36115,2.99958 4.80217,2.30488 6.28719,-3.17514 15.76024,-9.03987 20.01825,-14.81571 2.62208,-4.27779 6.16501,-12.64018 4.81509,-15.11988 -1.17591,-2.1599 -7.9018,-3.22595 -10.89153,-1.39968 -2.83789,1.73355 -3.71744,1.45896 -3.77142,-1.17725 -0.0627,-3.06186 -2.88639,-9.04693 -5.36758,-11.37702 -1.49355,-1.40263 -3.00807,-1.9786 -4.9713,-1.89061 z m 3.08341,10.38048 c 0.66424,2.06817 1.27101,5.41086 1.34833,7.42829 0.28703,7.49167 2.77868,9.0088 8.23277,5.01275 4.98991,-3.83889 6.82237,-2.62301 5.47455,1.93094 -1.46323,4.83621 -3.62103,6.00045 -12.49715,10.51032 -4.57846,2.32637 -5.09446,2.3833 -5.14462,0.5675 -0.0306,-1.10992 -0.16228,-2.98793 -0.29243,-4.17319 -0.41896,-3.81318 -0.48175,-18.80105 -0.093,-22.18285 0.47836,-4.16078 1.43796,-3.86809 2.97162,0.90586 z"
       id="path2990"
       inkscape:connector-curvature="0" />
  </g>
</svg>
