<?xml version="1.0" encoding="UTF-8" standalone="no"?>
<!-- Created with Inkscape (http://www.inkscape.org/) -->

<svg
   xmlns:dc="http://purl.org/dc/elements/1.1/"
   xmlns:cc="http://creativecommons.org/ns#"
   xmlns:rdf="http://www.w3.org/1999/02/22-rdf-syntax-ns#"
   xmlns:svg="http://www.w3.org/2000/svg"
   xmlns="http://www.w3.org/2000/svg"
   xmlns:sodipodi="http://sodipodi.sourceforge.net/DTD/sodipodi-0.dtd"
   xmlns:inkscape="http://www.inkscape.org/namespaces/inkscape"
   width="338.98462"
   height="490.56021"
   id="svg3001"
   version="1.1"
   inkscape:version="0.48.5 r10040"
   sodipodi:docname="lanterns.svg">
  <defs
     id="defs3003" />
  <sodipodi:namedview
     id="base"
     pagecolor="#ffffff"
     bordercolor="#666666"
     borderopacity="1.0"
     inkscape:pageopacity="0.0"
     inkscape:pageshadow="2"
     inkscape:zoom="0.24748737"
     inkscape:cx="552.54785"
     inkscape:cy="368.20243"
     inkscape:document-units="px"
     inkscape:current-layer="layer1"
     showgrid="false"
     fit-margin-top="0"
     fit-margin-left="0"
     fit-margin-right="0"
     fit-margin-bottom="0"
     inkscape:window-width="1600"
     inkscape:window-height="837"
     inkscape:window-x="0"
     inkscape:window-y="27"
     inkscape:window-maximized="1"
     showguides="true"
     inkscape:guide-bbox="true">
    <sodipodi:guide
       orientation="0,1"
       position="176.35284,490.93199"
       id="guide3089" />
  </sodipodi:namedview>
  <metadata
     id="metadata3006">
    <rdf:RDF>
      <cc:Work
         rdf:about="">
        <dc:format>image/svg+xml</dc:format>
        <dc:type
           rdf:resource="http://purl.org/dc/dcmitype/StillImage" />
        <dc:title />
      </cc:Work>
    </rdf:RDF>
  </metadata>
  <g
     inkscape:label="Layer 1"
     inkscape:groupmode="layer"
     id="layer1"
     transform="translate(-219.50769,-291.0821)">
    <path
       style="fill:#ffffff"
       d="m 486.44913,291.08296 c -1.3855,-0.0392 -2.7561,1.26072 -2.8126,4.03125 -0.1128,5.53548 0.5147,121.22701 0.9063,157.125 -3.8126,1.5158 -10.553,10.23646 -7.9687,17.6875 1.1885,3.4268 1.8632,6.69345 1.5,7.28125 -0.3761,0.6083 -3.2419,0.9982 -6.6563,0.875 -4.2743,-0.1542 -6.267,0.1776 -6.9063,1.1875 -1.2184,1.9251 -1.1559,7.1931 0.125,10.5625 0.5788,1.5223 1.2526,4.77255 1.5,7.21875 0.2475,2.4462 0.9113,4.98455 1.4688,5.65625 0.752,0.9062 0.1731,1.3963 -2.25,1.875 -3.7958,0.7499 -11.9433,3.75685 -19.6875,7.28125 -13.001,5.9169 -24.5466,20.00535 -31.0937,37.90625 -1.624,4.44 -2.3218,9.10135 -2.7188,18.53125 -0.6279,14.9156 0.4935,18.9023 8.5625,30.9375 8.5398,12.73737 12.1414,15.4692 29.5937,22.5 9.9036,3.9896 10.0998,4.121 10.9688,8 1.3708,6.1189 4.6363,14.84755 5.8438,15.59375 1.3627,0.8422 12.4934,0.17975 28.75,-1.71875 6.875,-0.8029 14.6035,-1.34585 17.1562,-1.21875 8.2508,0.4105 9.3086,-2.8097 5.375,-16.375 -1.6934,-5.8396 -1.5243,-6.10205 9.4688,-12.84375 13.6043,-8.42637 23.2298,-16.87441 29.125,-33.28125 1.8219,-5.3523 2.0434,-7.74485 1.5937,-17.21875 -0.8677,-18.2823 -3.4568,-23.31775 -20.7187,-40.40625 -8.5396,-8.4537 -17.3313,-13.74115 -25.75,-15.53125 -1.7876,-0.38 -3.2288,-0.781 -3.2188,-0.875 0.007,-0.0938 0.6567,-2.6625 1.4688,-5.6875 0.8118,-3.025 1.49,-8.01155 1.5,-11.09375 0.01,-4.5723 -0.4367,-6.0911 -2.4376,-8.25 -2.0278,-2.188 -3.3259,-2.65625 -7.5,-2.65625 -2.7762,0 -5.0312,-0.3375 -5.0312,-0.75 0.002,-0.4125 1.1273,-2.95055 2.5,-5.65625 1.3727,-2.7057 2.4688,-6.57105 2.4688,-8.59375 0,-5.5757 -2.9887,-10.57341 -8.9688,-11.0625 l -0.0312,0 c -2.9477,-14.53318 -2.9556,-151.79474 -3.2188,-157 -0.1321,-2.61357 -1.5208,-3.99201 -2.9062,-4.03125 z m 0.0312,168.34375 c 1.0634,-0.0649 2.3046,0.007 3.7188,0.21875 3.9444,0.5915 4.3797,0.92545 4.3437,3.34375 -0.022,1.4788 -0.7487,4.03735 -1.625,5.65625 -0.8763,1.6188 -1.6355,4.57 -1.6875,6.5625 -0.0775,2.9533 -0.4628,3.58655 -2.0625,3.46875 -1.9624,-0.1446 -2.486,-0.8154 -4.3437,-5.5 -0.5454,-1.375 -1.5065,-3.74285 -2.125,-5.28125 -2.1352,-5.31082 -0.8268,-8.18748 3.7812,-8.46875 z m 5,27.0625 c 3.4709,0.01 5.7741,0.31194 7.5938,0.90625 3.7514,1.2253 4.027,1.52985 4.125,5.28125 0.0574,2.2 -0.0805,5.7451 -0.3126,7.875 l -0.4374,3.875 -4.1876,-0.59375 c -2.3002,-0.3375 -8.2829,-0.92215 -13.3124,-1.28125 l -9.1563,-0.65625 -1.5937,-4.96875 c -3.0722,-9.5122 -3.2259,-9.36525 9.625,-10.15625 3.0706,-0.18896 5.5737,-0.28695 7.6562,-0.28125 z m -8.0938,23.6875 c 6.4116,0.0384 13.1826,0.85455 20.6563,2.4375 13.7568,2.9138 17.7435,4.6884 23.2813,10.375 2.8052,2.8807 4.1584,5.12035 4.0312,6.65625 -0.1747,2.1114 -0.804,2.39355 -7.2188,3.03125 -11.2578,1.1191 -52.2721,1.39365 -61.5624,0.40625 -10.4988,-1.1158 -24.2092,-3.73655 -25.3438,-4.84375 -1.1946,-1.1656 8.811,-8.4827 15.9062,-11.625 9.9344,-4.3995 19.5641,-6.50146 30.25,-6.4375 z m -49.5624,20.8125 1.4687,3 c 1.6297,3.365 4.9561,4.28355 22.2813,6.21875 11.8613,1.3206 50.2912,1.3234 59,0 3.5749,-0.5433 8.8269,-0.989 11.6562,-1 4.2245,-0.0165 5.6903,-0.50685 8.125,-2.78125 l 2.9375,-2.78125 3.1875,3.53125 c 1.7448,1.9358 4.1144,5.43585 5.25,7.78125 1.1356,2.3453 2.302,6.9072 2.5938,10.125 l 0.5312,5.84375 -3.4062,0.59375 c -15.4792,2.7898 -58.9561,4.1859 -72.375,2.3125 -21.8743,-3.0538 -30.5761,-4.79715 -40.5,-8.09375 -5.6359,-1.8722 -10.6975,-3.85365 -11.25,-4.40625 -1.1035,-1.1035 3.6229,-11.12925 8,-16.96875 l 2.5,-3.375 z m -12.9688,28.75 c 1.3763,0.0718 5.9067,1.24435 10.9375,2.875 21.9241,7.1061 41.4294,9.5449 71.7813,9 12.925,-0.2321 25.2999,-0.62335 27.5,-0.90625 9.2384,-1.1883 17.4133,-2.5522 18.9062,-3.125 1.917,-0.7356 1.9747,0.92825 0.2188,8.15625 -1.1052,4.5496 -6.2388,13.47015 -8.5626,14.90625 -3.6779,2.2731 -40.7837,3.4422 -65.7187,2.0625 -23.697,-1.3112 -31.0546,-3.03385 -52.0937,-12.15625 l -4.25,-1.84375 0,-9.1875 c 0,-5.0628 0.3942,-9.4529 0.875,-9.75 0.06,-0.0371 0.2096,-0.0415 0.4062,-0.0312 z m 2.2188,28.75 c 0.5896,-0.0471 2.3049,0.56296 4.1562,1.5 17.0822,8.6456 32.5076,10.6875 80.5938,10.6875 13.0626,0 23.7501,0.061 23.75,0.125 -10e-4,0.333 -9.2247,6.18416 -14.25,9.03125 -12.5575,7.11459 -43.1318,11.768 -55.5,8.4375 -5.3779,-1.4481 -22.1083,-8.80766 -25.9688,-11.40625 -5.4478,-3.86527 -10.3659,-10.06944 -12.9688,-18.3125 0.0347,-0.0347 0.1033,-0.0558 0.1876,-0.0625 z m 84.0624,35.1875 c 1.3955,-0.0468 2.382,0.038 2.5938,0.25 0.4235,0.4242 1.0482,2.60215 1.4062,4.84375 l 0.6563,4.0625 -11.8437,1.6875 c -6.5175,0.9216 -15.7464,1.6882 -20.5,1.6875 -9.3837,-10e-4 -9.875,-0.3089 -9.875,-6.0625 0,-2.81 0.1278,-2.891 5.25,-2.875 4.922,0.0154 10.3626,-0.59395 27.1874,-3.09375 1.9055,-0.2831 3.7296,-0.45319 5.125,-0.5 z m -36.2812,36.5 c -1.6708,0.004 -2.4182,2.01469 -2.7188,6.3125 -0.3331,4.7652 -1.7672,8.8972 -6.8124,19.6875 -3.7099,7.9345 -5.2749,13.023 -4,13 3.0635,-0.0544 5.6487,-1.7755 7.3437,-4.875 1.0892,-1.9918 2.9465,-5.2 4.125,-7.125 1.1785,-1.925 3.6118,-6.875 5.4375,-11 4.0188,-9.0803 4.1384,-11.21635 0.7188,-13.90625 -1.7573,-1.38221 -3.0913,-2.09599 -4.0938,-2.09375 z m 49.1562,0.0312 c -2.8723,-0.0437 -4.7467,4.0859 -3,6.625 0.7062,1.0265 3.6314,7.24375 6.5,13.84375 5.3543,12.3186 9.5066,18.98835 11.1563,17.96875 1.6678,-1.0308 1.0178,-4.1851 -4.125,-20.125 -5.0336,-15.6016 -6.5447,-18.2515 -10.5313,-18.3125 z m -21.3124,4.0625 c -2.6273,0.26379 -4.3841,5.14115 -6.625,16.8125 -1.5623,8.1368 -0.7531,11.5135 2.8437,11.9375 2.2282,0.2627 2.6775,-0.0769 2.6875,-2 0.0148,-3.1581 2.4032,-10.78385 4.8438,-15.46875 2.1885,-4.2011 1.8811,-8.04675 -0.7813,-10.09375 -1.1162,-0.8582 -2.093,-1.27543 -2.9687,-1.1875 z"
       id="path3731-8"
       inkscape:connector-curvature="0" />
    <path
       inkscape:connector-curvature="0"
       style="fill:#ffffff"
       d="m 309.79283,291.09529 c -1.76385,0.0453 -3.53215,1.66252 -3.65625,3.90625 -0.22062,3.98886 -0.18351,5.55743 -0.28125,8.90625 -0.2224,7.62093 -0.8153,39.31032 -1.3125,70.40625 -0.67589,41.15685 -0.83412,86.72918 -1.15625,131.28125 -3.72659,2.48847 -8.13382,11.08152 -6.9375,21.0625 l 1.09375,9.09375 -4.875,0.28125 c -2.69014,0.14082 -6.35428,0.14033 -8.15625,0 -4.81128,-0.37456 -7.14891,1.57128 -6.75,5.65625 1.03137,7.34635 -0.11955,8.93069 -0.21875,18.5 0.14665,1.50176 -0.39712,2.19943 -1.875,2.34375 -3.45665,0.33755 -12.90129,4.07508 -18.375,7.28125 -8.07029,4.72694 -13.35726,8.84661 -21.5625,16.8125 -10.5702,10.2617 -14.89716,19.812 -16.125,35.625 -0.59706,7.68873 1.64932,24.98335 3.875,29.8125 2.33549,5.0677 6.12307,11.67579 7.0625,12.3125 0.35636,0.24151 1.65636,2.15854 2.875,4.25 1.21864,2.09146 6.41649,7.2865 11.5625,11.53125 10.32228,8.51428 18.55012,12.59178 30.46875,15.125 5.49431,1.16784 7.3621,1.97584 7.0625,3.0625 -0.62624,2.27112 6.28893,19.0059 9,21.78125 3.79627,3.88624 11.18922,4.216 35.46875,1.625 11.48525,-1.22566 21.59104,-2.61176 22.46875,-3.09375 1.70925,-0.93887 1.56129,-2.7019 -0.8125,-9.03125 -0.79973,-2.13237 -2.0149,-6.30754 -2.6875,-9.28125 -0.6727,-2.9737 -1.68062,-5.88864 -2.25,-6.46875 -0.73518,-0.74909 0.85198,-1.86263 5.5,-3.875 11.07039,-4.79283 21.55568,-12.91989 28.15625,-21.8125 1.13506,-1.52916 3.19797,-4.31146 4.59375,-6.1875 3.76538,-5.06062 6.86905,-13.7389 7.59375,-21.1875 0.43066,-4.42611 0.0749,-10.32655 -1.09375,-17.96875 -4.03782,-27.7442 -21.2153,-41.11995 -41.6875,-59 -2.34862,-1.17711 -4.76272,-2.63901 -5.375,-3.25 -0.61229,-0.61108 -3.36114,-1.71858 -6.09375,-2.4375 -4.55183,-1.19767 -4.92959,-1.51907 -4.5625,-3.9375 1.12705,-7.42448 1.03086,-13.47541 -0.25,-15.6875 -1.22574,-2.11689 -1.9063,-2.28025 -7.65625,-1.71875 l -6.34375,0.625 0.5,-2.8125 c 0.274,-1.54645 0.0683,-7.31316 -0.46875,-12.8125 -0.48467,-4.85767 -1.38238,-11.66244 -6.40625,-16.75 0.62874,-50.04034 1.18453,-105.88491 1.96875,-155.3125 0.22864,-16.47253 2.32739,-50.13365 1.03125,-55.4375 -0.56706,-2.32043 -1.94062,-3.254 -3.3125,-3.21875 z m -3.90625,221.375 c 0.40988,-0.067 0.87547,0.0838 1.34375,0.46875 2.74447,2.25616 3.5874,24.18255 0.90625,23.5625 -0.42003,-0.0975 -1.12806,-0.1674 -1.5625,-0.125 -0.43443,0.0424 -1.49292,-2.21615 -2.375,-5.03125 -2.43884,-7.78261 -1.18163,-18.4062 1.6875,-18.875 z m -11.5,31.40625 c 8.75184,-0.1913 24.50828,1.12645 27.75,2.3125 2.55901,0.93623 2.68664,1.37742 1.75,6.4375 -0.50081,2.70463 -1.00673,3.29908 -2.40625,2.8125 -0.97174,-0.33786 -8.91901,-10e-4 -17.6875,0.75 l -15.96875,1.34375 -0.59375,-4.3125 c -0.34172,-2.37845 -0.52202,-5.41479 -0.375,-6.75 0.2594,-2.35446 0.4962,-2.43989 7.53125,-2.59375 z m 18.6875,18.5625 c 3.06995,0.0268 6.10234,0.23133 9.0625,0.59375 9.42159,1.17547 25.75676,6.08124 32.78125,17.90625 0.3017,3.0895 -55.09986,2.3936 -69.6875,-0.875 -13.15096,-2.9468 -20.14043,-9.35122 -11.28125,-10.34375 1.09327,-0.12243 6.15524,-1.50557 11.25,-3.09375 9.0827,-2.83175 18.66514,-4.268 27.875,-4.1875 z m -52.6875,13.1875 c 1.08859,-0.13414 1.70986,0.58833 2.40625,2 1.66717,3.37976 17.39405,9.80141 26.15625,10.6875 3.28849,0.33257 7.79209,0.86238 10.03125,1.15625 2.23917,0.29386 6.13282,0.5696 8.625,0.625 2.49217,0.0553 8.13281,0.19155 12.5625,0.28125 12.25917,0.2483 31.65386,-1.88124 35.34375,-3.875 l 3.125,-1.6875 c 9.35433,4.81924 12.53005,11.71346 17.5625,18.375 0.14363,1.4708 -21.17634,5.0842 -34.09375,5.78125 -19.13854,1.03267 -48.53572,-1.39954 -72.9375,-6.03125 -4.50443,-0.85506 -10.37112,-1.85819 -13.03125,-2.21875 -10.91782,-1.4799 -14.6399,-2.15308 -17,-3.09375 -1.36523,-0.54399 -3.2,-0.67957 -4.0625,-0.3125 -2.05668,0.87523 3.77069,-5.44119 8.53125,-9.25 2.05027,-1.64044 6.11704,-4.91793 9.03125,-7.28125 4.17831,-3.38842 6.35038,-4.98379 7.75,-5.15625 z m -26.78125,29.78125 c 11.00752,-0.34162 38.22409,6.36539 44.96875,6.375 31.84768,5.96977 71.76838,6.07806 92.375,0.25 4.53413,-1.28244 8.43514,-2.18177 8.65625,-2 0.221,0.18168 1.11703,4.99567 2,10.6875 1.92015,12.37627 2.81792,11.43632 -13.40625,13.8125 -31.99196,4.68559 -93.21264,1.05484 -133.40625,-7.90625 -3.67195,-0.8186 -7.18874,-1.80405 -7.84375,-2.21875 -1.81485,-1.14885 -0.75735,-10.20148 2.0625,-17.46875 0.36317,-0.99784 2.05355,-1.45242 4.59375,-1.53125 z m -6.21875,28.125 c 1.23184,-0.12029 6.00701,0.52728 10.59375,1.40625 17.17631,3.29141 28.08174,4.938 38.90625,5.875 6.13059,0.53058 12.06565,1.07983 13.1875,1.25 1.12185,0.17017 6.34426,0.58989 11.625,0.90625 30.57013,1.83145 65.42716,0.32538 75.8125,-3.28125 5.05295,-1.71409 3.96187,-1.22579 4.5625,3.1875 0.21015,2.25184 -3.53463,11.06096 -6.3125,14.875 -2.32691,3.19478 -5.66439,4.79125 -14.71875,7.03125 -11.27211,2.78884 -26.37676,3.19184 -44.03125,1.1875 -8.10277,-0.91994 -19.29564,-2.11153 -24.875,-2.65625 -13.50953,-1.34357 -62.38887,-1.89879 -65.71875,-22.875 -1.20337,-6.42325 -1.19128,-6.69532 0.96875,-6.90625 z m 10.4375,28.5 c 1.01572,0.0279 4.76389,0.92403 9.0625,2.1875 4.91279,1.44396 11.32145,2.8452 14.25,3.125 2.92856,0.2798 9.65912,1.01285 14.96875,1.625 5.30962,0.61205 12.87218,1.45755 16.78125,1.875 3.90908,0.41745 11.44007,1.25976 16.75,1.875 15.74757,1.82443 30.2376,2.22264 40.53125,1.125 5.31628,-0.56687 10.31905,-1.34696 11.125,-1.75 3.04825,-1.52458 1.45266,1.09128 -2.40625,3.96875 -14.48485,10.80072 -43.07667,17.64141 -63.375,15.15625 -12.53398,-1.53458 -25.18826,-4.20457 -31.90625,-6.75 -8.76225,-3.31991 -28.09205,-19.93731 -26.0625,-22.40625 0.0271,-0.033 0.13615,-0.0352 0.28125,-0.0312 z m 99.84375,32.90625 1.25,5.75 c 0.68686,3.15679 1.54853,6.47651 1.90625,7.375 1.05272,2.6437 -1.93714,3.68172 -15.65625,5.4375 -23.55681,3.01477 -24.04334,3.00482 -27.625,0.0312 -2.44517,-2.02996 -3.54799,-4.08292 -4.8125,-8.9375 -0.90426,-3.47135 -1.5506,-6.41461 -1.4375,-6.53125 0.11311,-0.11654 2.72299,0.20549 5.8125,0.71875 6.67917,1.1097 18.00625,0.36423 31.0625,-2.0625 l 9.5,-1.78125 z m 13,34.21875 c -0.46064,0.0378 -1.00505,0.15342 -1.625,0.375 -3.76864,1.34685 -3.33586,3.14064 3.875,15.84375 0.59449,1.04718 2.53518,4.66666 4.3125,8.03125 3.98803,7.54964 6.35044,10.52009 8.15625,10.34375 2.45542,-0.23978 0.2718,-8.20434 -7.1875,-26.1875 -1.69013,-4.07473 -3.45459,-6.91837 -4.21875,-6.84375 -0.72217,0.0705 -1.53941,-0.38684 -1.8125,-1 -0.19599,-0.43991 -0.73227,-0.62554 -1.5,-0.5625 z m -52.65625,8.90625 c -2.11395,0.0141 -3.63157,2.04298 -5.125,6.40625 -1.12512,3.28742 -3.26678,9.47481 -4.75,13.75 -1.4831,4.27528 -2.77498,9.13072 -2.875,10.8125 l -0.1875,3.0625 1.4375,-2.40625 c 0.79378,-1.3209 1.91499,-2.44592 2.46875,-2.5 1.62567,-0.15875 5.03396,-5.56468 7.75,-12.3125 1.38923,-3.45136 3.43648,-7.70094 4.5625,-9.46875 2.45848,-3.85991 2.46751,-4.65593 0.0312,-6.15625 -1.26878,-0.78129 -2.35161,-1.19389 -3.3125,-1.1875 z m 20.59375,1.28125 c -0.37916,0.0101 -0.78331,0.0381 -1.1875,0.125 -3.35848,0.72243 -3.76333,3.95556 -0.9375,7.46875 1.46255,1.81836 2.69373,6.56046 4.78125,18.4375 1.54518,8.79164 2.8682,16.0962 2.9375,16.25 0.0692,0.15371 1.12715,-0.83425 2.34375,-2.21875 1.61167,-1.83422 2.19035,-3.9055 2.15625,-7.5625 -0.0673,-7.19261 -2.37947,-23.30677 -3.875,-27 -1.52605,-3.76861 -3.56463,-5.57032 -6.21875,-5.5 z"
       id="path2983-0" />
  </g>
</svg>
