<?xml version="1.0" encoding="UTF-8" standalone="no"?>
<!-- Created with Inkscape (http://www.inkscape.org/) -->

<svg
   xmlns:dc="http://purl.org/dc/elements/1.1/"
   xmlns:cc="http://creativecommons.org/ns#"
   xmlns:rdf="http://www.w3.org/1999/02/22-rdf-syntax-ns#"
   xmlns:svg="http://www.w3.org/2000/svg"
   xmlns="http://www.w3.org/2000/svg"
   xmlns:sodipodi="http://sodipodi.sourceforge.net/DTD/sodipodi-0.dtd"
   xmlns:inkscape="http://www.inkscape.org/namespaces/inkscape"
   width="216.49628"
   height="181.91287"
   id="svg3595"
   version="1.1"
   inkscape:version="0.48.5 r10040"
   sodipodi:docname="moon.svg">
  <defs
     id="defs3597" />
  <sodipodi:namedview
     id="base"
     pagecolor="#ffffff"
     bordercolor="#666666"
     borderopacity="1.0"
     inkscape:pageopacity="0.0"
     inkscape:pageshadow="2"
     inkscape:zoom="1.4"
     inkscape:cx="287.66471"
     inkscape:cy="196.25195"
     inkscape:document-units="px"
     inkscape:current-layer="layer1"
     showgrid="false"
     fit-margin-top="0"
     fit-margin-left="0"
     fit-margin-right="0"
     fit-margin-bottom="0"
     inkscape:window-width="1600"
     inkscape:window-height="837"
     inkscape:window-x="0"
     inkscape:window-y="27"
     inkscape:window-maximized="1" />
  <metadata
     id="metadata3600">
    <rdf:RDF>
      <cc:Work
         rdf:about="">
        <dc:format>image/svg+xml</dc:format>
        <dc:type
           rdf:resource="http://purl.org/dc/dcmitype/StillImage" />
        <dc:title></dc:title>
      </cc:Work>
    </rdf:RDF>
  </metadata>
  <g
     inkscape:label="Layer 1"
     inkscape:groupmode="layer"
     id="layer1"
     transform="translate(-346.35891,-492.83431)">
    <path
       style="fill:#ffffff"
       d="m 431.99627,673.44919 c -34.89818,-11.6468 -62.74016,-32.0667 -77.35637,-64.00487 -13.17391,-27.12196 -10.58151,-61.3964 7.43443,-85.74148 9.89191,-14.41256 25.50261,-23.73097 42.13029,-28.3266 9.58012,-3.13204 20.1468,-3.18127 29.95427,-1.17497 14.99093,3.92223 29.54447,9.4559 43.79847,15.46648 2.06373,6.23599 -11.53045,3.1618 -15.34342,6.21543 -19.49899,7.15361 -39.11641,18.53119 -48.89538,37.64348 -7.26821,13.28313 -9.5575,28.84219 -9.18834,43.82106 0.47508,13.14793 2.86518,26.29236 8.66464,38.19352 4.34785,11.05399 10.15907,21.88057 19.69517,29.32563 3.65729,1.84701 12.01294,10.63454 3.25995,9.82819 -1.38614,-0.41014 -2.77031,-0.82671 -4.15371,-1.24587 z m -7.70617,-10.47556 c -10.59908,-10.49388 -14.62164,-25.32973 -19.93421,-38.82501 -3.18905,-13.14261 -4.68238,-26.92317 -3.01312,-40.41447 1.08054,-19.51435 9.96966,-38.43414 24.65901,-51.34207 11.12475,-10.36056 25.53168,-16.24471 39.08868,-22.52039 -6.65827,-3.36225 -14.28006,-5.51631 -21.25608,-8.27022 -8.33291,-2.17672 -17.03665,-5.34518 -25.91139,-4.382 -11.24849,-0.0305 -21.85548,4.64139 -31.9285,9.18186 -20.87778,11.89536 -33.96098,35.55582 -35.30363,59.28163 -6.94376,31.44439 28.03657,87.39517 76.14073,100.09805 -0.80592,-0.9725 -1.6655,-1.8983 -2.54149,-2.80738 z"
       id="path3579"
       inkscape:connector-curvature="0"
       sodipodi:nodetypes="cccccccccccccccccccccccc" />
    <path
       sodipodi:nodetypes="csssccscccccsssssscccsccsccccssscccscscscscs"
       style="fill:#ffffff"
       d="m 562.51395,584.80375 c -0.79798,0.49319 -5.7318,-0.62256 -9.04434,-2.04531 -1.96289,-0.84309 -3.7494,-1.42129 -3.97005,-1.28494 -0.22065,0.13636 -1.83178,2.02663 -3.5803,4.20055 -1.74848,2.17392 -3.3622,4.06579 -3.58595,4.20407 -0.22379,0.13832 -0.90598,-0.24767 -1.51606,-0.8577 -1.09008,-1.09012 -1.10461,-1.17865 -0.84534,-5.1526 0.14506,-2.22383 0.37434,-4.52209 0.50948,-5.10712 0.20018,-0.86666 0.0272,-1.17701 -0.93287,-1.67511 -5.00795,-2.59784 -8.28555,-5.07563 -7.96925,-6.02462 0.21106,-0.63315 2.84115,-1.02563 7.06097,-1.05368 l 3.63063,-0.0243 0.64308,-1.9892 c 0.3537,-1.09405 1.04217,-3.59101 1.52992,-5.5488 0.48775,-1.95779 1.05188,-3.72896 1.25357,-3.93592 0.72201,-0.74091 2.34553,0.94631 4.35378,4.52443 1.11725,1.99066 2.18769,3.71598 2.37878,3.83407 0.19109,0.1181 1.46501,-0.0749 2.83094,-0.42882 3.14661,-0.81536 4.65609,-0.81319 5.82905,0.008 1.26152,0.88362 1.17086,2.29716 -0.22757,3.54734 -1.73751,1.55325 -4.2861,4.81121 -4.28355,5.47577 0,0.32179 1.41463,2.16508 3.14083,4.09623 2.89602,3.23979 3.67218,4.69454 2.79425,5.23715 z m -7.53305,-7.02747 c -2.09142,-2.44147 -2.17773,-3.44708 -0.49525,-5.76975 0.69262,-0.95607 1.17338,-1.82428 1.06835,-1.92927 -0.10503,-0.10503 -0.79484,0.0197 -1.5329,0.27686 -1.27216,0.44348 -1.42594,0.37958 -2.95594,-1.22882 -0.88768,-0.93312 -1.86607,-2.29968 -2.17417,-3.03673 -0.66858,-1.59943 -1.94623,-2.84559 -1.94623,-1.89823 0,0.32526 -0.56313,2.39285 -1.25134,4.59462 l -1.25135,4.00326 -2.96269,0.0547 c -1.62946,0.0302 -3.16558,0.18008 -3.4135,0.33335 -0.24796,0.15323 0.68952,0.81293 2.08325,1.46597 2.702,1.26601 4.47046,3.04255 4.06935,4.08786 -0.13459,0.35073 -0.35927,1.49424 -0.49927,2.54114 l -0.25453,1.90343 1.54864,-1.84099 c 0.85175,-1.01252 1.73562,-2.19033 1.96415,-2.61736 0.56242,-1.05084 1.67658,-0.97684 4.45982,0.29625 2.50429,1.14548 5.52413,2.26148 6.14648,2.27149 0.39319,0.006 0.30089,-0.11806 -2.60287,-3.50778 z"
       id="path3016"
       inkscape:connector-curvature="0" />
    <path
       inkscape:connector-curvature="0"
       id="path3018"
       d="m 517.93764,596.9083 c -1.72746,1.07668 -3.14083,2.08647 -3.14083,2.24406 0,0.15754 0.95747,1.22166 2.12771,2.36463 1.93115,1.88611 3.73517,4.57936 3.73517,5.57626 0,1.22991 -2.93739,0.50827 -7.64851,-1.87902 l -2.12003,-1.07433 -3.70342,3.81071 c -2.03689,2.09586 -3.86143,3.81067 -4.05455,3.81067 -0.65343,0 -1.73726,-1.52615 -1.73726,-2.44625 0,-0.50304 0.3769,-2.27467 0.83756,-3.93701 0.46065,-1.66234 0.83722,-3.30887 0.8368,-3.65897 -4.1e-4,-0.35014 -0.89555,-1.20034 -1.98919,-1.8894 -3.16052,-1.99133 -6.08725,-5.25943 -5.35907,-5.98417 0.16634,-0.16558 1.8408,-0.30101 3.72103,-0.30101 l 3.41859,0 1.76869,-3.55593 c 0.97277,-1.95573 1.9302,-3.60974 2.12761,-3.67553 0.19742,-0.0658 1.55645,1.22778 3.02007,2.87462 l 2.66112,2.99422 2.53987,-0.31484 c 3.62069,-0.44889 4.37002,-0.38603 5.28636,0.44324 1.5929,1.44155 1.06566,2.48301 -2.32772,4.59805 z m -6.90983,0.98454 c 0,-0.42321 0.4859,-1.08785 1.07977,-1.47694 0.99742,-0.65354 1.02214,-0.73977 0.32403,-1.13045 -0.41566,-0.23263 -1.63014,-1.37388 -2.69885,-2.53616 l -1.9431,-2.11319 -0.83374,1.66355 c -0.56014,1.11763 -0.76964,2.17894 -0.63839,3.23401 0.18836,1.51418 0.14961,1.57042 -1.08208,1.57042 -1.55835,0 -2.19382,0.82369 -1.11081,1.4398 1.97458,1.12333 2.81612,2.349 2.54468,3.70616 l -0.26429,1.3215 1.60694,-1.5691 1.60694,-1.56916 1.52855,0.63867 c 2.0753,0.86712 2.09263,0.85033 0.91467,-0.8855 -0.56888,-0.83827 -1.03432,-1.87039 -1.03432,-2.29361 z"
       style="fill:#ffffff"
       sodipodi:nodetypes="sssccsssscscscsssccsssscscssscscccscss" />
  </g>
</svg>
