<?xml version="1.0" encoding="UTF-8" standalone="no"?>
<!-- Created with Inkscape (http://www.inkscape.org/) -->

<svg
   xmlns:dc="http://purl.org/dc/elements/1.1/"
   xmlns:cc="http://creativecommons.org/ns#"
   xmlns:rdf="http://www.w3.org/1999/02/22-rdf-syntax-ns#"
   xmlns:svg="http://www.w3.org/2000/svg"
   xmlns="http://www.w3.org/2000/svg"
   xmlns:sodipodi="http://sodipodi.sourceforge.net/DTD/sodipodi-0.dtd"
   xmlns:inkscape="http://www.inkscape.org/namespaces/inkscape"
   width="364.64224"
   height="151.99989"
   id="svg3013"
   version="1.1"
   inkscape:version="0.48.5 r10040"
   sodipodi:docname="mountain-2.svg">
  <defs
     id="defs3015" />
  <sodipodi:namedview
     id="base"
     pagecolor="#ffffff"
     bordercolor="#666666"
     borderopacity="1.0"
     inkscape:pageopacity="0.0"
     inkscape:pageshadow="2"
     inkscape:zoom="1.4142136"
     inkscape:cx="407.86131"
     inkscape:cy="46.541864"
     inkscape:document-units="px"
     inkscape:current-layer="layer1"
     showgrid="false"
     fit-margin-top="0"
     fit-margin-left="0"
     fit-margin-right="0"
     fit-margin-bottom="0"
     inkscape:window-width="1600"
     inkscape:window-height="837"
     inkscape:window-x="0"
     inkscape:window-y="27"
     inkscape:window-maximized="1" />
  <metadata
     id="metadata3018">
    <rdf:RDF>
      <cc:Work
         rdf:about="">
        <dc:format>image/svg+xml</dc:format>
        <dc:type
           rdf:resource="http://purl.org/dc/dcmitype/StillImage" />
        <dc:title />
      </cc:Work>
    </rdf:RDF>
  </metadata>
  <g
     inkscape:label="Layer 1"
     inkscape:groupmode="layer"
     id="layer1"
     transform="translate(-192.67889,-504.93366)">
    <path
       style="fill:#ffffff"
       d="m 251.5625,1.28125 c -2.39757,0 -5.47015,1.28664 -10.84375,5.5 -5.3736,4.21336 -12.94904,11.29019 -24.3125,22.4375 -12.44511,12.20829 -25.22076,25.34395 -28.09375,28.84375 -1.53896,1.87472 -3.02167,3.59242 -4.1875,4.84375 -0.58291,0.62567 -1.09044,1.11991 -1.5,1.5 -0.20478,0.19005 -0.37593,0.36128 -0.5625,0.5 -0.0933,0.0694 -0.18061,0.11696 -0.3125,0.1875 -0.13189,0.0705 -0.2803,0.1875 -0.71875,0.1875 -0.7545,0 -0.85312,-0.23559 -1.03125,-0.375 -0.17813,-0.13941 -0.30304,-0.29709 -0.46875,-0.46875 -0.33141,-0.34333 -0.72538,-0.77221 -1.15625,-1.3125 -0.86174,-1.08058 -1.91293,-2.55158 -3,-4.15625 -1.8825,-2.77889 -5.35954,-7.46192 -8.59375,-11.6875 -1.61711,-2.11279 -3.19153,-4.13082 -4.46875,-5.71875 -1.27722,-1.58793 -2.30456,-2.77893 -2.6875,-3.15625 -3.48685,-3.43578 -6.18592,-5.03228 -8.875,-5.15625 -2.68908,-0.12397 -5.71928,1.21211 -9.84375,4.3125 -2.90684,2.1851 -7.69558,6.68975 -11.6875,10.78125 -1.99596,2.04575 -3.80726,3.98055 -5.09375,5.5 -0.64325,0.75973 -1.17215,1.43311 -1.5,1.90625 -0.16393,0.23657 -0.25685,0.42267 -0.3125,0.53125 -0.0279,0.05429 -0.0305,0.105631 -0.0312,0.09375 -0.006,0.288501 -0.0355,0.571464 -0.15625,0.875 -0.15504,0.39026 -0.53626,0.85299 -1.0625,1.03125 -0.52624,0.17826 -0.99955,0.05285 -1.34375,-0.09375 -0.3442,-0.1466 -0.63402,-0.33319 -0.90625,-0.5625 -1.08892,-0.91724 -2.22944,-2.48054 -3.53125,-4.71875 -3.02111,-5.19443 -14.70556,-20.45023 -18.40625,-24.0625 -3.25003,-3.17228 -8.86662,-4.4819 -12.09375,-3.125 -0.5162,0.21705 -1.69056,1.04027 -2.875,2.09375 -1.18444,1.05348 -2.4564,2.35602 -3.46875,3.625 -2.20505,2.7639 -7.54754,8.77004 -12,13.46875 -6.33282,6.68306 -20.0601,24.49139 -29.34375,38.15625 -5.46831,8.04901 -12.04316,15.84868 -22.125,26.21875 -6.34847,6.53003 -12.11434,12.49217 -12.78125,13.1875 -0.40575,0.42299 -0.90625,1.65608 -0.90625,1.90625 0,0.13793 0.66529,1.25233 1.65625,1.9375 0.49548,0.34258 1.03156,0.60831 1.4375,0.71875 0.40594,0.11044 0.61342,0.0335 0.5625,0.0625 -0.16373,0.0932 0.35592,-0.2879 0.90625,-0.8125 0.55033,-0.5246 1.25753,-1.26629 2.125,-2.15625 1.73494,-1.77992 4.02329,-4.19359 6.53125,-6.90625 5.01591,-5.42531 10.97864,-12.04372 15.4375,-17.25 3.912126,-4.567891 6.574224,-7.122524 10.1875,-9.4375 0.489825,-0.313824 1.032117,-0.596066 1.5625,-0.90625 0.706482,-0.390007 1.446781,-0.778269 2.25,-1.1875 2.184563,-1.11297 4.186676,-2.03641 5.65625,-2.625 0.74254,-0.29741 1.316633,-0.50836 1.78125,-0.625 0.23687,-0.05948 0.381801,-0.07052 0.6875,-0.0625 0.214083,0.0061 0.262132,-0.04175 0.5,0.09375 0.04033,0.02302 0.15982,0.15306 0.25,0.3125 0.09018,0.15944 0.125,0.3585 0.125,0.4375 0.01357,0.148009 0.09561,0.288644 0.21875,0.375 0.01,0.01084 0.02039,0.02127 0.03125,0.03125 0.02394,0.05005 0.03104,0.09267 0.0625,0.15625 0.104883,0.21192 0.242885,0.47171 0.4375,0.75 0.477854,0.68329 1.148995,1.48938 1.875,2.25 0.727217,0.76189 1.507148,1.47067 2.15625,1.96875 0.328872,0.149158 0.522207,0.409532 0.75,0.59375 0.109862,0.10482 0.197961,0.11124 0.25,0.125 0.104079,0.02753 0.141285,0.03125 0.1875,0.03125 0.0542,0 0.08208,-0.01942 0.15625,-0.03125 0.03708,-0.0059 0.09891,0.01181 0.1875,-0.03125 0.02215,-0.01077 0.03387,-0.04235 0.0625,-0.0625 0.02863,-0.02015 0.09321,-0.09314 0.09375,-0.09375 5.4e-4,-6.1e-4 0.09349,-0.12435 0.09375,-0.125 4.1e-5,-1e-4 -0.0018,-0.02284 0,-0.03125 0.08216,-0.05828 0.129751,-0.07227 0.21875,-0.15625 0.0054,-0.0051 -0.0054,-0.0261 0,-0.03125 0.09585,-0.09153 0.189015,-0.205552 0.28125,-0.3125 0.01415,-0.01641 0.04847,-0.01452 0.0625,-0.03125 0.08509,-0.08175 0.165013,-0.209654 0.25,-0.3125 0.25496,-0.308539 0.506465,-0.66518 0.6875,-1.0625 0.264438,-0.580365 0.503932,-1.098333 0.8125,-1.5625 0.05313,-0.07993 0.129921,-0.142069 0.1875,-0.21875 0.435375,-0.46858 1.242,-0.79288 1.9375,-0.75 1.562707,0.09634 3.09111,1.07283 6.125,2.90625 1.475093,0.89141 2.658457,1.53068 3.59375,1.96875 0.935293,0.43807 1.648342,0.7023 2.1875,0.75 0.44461,0.03927 0.82149,-0.07145 1.125,-0.28125 0.327824,-0.22606 0.678024,-0.67772 1.0625,-1.21875 0.01061,-0.01492 0.02055,-0.01605 0.03125,-0.03125 0.04848,-0.03431 0.09095,-0.07678 0.125,-0.125 3.2e-4,-0.01041 3.2e-4,-0.02084 0,-0.03125 0.01041,3.03e-4 0.02084,3.03e-4 0.03125,0 l 1.5,-2.1875 c 0.203362,-0.29387 0.723138,-0.40497 1.03125,-0.21875 l 3.875,2.34375 c 2.01363,1.22225 5.533119,2.57306 7.5625,2.9375 1.730086,0.31073 2.636262,0.38407 3.28125,0.1875 0.04425,-0.01525 0.08641,-0.03633 0.125,-0.0625 0.594751,-0.36642 1.04389,-0.4225 1.59375,-0.5625 0.543995,-0.13851 1.152591,-0.41257 1.75,-1.0625 l 0.03125,0 c 0.213238,-0.2219 0.29213,-0.44574 0.375,-0.6875 0.0858,-0.25032 0.141042,-0.53365 0.21875,-0.78125 0.07771,-0.2476 0.173993,-0.45862 0.25,-0.59375 0.038,-0.06757 0.0794,-0.108929 0.09375,-0.125 0.46594,-0.08938 0.98461,0.06637 1.34375,0.28125 0.41692,0.24946 0.80032,0.5378 1.25,0.9375 1.4409,1.28065 3.25691,2.13746 4.96875,2.46875 1.69942,0.32888 3.21202,0.14837 4.21875,-0.53125 0.0138,-0.0093 0.0177,-0.02193 0.0312,-0.03125 1.34229,-0.92381 1.56658,-2.0734 1.75,-2.5625 0.0926,-0.24702 0.0866,-0.27408 0.28125,-0.34375 0.18275,-0.0654 0.69413,-0.10303 1.46875,0 3.31821,1.0129 5.42312,2.86679 8.21875,4.65625 0.58798,0.37348 1.17164,0.69598 1.65625,0.9375 0.48461,0.24152 0.82318,0.39433 1.125,0.46875 1.44222,0.35549 3.19433,0.07643 4.53125,-0.59375 0.66836,-0.33505 1.17103,-0.73722 1.53125,-1.15625 0.36022,-0.41903 0.59375,-0.84938 0.59375,-1.3125 0,-1.45164 0.77178,-2.72836 2.15625,-3.25 0.53497,-0.20163 1.58464,-0.21283 2.375,0.21875 0.0764,0.04063 0.16313,0.06232 0.25,0.0625 0.70329,0.527894 1.48003,1.264521 2.5,2.375 14.65974,16.36874 26.51324,33.89664 41.4375,51.28125 1.66542,1.88699 4.2246,3.76831 3.875,2.75 -0.69419,-2.02201 -2.11198,-3.82794 -3.5625,-6.15625 -1.92164,-3.08453 -4.03323,-6.29779 -5.84375,-8.90625 -1.81052,-2.60846 -3.42453,-4.68563 -3.96875,-5.21875 -0.0215,-0.0201 -0.0424,-0.041 -0.0625,-0.0625 -1.38846,-1.51771 -3.74345,-4.19266 -5.28125,-5.9375 -1.62872,-1.84793 -5.04801,-6.09452 -8.09375,-10 -1.52287,-1.95274 -4.875,-6.46875 -4.875,-6.46875 0,0 3.25991,-3.21175 5.71875,-5.375 2.74486,-2.54594 7.52657,-7.5357 16.28125,-16.71875 1.06916,-1.12142 4.60753,-5.48576 7.59375,-9.4375 3.00805,-3.98062 6.35096,-8.32535 7.5,-9.75 l 2.03125,-2.5 c 0.47543,-0.57435 1.47536,-0.59025 1.96875,-0.03125 l 3,3.5 c 0.84531,0.98483 1.61254,1.93635 2.1875,2.71875 0.28748,0.3912 0.53246,0.72948 0.71875,1.03125 0.0931,0.15089 0.17676,0.31672 0.25,0.46875 0.0732,0.15203 0.1613,0.23515 0.1875,0.65625 0.003,0.03982 0.003,0.02134 0,0.03125 0.0423,0.01489 0.23978,0.07885 0.5625,0.03125 0.70237,-0.10348 1.8331,-0.66802 2.65625,-1.625 l 2.3125,-2.6875 c 0.43448,-0.49396 1.26741,-0.56703 1.78125,-0.15625 l 2.75,2.1875 0,-0.03125 c 1.60934,1.26592 2.8137,1.78597 3.65625,1.8125 0.84255,0.0265 1.53893,-0.30974 2.53125,-1.40625 0.42283,-0.46719 0.78221,-0.85259 1.21875,-1.1875 0.43654,-0.33491 1.01867,-0.60985 1.625,-0.65625 1.21266,-0.0928 2.15436,0.44149 3.71875,1.1875 3.38554,1.61447 6.50932,1.11568 9.03125,-1.40625 0.4663,-0.4663 0.8587,-0.86096 1.34375,-1.1875 0.48505,-0.32654 1.09167,-0.56186 1.71875,-0.59375 1.25417,-0.0638 2.35027,0.39775 4.28125,1.15625 1.86657,0.73323 2.77018,1.02132 3.53125,1 0.76107,-0.0213 1.68853,-0.35658 3.53125,-1.1875 1.91218,-0.86223 2.9786,-1.39394 4.21875,-1.40625 0.62008,-0.006 1.2276,0.20504 1.71875,0.5 0.49115,0.29496 0.90678,0.63876 1.375,1.0625 0.92768,0.83958 2.97012,1.61908 5.09375,1.84375 2.12363,0.22467 4.3181,-0.075 5.5,-0.71875 1.13234,-0.61667 2.13948,-1.03129 3.28125,-1 1.14177,0.0313 2.18767,0.4269 3.625,1.09375 2.59999,1.20635 2.99665,1.21435 5.75,0.21875 1.49515,-0.54064 2.60145,-0.87473 3.75,-0.8125 1.14855,0.0622 2.15165,0.5508 3.21875,1.25 0.87827,0.57546 3.87322,1.34503 6.53125,1.3125 6.47245,-0.0797 10.11452,-0.11819 13.53125,1.6875 3.41673,1.80569 6.26939,5.17105 11.65625,11.53125 2.6863,3.17168 5.22362,6.17698 7.1875,8.46875 1.96388,2.29177 3.44368,3.9678 3.59375,4.125 0.40473,0.42394 1.6002,1.8274 3.4375,3.9375 1.8373,2.1101 4.22623,4.86126 6.71875,7.75 4.97143,5.7617 11.05084,12.5377 13.40625,15 2.42803,2.53822 5.64733,6.09568 7.25,7.9375 1.83796,2.09458 3.63619,3.55416 4.6875,3.46875 -0.23773,-2.16314 -3.16804,-5.93357 -4.5625,-7.875 -2.99968,-4.15904 -6.68584,-8.30655 -7.71875,-9.1875 -0.0444,-0.0388 -0.0862,-0.0806 -0.125,-0.125 -23.2525,-25.30178 -50.37805,-58.56265 -59.15625,-72.59375 -1.44083,-2.30303 -5.39554,-7.72823 -8.65625,-11.875 -3.28816,-4.18179 -7.17209,-9.17695 -8.65625,-11.125 -4.31887,-5.66871 -8.58122,-10.09563 -12.46875,-13.0625 -3.88753,-2.96687 -7.38627,-4.4375 -10.09375,-4.4375 z m 2.125,5.3125 c 1.81345,-0.0931 3.51404,0.47643 5.15625,1.5625 1.64221,1.08607 3.28306,2.64649 5.21875,4.6875 6.194,6.53104 13.5956,16.09157 25.625,33.125 2.23457,3.16414 4.45612,6.26386 6.21875,8.6875 1.76263,2.42364 3.11596,4.2495 3.4375,4.625 0.4561,0.53275 0.90256,1.05628 1.21875,1.46875 0.1581,0.20624 0.26461,0.36586 0.375,0.53125 0.0552,0.0827 0.10144,0.17927 0.15625,0.28125 0.0548,0.10198 0.18798,0.063 0.1875,0.6875 0,10e-4 -0.0196,0.31242 -0.0625,0.4375 -0.0429,0.12508 -0.10002,0.19854 -0.15625,0.28125 -0.11246,0.16543 -0.19794,0.28155 -0.28125,0.34375 -0.16661,0.1244 -0.26888,0.12752 -0.34375,0.15625 -0.14974,0.0575 -0.2322,0.07765 -0.3125,0.09375 -0.16061,0.0324 -0.31648,0.07385 -0.5,0.09375 -0.36705,0.0399 -0.84213,0.05905 -1.4375,0.09375 -1.19075,0.0695 -2.80874,0.11897 -4.59375,0.15625 -4.46482,0.093 -7.46863,-0.24601 -9.4375,-1.625 -0.78827,-0.55213 -1.25222,-0.72727 -1.5,-0.75 -0.24778,-0.0227 -0.48027,0.0231 -1.09375,0.40625 -1.57991,0.98665 -3.38578,1.41997 -5.3125,1.25 -1.91897,-0.16928 -3.96338,-0.88786 -6.21875,-2.09375 l -0.0312,0 -3.0625,-1.65625 -1.46875,1.40625 c -1.43352,1.34668 -3.25726,2.02405 -5.1875,1.8125 -1.93024,-0.21155 -3.92101,-1.17218 -6.1875,-2.75 -1.51378,-1.05387 -2.61558,-1.49648 -3.3125,-1.53125 -0.69692,-0.0348 -1.12285,0.14418 -1.78125,0.9375 -1.24762,1.50315 -3.30671,1.91304 -5.375,1.90625 -2.06829,-0.007 -4.22983,-0.49806 -5.84375,-1.71875 -1.25475,-0.94905 -1.88489,-1.17549 -2.4375,-1.09375 -0.55261,0.0817 -1.46706,0.62331 -2.84375,2 -1.57558,1.57558 -3.39957,2.56592 -5.3125,2.78125 -1.91293,0.21533 -3.86381,-0.36382 -5.53125,-1.625 -1.16672,-0.88247 -1.97352,-1.17423 -2.625,-1.15625 -0.65148,0.018 -1.37411,0.3472 -2.40625,1.28125 -0.46234,0.41841 -0.85814,0.74359 -1.3125,1.03125 -0.45436,0.28766 -1.02933,0.53125 -1.625,0.53125 -1.19134,0 -2.06314,-0.58163 -3.5,-1.40625 -1.60985,-0.92395 -3.17785,-1.42256 -4.4375,-1.5 -1.25965,-0.0774 -2.14034,0.23409 -2.65625,0.75 -0.29403,0.29403 -0.60519,0.55888 -1.03125,0.75 -0.42606,0.19112 -0.98408,0.26224 -1.46875,0.125 -0.96934,-0.27449 -1.4723,-0.92835 -2.09375,-1.75 -0.43132,-0.57038 -0.82291,-1.15343 -1.125,-1.65625 -0.15105,-0.25141 -0.26876,-0.46278 -0.375,-0.6875 -0.10624,-0.22472 -0.22273,-0.37489 -0.25,-0.875 -0.0225,-0.40085 0.0495,-0.52515 0.0937,-0.625 0.0444,-0.0998 0.0946,-0.13942 0.125,-0.1875 0.0608,-0.0962 0.10343,-0.15194 0.15625,-0.21875 0.10564,-0.13361 0.22134,-0.26694 0.375,-0.4375 0.30733,-0.34111 0.73484,-0.81063 1.28125,-1.375 1.09281,-1.12875 2.65188,-2.69594 4.53125,-4.5625 3.75873,-3.73312 8.81791,-8.66921 14,-13.6875 5.18209,-5.01829 10.50496,-10.1084 14.78125,-14.15625 4.27629,-4.04785 7.38406,-6.98557 8.59375,-7.9375 5.77771,-4.54663 9.37761,-7.03287 13,-7.21875 z M 89.625,30.53125 c 0.36244,-0.01019 0.734858,-0.01467 1.125,0 1.23373,0.0464 2.34242,0.25472 3.3125,0.625 0.97008,0.37028 1.83426,0.87094 2.34375,1.78125 0.12428,0.2221 0.87416,1.26323 1.8125,2.46875 0.93834,1.20552 2.12361,2.6524 3.3125,4.0625 2.52986,3.00069 7.90472,10.76227 12.15625,17.46875 4.19415,6.61587 10.32334,15.18095 13.4375,18.84375 3.05919,3.5981 4.76832,5.75754 5.5625,7.5 0.39709,0.87123 0.59787,1.81622 0.21875,2.6875 -0.0518,0.119016 -0.12281,0.208588 -0.1875,0.3125 -0.3266,0.376376 -0.76759,0.628433 -1.25,0.8125 -0.0818,0.02349 -0.15755,0.0668 -0.21875,0.125 0.0483,-0.05461 -0.0467,0.06648 -0.15625,0.1875 -0.10957,0.12102 -0.25957,0.28739 -0.375,0.5 -0.0254,0.04685 -0.0386,0.107027 -0.0625,0.15625 -0.0214,0.03434 -0.0425,0.0562 -0.0625,0.09375 -0.2342,0.4392 -0.43175,1.04633 -0.5,1.625 -0.0926,0.78489 -0.27365,1.515765 -0.53125,2.15625 -0.0286,0.07116 -0.0634,0.150114 -0.0937,0.21875 -0.0433,0.09293 -0.0817,0.198717 -0.125,0.28125 -0.0768,0.146351 -0.1603,0.263765 -0.25,0.375 -0.1794,0.22247 -0.40431,0.41097 -0.875,0.53125 -1.33562,0.34127 -2.66865,-0.14387 -4.4375,-1 -1.74333,-0.84378 -3.69577,-2.13758 -5.6875,-3.75 -0.96661,-0.78256 -2.09501,-1.4855 -3.0625,-2 -0.0143,-0.0093 -0.0171,-0.02213 -0.0312,-0.03125 -0.50337,-0.32371 -0.95024,-0.51584 -1.375,-0.59375 -0.43672,-0.0801 -0.88464,-0.01053 -1.21875,0.1875 -0.66821,0.39606 -0.91985,1.10084 -1.1875,1.8125 -0.26765,0.71166 -0.52884,1.46913 -0.875,2.03125 -0.33248,0.5399 -0.71063,0.89215 -1.34375,1 -0.82438,0 -1.3348,0.10254 -1.75,0.09375 -0.4152,-0.0088 -0.76572,-0.0672 -1.5,-0.46875 -1.49707,-0.81869 -3.10066,-2.11149 -5.125,-3.96875 -0.984634,-0.90338 -1.865737,-1.52002 -2.5625,-1.875 -0.354918,-0.18082 -0.649035,-0.28729 -0.875,-0.34375 -0.112988,-0.02823 -0.202208,-0.0219 -0.28125,-0.03125 -0.03953,-0.0047 -0.0889,-0.03013 -0.125,-0.03125 -0.0361,-0.0011 -0.04092,0.0068 -0.15625,0.03125 -0.24958,0.04215 -0.44771,0.282732 -0.4375,0.53125 -0.117773,0.43515 -0.137815,1.15152 0.09375,2.1875 -3.2e-4,0.01041 -3.2e-4,0.02084 0,0.03125 0.366872,1.22519 0.485955,2.08797 0.4375,2.625 -0.04846,0.53703 -0.173467,0.70114 -0.46875,0.84375 -0.295283,0.14261 -0.837851,0.21138 -1.59375,0.15625 -0.755899,-0.05513 -1.685614,-0.20509 -2.78125,-0.375 -0.01041,-3.03e-4 -0.02084,-3.03e-4 -0.03125,0 -0.0201,-0.01176 -0.04099,-0.02221 -0.0625,-0.03125 -0.0089,-0.0015 -0.02234,0.0015 -0.03125,0 -2.629071,-0.43966 -6.739809,-2.32109 -9.6875,-4.3125 -1.419561,-0.95905 -2.66386,-1.64474 -3.6875,-2.125 -1.02364,-0.48026 -1.775584,-0.76688 -2.34375,-0.8125 -0.24135,-0.01947 -0.302424,-0.0247 -0.4375,0.03125 -0.191026,0.07913 -0.371344,0.223866 -0.46875,0.40625 -0.03956,0.07408 -0.01491,0.14526 -0.03125,0.25 -0.03267,0.20947 -0.04267,0.51757 0,0.90625 0.09325,0.84959 0.117055,1.45933 -0.25,2.09375 -0.298195,0.51539 -1.282438,0.88905 -1.875,0.8125 -1.455737,-0.18807 -2.962265,-1.21509 -5.40625,-3.03125 -1.190572,-0.88476 -2.129016,-1.51608 -2.84375,-1.9375 -0.714734,-0.42142 -1.167591,-0.63935 -1.625,-0.6875 -0.309935,-0.03265 -0.700764,0.03215 -1.125,0.28125 -0.460799,0.27084 -0.987328,0.73138 -1.71875,1.40625 L 57.96875,85.75 C 57.746033,85.954547 57.304525,85.943045 57,85.78125 L 56.96875,85.75 55.4375,82.8125 C 54.821743,81.621728 54.270052,80.887155 53.75,80.4375 53.73952,80.4284 53.7292,80.41506 53.71875,80.40625 53.65231,80.33449 53.566461,80.282783 53.5,80.21875 53.096803,79.830285 52.702566,79.571892 52.28125,79.4375 c -0.980765,-0.31285 -2.230813,-0.05554 -4.125,0.90625 -0.787218,0.39973 -1.358085,0.69748 -1.8125,0.90625 -0.247103,0.11353 -0.44031,0.19709 -0.59375,0.25 -0.271298,0.09359 -0.229455,0.153235 -0.65625,0.09375 -0.0041,-0.0048 -0.02717,0.0048 -0.03125,0 -0.04773,-0.05667 -0.08831,-0.121145 -0.125,-0.1875 -0.23269,-0.42079 -0.16986,-0.76691 -0.125,-0.96875 0.0897,-0.40368 0.20377,-0.51961 0.3125,-0.6875 0.21746,-0.33577 0.50806,-0.69354 0.875,-1.15625 1.92305,-2.42498 1.76743,-2.22161 9.71875,-13 3.7608,-5.09798 10.84867,-13.5667 15.84375,-18.96875 4.94765,-5.35086 10.21032,-11.11944 11.71875,-12.78125 1.14955,-1.26632 2.16539,-2.17194 3.375,-2.71875 0.907207,-0.410108 1.88143,-0.563165 2.96875,-0.59375 z m 63.8125,7.1875 c 0.83368,0 0.95718,0.28066 1.25,0.5 0.29282,0.21934 0.59288,0.47903 0.9375,0.8125 0.68924,0.66694 1.55062,1.5916 2.53125,2.71875 1.96126,2.25429 4.42915,5.32804 6.96875,8.71875 2.51786,3.36169 5.10642,6.73221 7.21875,9.4375 2.11233,2.70529 3.7884,4.8028 4.375,5.4375 l 2.5,2.6875 c 0.40977,0.43846 0.45152,1.17435 0.0937,1.65625 L 175.125,75.25 c -1.16851,1.5477 -2.30171,2.94509 -3.21875,3.96875 -0.45852,0.51183 -0.86631,0.92887 -1.21875,1.25 -0.17622,0.16057 -0.3384,0.27731 -0.53125,0.40625 -0.19285,0.12894 -0.32223,0.40437 -1.09375,0.3125 -0.5767,-0.0688 -0.6645,-0.18975 -0.96875,-0.34375 -0.30425,-0.154 -0.66716,-0.35689 -1.0625,-0.59375 -0.79068,-0.47372 -1.75145,-1.09414 -2.71875,-1.78125 -2.49243,-1.77083 -3.40959,-2.04059 -5.625,-1.625 -2.07754,0.38975 -4.45395,0.30052 -6.125,-0.59375 -1.09524,-0.58817 -1.99637,-0.636 -4,0.0625 -1.28802,0.44899 -2.34958,0.72511 -3.4375,0.625 -1.08792,-0.10011 -2.0739,-0.58882 -3.0625,-1.28125 -1.26138,-0.88341 -2.47537,-1.2691 -3.28125,-1.28125 -0.80588,-0.0122 -1.04461,0.13992 -1.21875,0.59375 -0.24864,0.64791 -0.6586,1.18132 -1.15625,1.59375 -0.49765,0.41243 -1.107,0.71875 -1.875,0.71875 -0.49439,0 -0.73581,-0.12138 -0.96875,-0.25 -0.23294,-0.12862 -0.43713,-0.2972 -0.65625,-0.46875 -0.43825,-0.3431 -0.91268,-0.78815 -1.4375,-1.3125 -1.04964,-1.0487 -2.28109,-2.41163 -3.46875,-3.84375 -1.18766,-1.43212 -2.3216,-2.92759 -3.1875,-4.1875 -0.43295,-0.62995 -0.81845,-1.17654 -1.09375,-1.6875 -0.2753,-0.51096 -0.5,-0.85477 -0.5,-1.625 0,-0.57735 0.135,-0.71146 0.25,-0.9375 0.115,-0.22604 0.23814,-0.46161 0.40625,-0.71875 0.33622,-0.51428 0.81842,-1.12291 1.375,-1.84375 1.11315,-1.44169 2.61425,-3.27804 4.28125,-5.15625 3.03107,-3.41512 8.03265,-7.68759 12.71875,-11.1875 2.34305,-1.74995 4.60598,-3.3099 6.5,-4.4375 0.94701,-0.5638 1.80551,-1.00962 2.5625,-1.34375 0.75699,-0.33413 1.37021,-0.5625 2.125,-0.5625 z M 140.96875,78.8125 c 0.17305,5.27e-4 0.33533,0.02575 0.5,0.0625 1.31732,0.294 2.28745,1.20123 3.96875,2.65625 1.59317,1.37873 2.895,1.861 3.34375,1.84375 0.22437,-0.009 0.25394,-0.0434 0.375,-0.1875 0.12106,-0.14412 0.28581,-0.49986 0.375,-1.125 0.10582,-0.74161 0.25494,-1.37515 0.59375,-1.96875 0.33881,-0.5936 1.01824,-1.13534 1.75,-1.25 1.45896,-0.2286 2.57117,0.51425 4.21875,1.59375 0.84238,0.55197 3.37385,1.18214 4.8125,1.0625 1.01408,-0.0843 1.95843,-0.0432 2.78125,0.125 0.41141,0.0841 0.78825,0.18589 1.15625,0.375 0.368,0.18911 0.80632,0.46559 1.03125,1.09375 0.26217,0.7323 0.0458,1.00902 -0.0625,1.28125 -0.1083,0.27223 -0.26962,0.50092 -0.4375,0.78125 -0.33576,0.56066 -0.79043,1.22967 -1.375,2 -1.16914,1.54066 -2.79019,3.48965 -4.625,5.5 -1.82481,1.99945 -3.57059,3.80091 -4.90625,5.125 -0.66783,0.66205 -1.23854,1.19993 -1.6875,1.59375 -0.22448,0.19691 -0.40372,0.36285 -0.59375,0.5 -0.095,0.0686 -0.18323,0.11876 -0.3125,0.1875 -0.12927,0.0687 -0.23747,0.20561 -0.75,0.1875 -0.54798,-0.0197 -0.65672,-0.16733 -0.78125,-0.25 -0.12453,-0.0827 -0.22252,-0.13928 -0.3125,-0.21875 -0.17995,-0.15895 -0.35032,-0.36752 -0.5625,-0.59375 -0.42435,-0.45245 -0.9644,-1.05616 -1.59375,-1.8125 -1.25871,-1.51269 -2.88142,-3.57603 -4.59375,-5.84375 -2.32726,-3.08207 -3.81512,-5.23222 -4.6875,-6.84375 -0.43619,-0.80576 -0.75163,-1.47166 -0.875,-2.15625 -0.12337,-0.68459 -0.009,-1.48704 0.46875,-2.0625 0.40166,-0.48395 0.76982,-0.91895 1.3125,-1.25 0.40701,-0.248288 0.94961,-0.407832 1.46875,-0.40625 z"
       transform="translate(192.67889,504.93366)"
       id="path3018"
       inkscape:connector-curvature="0"
       sodipodi:nodetypes="ssssssccsscsssscssssccccsssccsscssscssscsssssccccccscccccscccsccssccccccssscssscccccccccccccsccssscccsccccccsccsscccccssscccscccsccccsccccccccccccssssscccscscscscscscssscssscccccscssscsssscscccsccccccccccsccccsccccscssscsssccsssccscccccsssssccsscscsssccccscccccccscscccsssscssssccsccccsssccccsscaaccsscscccccccccsscccccsccssscscssssssccccscscssccccscccsssssssssssssssssssscccssccsscssscsscccccssssscss" />
  </g>
</svg>
