<?xml version="1.0" encoding="UTF-8" standalone="no"?>
<!-- Created with Inkscape (http://www.inkscape.org/) -->

<svg
   xmlns:dc="http://purl.org/dc/elements/1.1/"
   xmlns:cc="http://creativecommons.org/ns#"
   xmlns:rdf="http://www.w3.org/1999/02/22-rdf-syntax-ns#"
   xmlns:svg="http://www.w3.org/2000/svg"
   xmlns="http://www.w3.org/2000/svg"
   xmlns:sodipodi="http://sodipodi.sourceforge.net/DTD/sodipodi-0.dtd"
   xmlns:inkscape="http://www.inkscape.org/namespaces/inkscape"
   width="269.31863"
   height="269.77029"
   id="svg3051"
   version="1.1"
   inkscape:version="0.48.5 r10040"
   sodipodi:docname="mushrooms.svg">
  <defs
     id="defs3053" />
  <sodipodi:namedview
     id="base"
     pagecolor="#ffffff"
     bordercolor="#666666"
     borderopacity="1.0"
     inkscape:pageopacity="0.0"
     inkscape:pageshadow="2"
     inkscape:zoom="0.49497475"
     inkscape:cx="-912.19379"
     inkscape:cy="28.076466"
     inkscape:document-units="px"
     inkscape:current-layer="layer1"
     showgrid="false"
     fit-margin-top="0"
     fit-margin-left="0"
     fit-margin-right="0"
     fit-margin-bottom="0"
     inkscape:window-width="1920"
     inkscape:window-height="1137"
     inkscape:window-x="1600"
     inkscape:window-y="27"
     inkscape:window-maximized="1" />
  <metadata
     id="metadata3056">
    <rdf:RDF>
      <cc:Work
         rdf:about="">
        <dc:format>image/svg+xml</dc:format>
        <dc:type
           rdf:resource="http://purl.org/dc/dcmitype/StillImage" />
        <dc:title></dc:title>
      </cc:Work>
    </rdf:RDF>
  </metadata>
  <g
     inkscape:label="Layer 1"
     inkscape:groupmode="layer"
     id="layer1"
     transform="translate(-1250.9223,451.69909)">
    <path
       inkscape:connector-curvature="0"
       id="path3150"
       d="m 1296.9362,-451.69906 c -5.0644,-0.009 -10.1301,2.23205 -14.4376,7.625 -20.2277,26.68598 0.043,80.45584 -23.1562,114.90625 -14.0663,16.47092 -10.2123,35.78126 9.3438,35.03125 22.3625,-0.85763 32.8034,17.49415 23.9374,36.21875 -10.0743,21.27675 -12.4763,49.69963 2.9063,69.125 6.764,-7.10525 -6.025,-25.51194 -4.75,-38.53125 1.7675,-18.04779 17.0774,-34.58309 9.8125,-51.5625 -8.902,-20.80557 13.8951,-8.46281 24.5312,-14.125 -5.9148,15.52459 0.9577,31.83261 7,46.3125 7.79,18.66795 1.8314,39.63332 -2.9374,58.375 4.965,3.22239 9.5205,-5.39269 10.2187,-9 2.8847,-14.90517 4.1744,-31.16124 0.1563,-46.125 -3.9969,-14.88419 -17.5099,-30.64149 -9.4688,-46.3125 2.3431,-3.35015 6.4203,-5.95936 10.9375,-8.40625 -1.8026,-1.56333 -3.4395,-3.27742 -4.7813,-5.21875 -4.0801,1.46816 -7.9707,2.47928 -10.6562,3 -8.2305,1.59585 -16.0638,4.43514 -24.5625,3.15625 -15.1386,-2.27805 -41.1038,4.8746 -45,-11.03125 -2.9898,-12.20572 12.7291,-21.61484 15.4687,-34 6.5997,-27.30763 6.7694,-55.12401 8.0938,-83.46875 1.0458,-22.3808 31.2197,-29.62746 36.8438,-3 7.09,33.56814 11.2517,61.98267 25.5,87.53125 1.1874,-1.4612 2.4697,-2.86682 3.8124,-4.21875 -3.8545,-7.34612 -6.8285,-15.26303 -9.9062,-22.90625 -7.9117,-19.64766 -8.9899,-40.58348 -13.8438,-60.8125 -2.8111,-11.71587 -13.9209,-22.54358 -25.0624,-22.5625 z"
       style="fill:#ffffff" />
    <path
       sodipodi:nodetypes="csccszczsscsscccsscscssscccccccsccccccc"
       inkscape:connector-curvature="0"
       id="path3152"
       d="m 1432.3674,-183.09207 c 5.8784,-14.03248 13.4354,-30.1573 4.865,-45.60322 -7.6923,-13.86356 -4.1339,-30.80259 6.4271,-42.23836 -6.9523,-1.16232 -17.8946,0.17217 -26.1016,-1.57012 -8.9865,-0.88188 -19.2236,-8.94614 -14.2397,6.97634 5.3408,17.06244 -9.4322,35.65381 -15.4227,48.57116 -5.9904,12.91735 6.0737,24.35503 4.2617,32.37722 -12.8505,-7.52506 -11.9287,-23.2099 -8.5993,-36.37722 3.3295,-13.16732 14.7462,-25.47192 15.5816,-40.89445 1.1763,-21.71391 -22.8554,-18.03473 -36.0816,-24.10555 -12.6248,-5.7948 -28.1632,-11.62869 -30.6298,-27.00712 -1.9578,-24.87412 21.1875,-42.47943 41.7678,-50.5128 25.2665,-9.86267 54.004,-7.44664 80.362,-2.97725 23.2295,3.93889 41.9167,20.61887 58.3543,36.54143 13.0476,12.31558 7.3709,35.53649 -6.7981,44.43762 -15.6441,8.94079 -34.2119,13.05404 -52.1341,14.20148 -9.2045,-0.68973 -13.2221,12.19906 -14.888,19.5672 -4.1753,18.4674 14.4847,37.84089 5.2413,56.9055 -1.7216,3.55087 -6.9883,16.83785 -11.9659,11.70814 z m -2.246,-98.1162 c 11.9675,-18.86339 37.0603,-7.5449 50.951,-0.3625 6.1791,-4.36265 32.236,-6.32161 24.8884,-17.01501 -7.0383,-10.24342 12.5423,-13.74296 5.2079,-24.35202 -6.0743,-8.78634 -6.0767,-6.43466 -13.5297,-2.34485 -11.4248,6.26938 -34.6622,-9.75499 -21.9343,-23.67769 5.773,-5.75866 -15.5231,-14.84801 -21.1769,-8.65189 -14.9444,6.91185 -26.4275,-7.85323 -41.2111,-6.31381 -6.0875,0.41047 -13.6441,-2.98779 -17.3742,3.53504 -7.8092,10.35547 -23.3244,16.02793 -34.4919,7.64666 -13.8963,4.70558 -13.7244,15.65877 -15.3894,27.7819 -24.1274,36.89591 58.7509,43.7029 79.2154,46.50627 2.1935,0.79282 3.7235,-0.98456 4.8448,-2.7521 z m -57.5635,-43.72217 c 20.9762,-2.46449 29.9575,28.99188 8.025,33.23267 -38.4433,-3.19652 -30.1392,-34.50758 -8.025,-33.23267 z m 68.2893,7.9302 c -13.238,1.80145 -44.8809,-6.4226 -31.5547,-24.4087 14.5619,-9.7071 36.9608,-6.15499 49.7105,4.99664 15.7521,14.37324 -6.9496,20.69557 -18.1558,19.41206 z"
       style="fill:#ffffff" />
  </g>
</svg>
