<?xml version="1.0" encoding="UTF-8" standalone="no"?>
<!-- Created with Inkscape (http://www.inkscape.org/) -->

<svg
   xmlns:dc="http://purl.org/dc/elements/1.1/"
   xmlns:cc="http://creativecommons.org/ns#"
   xmlns:rdf="http://www.w3.org/1999/02/22-rdf-syntax-ns#"
   xmlns:svg="http://www.w3.org/2000/svg"
   xmlns="http://www.w3.org/2000/svg"
   xmlns:sodipodi="http://sodipodi.sourceforge.net/DTD/sodipodi-0.dtd"
   xmlns:inkscape="http://www.inkscape.org/namespaces/inkscape"
   width="191.78059"
   height="167.37343"
   id="svg3640"
   version="1.1"
   inkscape:version="0.48.5 r10040"
   sodipodi:docname="snail.svg">
  <defs
     id="defs3642" />
  <sodipodi:namedview
     id="base"
     pagecolor="#ffffff"
     bordercolor="#666666"
     borderopacity="1.0"
     inkscape:pageopacity="0.0"
     inkscape:pageshadow="2"
     inkscape:zoom="0.98994949"
     inkscape:cx="121.73292"
     inkscape:cy="137.33653"
     inkscape:document-units="px"
     inkscape:current-layer="layer1"
     showgrid="false"
     fit-margin-top="0"
     fit-margin-left="0"
     fit-margin-right="0"
     fit-margin-bottom="0"
     inkscape:window-width="1920"
     inkscape:window-height="1137"
     inkscape:window-x="1600"
     inkscape:window-y="27"
     inkscape:window-maximized="1" />
  <metadata
     id="metadata3645">
    <rdf:RDF>
      <cc:Work
         rdf:about="">
        <dc:format>image/svg+xml</dc:format>
        <dc:type
           rdf:resource="http://purl.org/dc/dcmitype/StillImage" />
        <dc:title></dc:title>
      </cc:Work>
    </rdf:RDF>
  </metadata>
  <g
     inkscape:label="Layer 1"
     inkscape:groupmode="layer"
     id="layer1"
     transform="translate(-274.96089,-425.54555)">
    <path
       style="fill:#ffffff"
       d="m 456.69798,551.35019 c 12.53256,-7.94752 14.80444,-37.37058 -1.67221,-34.5995 -3.69984,-17.93207 -8.92727,-35.61379 -11.92439,-53.73909 0.15405,-8.53714 -8.7033,-22.01451 3.21822,-25.10541 3.4423,-9.09216 -11.7103,-17.98413 -16.04326,-7.87818 2.78032,8.30408 4.30759,17.28858 4.91799,26.32736 1.66355,16.11173 6.29038,31.7417 8.31311,47.77006 -3.97286,-6.19067 -8.50173,-15.93216 -13.4978,-23.01571 -5.11551,-8.51287 -11.45008,-16.16591 -17.36901,-24.09641 1.19398,-6.96544 -5.69889,-21.46656 -12.76296,-11.04819 -2.7128,5.77279 -3.83146,21.54521 6.5939,17.74256 5.46293,-3.31493 8.45977,8.01448 14.3958,15.49233 7.44342,13.35467 16.92864,26.24672 19.81219,41.53976 -1.47458,8.2457 -10.60155,13.97376 -15.34113,21.20311 -3.84241,3.02743 -9.49913,13.35893 -12.2514,12.70999 5.43583,-37.19061 -12.97348,-52.07197 -39.34724,-62.11993 -18.15825,-4.3263 -37.6709,-2.06403 -55.0667,4.37588 -14.29536,5.5801 -21.97902,21.5039 -23.01837,36.07748 0.32879,12.31939 9.81276,21.9981 18.32961,29.88094 3.53227,3.33733 13.91866,7.36233 3.42431,9.40936 -12.05428,2.88973 -22.94705,9.62754 -35.54697,10.39106 -9.61174,-0.98133 -9.03061,13.16374 0.7937,9.70553 18.61297,-0.30506 37.28287,-2.75713 55.85025,-0.61873 27.87411,1.84368 54.1551,-9.3384 78.72623,-21.13486 13.28804,-6.14088 27.77097,-10.11343 39.46613,-19.26941 z m -24.24604,4.35748 c -3.71669,1.6205 -15.15511,6.0663 -7.40611,-0.93891 4.42285,-6.8738 29.64302,-33.04744 31.8252,-27.73957 4.27824,7.42417 1.42689,14.82312 -5.25384,18.51263 -5.91256,4.19602 -12.39915,7.5738 -19.16525,10.16585 z m -92.5255,12.51827 c -11.76059,-4.33338 -24.36451,-9.66754 -31.26269,-20.79443 -7.18891,-8.83861 -8.60776,-21.79057 -2.3818,-31.54657 9.1774,-12.60424 25.18398,-18.24704 40.3025,-18.96305 19.08419,-1.81397 41.82386,2.28888 52.70439,19.79833 6.56093,7.31726 10.07479,16.75496 9.50307,26.59782 -1.33728,8.49851 -2.08924,18.80533 -8.82083,24.86276 -17.40623,11.39632 -43.46729,6.19263 -60.04464,0.0451 z m 38.24743,-10.83866 c -1.44442,-8.46119 -7.7255,0.32876 -19.68494,-1.69225 -14.99012,-2.34847 -30.1111,-12.91718 -33.80178,-28.18174 -2.57086,-11.826 10.57176,-8.82056 15.56629,-2.91239 2.85576,4.54216 13.31041,6.27641 9.19202,-1.69459 -5.78494,-6.13993 -15.88953,-15.88503 -24.46669,-10.22679 -9.72708,7.8207 -8.41714,22.41289 -1.40624,31.55495 10.86813,13.29112 28.84661,22.64717 46.26295,18.41615 3.03439,-0.85206 7.243,-1.85136 8.33839,-5.26334 z m -46.01913,25.42914 c -8.08537,0.0554 -16.76375,0.47548 -24.46655,0.4654 7.77845,-3.38257 16.32254,-5.26966 23.18475,-10.52457 8.12863,3.04396 16.61687,5.33669 24.36185,9.24624 -7.66775,0.65452 -15.38962,0.61549 -23.08005,0.81293 z"
       id="path3582"
       inkscape:connector-curvature="0"
       sodipodi:nodetypes="cccccccccccccccccccccccccccccccccccccccccccccccccccc" />
  </g>
</svg>
