<?xml version="1.0" encoding="UTF-8" standalone="no"?>
<!-- Created with Inkscape (http://www.inkscape.org/) -->

<svg
   xmlns:dc="http://purl.org/dc/elements/1.1/"
   xmlns:cc="http://creativecommons.org/ns#"
   xmlns:rdf="http://www.w3.org/1999/02/22-rdf-syntax-ns#"
   xmlns:svg="http://www.w3.org/2000/svg"
   xmlns="http://www.w3.org/2000/svg"
   xmlns:sodipodi="http://sodipodi.sourceforge.net/DTD/sodipodi-0.dtd"
   xmlns:inkscape="http://www.inkscape.org/namespaces/inkscape"
   width="882.16315"
   height="296.06427"
   id="svg3581"
   version="1.1"
   inkscape:version="0.48.5 r10040"
   sodipodi:docname="sun-clouds.svg">
  <defs
     id="defs3583" />
  <sodipodi:namedview
     id="base"
     pagecolor="#ffffff"
     bordercolor="#666666"
     borderopacity="1.0"
     inkscape:pageopacity="0.0"
     inkscape:pageshadow="2"
     inkscape:zoom="0.7"
     inkscape:cx="488.10244"
     inkscape:cy="-16.163753"
     inkscape:document-units="px"
     inkscape:current-layer="layer1"
     showgrid="false"
     fit-margin-top="0"
     fit-margin-left="0"
     fit-margin-right="0"
     fit-margin-bottom="0"
     inkscape:window-width="1600"
     inkscape:window-height="837"
     inkscape:window-x="0"
     inkscape:window-y="27"
     inkscape:window-maximized="1" />
  <metadata
     id="metadata3586">
    <rdf:RDF>
      <cc:Work
         rdf:about="">
        <dc:format>image/svg+xml</dc:format>
        <dc:type
           rdf:resource="http://purl.org/dc/dcmitype/StillImage" />
        <dc:title />
      </cc:Work>
    </rdf:RDF>
  </metadata>
  <g
     inkscape:label="Layer 1"
     inkscape:groupmode="layer"
     id="layer1"
     transform="translate(99.921697,-384.76446)">
    <path
       inkscape:connector-curvature="0"
       id="path3566"
       d="m 421.35482,385.21954 c -2.7053,3.2597 -1.1004,11.0175 5.0926,24.6161 3.8774,8.5139 5.7324,13.9977 7.2458,21.4208 1.3316,6.5314 3.0458,7.9558 6.0087,4.9929 3.083,-3.083 0.1218,-14.882 -8.5269,-33.9754 -3.2541,-7.1839 -5.9165,-13.5698 -5.9165,-14.191 -0.96439,-3.70915 -3.18556,-3.70175 -3.9037,-2.8635 z m 121.6885,6.5002 c -4.1011,3.6008 -9.1148,13.5791 -11.1125,22.1159 -6.8269,29.1744 -7.768,35.8458 -5.3403,37.8606 2.8366,2.3542 4.7316,-1.0116 6.6993,-11.8985 4.4001,-24.3461 5.081,-27.7262 6.6404,-32.9621 0.9009,-3.025 3.1512,-8.3125 5.0006,-11.75 3.6824,-6.8445 3.1519,-7.7906 -1.8875,-3.3659 z m -218.5348,9.8361 c -1.9447,0.6945 -1.4819,7.8062 0.7687,11.8132 5.4873,9.7696 13.3891,20.4209 24.4568,32.9666 4.852,5.5 11.0602,13.0375 13.796,16.75 2.7358,3.7125 5.3585,6.75 5.8283,6.75 0.4697,0 1.5687,-1.0907 2.4422,-2.4238 1.424,-2.1733 1.4326,-2.7246 0.083,-5.3343 -1.3279,-2.5679 -8.2035,-11.7924 -11.077,-14.8612 -0.5765,-0.6157 -3.5397,-3.7657 -6.585,-7 -5.5372,-5.8812 -17.9631,-20.8522 -17.9631,-21.6425 0,-0.416 -9.8023,-16.9228 -10.2607,-17.2786 -0.1316,-0.1022 -0.8018,0.015 -1.4893,0.2606 z m -424.430217,213.3672 c 141.392212,4.43288 353.595617,-16.20111 470.958617,-7.2912 l 4.2785,1.2962 -5.0285,5.7814 c -2.7656,3.1797 -5.0284,6.0479 -5.0284,6.3738 0,0.3258 -2.2726,3.8909 -5.0502,7.9224 l -5.0502,7.33 c -27.73078,-0.9015 -43.88148,1.40083 -68.0102,15.7108 -3.0751,1.86 -5.9892,2.7888 -8.75,2.7888 -5.3088,0 -8.7608,2.9704 -7.087,6.0981 0.9041,1.6892 1.7484,1.951 4.773,1.4798 19.3505,-3.0145 93.6165,-4.8168 128.1746,-3.1107 46.8611,2.3136 113.3091,5.3199 133.5,6.04 14.253,0.5083 60.9486,3.3934 89,5.4988 14.6129,1.0968 46.124,4.3695 57.5,5.9718 24.905,3.5081 75.8374,5.2795 85.7896,2.9838 2.77,-0.639 4.9293,-0.6471 6.0954,-0.023 1.28,0.685 2.433,0.527 3.9603,-0.5428 1.8157,-1.2717 2.1519,-2.4833 2.1372,-7.7024 -0.064,-22.8261 -14.8589,-52.8648 -37.2193,-75.5678 -11.2405,-11.4128 -17.8649,-16.1962 -32.7633,-23.6583 -11.0798,-5.5495 -19.3248,-7.7162 -41.9999,-11.037 -13.6214,-1.9949 -35.0105,-1.4842 -44.5,1.0626 -13.2331,3.5514 -28.1471,13.2447 -32.2737,20.9761 -0.9863,1.8479 -1.3519,1.6873 -5.9506,-2.6142 -2.6948,-2.5207 -5.9562,-5.1485 -7.2476,-5.8396 -2.0764,-1.1113 -2.156,-1.364 -0.688,-2.1856 2.5425,-1.4229 2.0394,-7.0365 -1.2887,-14.3763 -30.91703,-90.95134 -137.52408,-106.86297 -208.8591,-58.7823 -2.9192,1.9054 -6.5192,5.1699 -8,7.2545 l -2.6923,3.7902 -13,0.6276 c -7.15,0.3452 -17.4183,0.9272 -22.8185,1.2932 l -9.8184,0.6656 -5.6816,-5.5873 c -8.0772,-7.9433 -22.6659,-15.0042 -39.7621,-19.2449 -44.69077,-10.74087 -74.83124,-7.32585 -112.7901,10.7668 l -5.0983,-5.3683 C 41.315207,377.64212 -95.121699,512.45365 -99.921697,614.92304 z M 145.00732,499.64364 c 2.8869,3.1306 5.2494,6.0295 5.25,6.442 0,1.4934 3.7918,0.7025 6.3768,-1.3309 32.1112,-19.24741 73.91763,-17.46805 102.572,-11.3062 13.9705,3.0726 20.204,5.258 30.0524,10.536 8.6648,4.6438 9.9606,5.6824 15.0318,12.0477 2.0579,2.5831 3.9092,4.529 4.1139,4.3243 1.0687,-1.0686 32.4606,-3.499 46.3543,-3.5887 20.2594,-0.1309 31.7029,1.6798 48.0377,7.6009 23.6048,8.5565 32.2195,13.3638 48.4701,27.0484 7.9881,6.7267 14.9922,15.0476 14.9922,17.8107 0,1.3462 -4.3445,11.102 -5.5429,12.447 -0.1663,0.1866 -7.3926,0.9589 -16.0585,1.7163 -8.6659,0.7573 -18.2632,1.8943 -21.3274,2.5266 -11.43,2.3588 -32.1997,11.1585 -37.9423,16.0754 -3.2297,2.7654 -3.9747,2.857 -9.7973,1.205 -4.3672,-1.239 -11.2309,-1.745 -27.3316,-2.0146 -127.35836,-11.23096 -246.67612,5.77145 -369.821496,6.6341 -5.5517,0.016 -74.063068,1.50277 -72.776568,0.21627 C -77.422838,515.0528 36.028995,388.48812 145.00732,499.64364 z m 424.1392,51.9556 c 0.4885,0.955 2.0443,4.012 3.4573,6.7933 3.1581,6.2158 4.6857,14.0828 2.559,13.1782 -61.74556,-29.58889 -86.80744,-8.41706 -104.3399,-9.532 -0.8204,-2.5849 -15.6159,-16.7794 -22.0644,-21.1682 -2.75,-1.8716 -5.225,-3.6724 -5.5,-4.0017 -1.276,-1.5281 -11.2269,-7.2238 -18,-10.3028 -18.8744,-8.5801 -44.0402,-15.6339 -56.3008,-15.7807 l -4.1992,-0.05 3.8416,-3.1998 c 77.96789,-53.63576 175.79315,-20.97237 200.5464,44.0637 z m -36.0514,13.2507 c 19.45339,3.67631 37.96681,10.69872 49.8955,22.819 4.7273,4.8335 7.7516,7.1951 8.732,6.8188 0.8249,-0.3165 3.4648,-3.641 5.8664,-7.3877 7.5884,-11.8386 19.964,-18.0552 40.619,-20.4039 18.6353,-2.1191 51.4649,2.5807 67.5505,9.6704 23.5551,10.3818 46.6826,33.0782 59.4216,58.314 4.4004,8.717 9.0774,23.4383 9.7634,30.7306 l 0.5715,6.0756 -3.3438,1.385 c -6.736,2.7901 -64.7486,0.8191 -89.9127,-3.0549 -15.3827,-2.3681 -60.0747,-6.2999 -85,-7.4778 -4.675,-0.2209 -14.575,-0.8469 -22,-1.3909 -7.425,-0.5441 -20.025,-1.2661 -28,-1.6045 -16.9651,-0.7199 -19.3213,-0.8243 -79,-3.4997 -25.025,-1.1219 -48.2,-2.2563 -51.5,-2.5209 -9.9216,-0.7957 -98.258,-1.2983 -108.7731,-0.6189 2.34756,-14.90245 53.92168,-0.91538 54.2816,-14.238 0.01,-1.1702 2.8171,-6.396 6.25,-11.6129 7.4068,-11.2562 13.9529,-16.9024 27.7268,-23.9153 17.0679,-8.69 27.5347,-11.1041 55.0082,-12.6874 13.0838,-0.7541 12.1813,-0.16 17.6834,-11.6408 1.9986,-4.1704 4.1297,-7.1559 5.5362,-7.7557 18.65588,-6.67749 39.06314,-8.3359 58.6235,-5.999 z m 114.1634,-98.5866 c -2.475,0.6869 -5.85,1.9393 -7.5,2.7832 -1.65,0.8439 -7.5,2.9953 -13,4.781 -17.8152,5.7839 -21.5752,7.2799 -25.5704,10.174 -2.1613,1.5657 -3.9296,3.5188 -3.9296,4.3404 0,1.9103 3.8277,1.9571 5.9212,0.072 0.8683,-0.7818 8.2804,-3.6976 16.4713,-6.4797 14.8975,-5.0601 33.6602,-13.7573 34.3878,-15.94 0.4707,-1.412 -0.9233,-1.3568 -6.7803,0.2687 z m -20.8332,76.9739 c -7.5667,1.9146 -10.1668,3.5175 -10.1668,6.2674 0,2.772 -0.6353,2.7086 7.1502,0.714 6.9773,-1.7875 16.4039,-1.3853 27.4225,1.1701 8.8221,2.046 16.6361,2.299 17.2205,0.5577 0.2832,-0.8438 0.023,-1.1151 -0.6635,-0.691 -0.6214,0.384 -1.1297,0.2851 -1.1297,-0.2199 0,-1.48 -22.6304,-8.3692 -28.8273,-8.7756 -3.12,-0.2047 -8.0727,0.2351 -11.0059,0.9773 z"
       style="fill:#ffffff"
       sodipodi:nodetypes="csssscccssssssscssssscccsccccccsssccscsssssccccssssssccccccsccsccccccccsscsssscccccccccccccscscccccccssssscssscsscccssssccccsccscssccssssccscs" />
  </g>
</svg>
